SplineFontDB: 3.2
FontName: Sorazora-Regular
FullName: Sorazora
FamilyName: Sorazora
Weight: Regular
Copyright: SIL Open Font License (OFL)
UComments: "Created for Xymyric 9. Drawn in Inkscape and compiled using FontForge."
FontLog: "Sorazora is a serif font designed for the 9th Edition of the Xymyric alphabet. It includes two styles (Roman, Italic) for one weight (Regular). The design of the serifs is inspired by Han characters and is descended from Xymyric 8. The most noticeable feature compared to V8 is the thin headline and shallow pen angle. This font can be regarded as a transitional style. The direction of the serifs is flipped to reflect the pen angle, which is opposite that of V8.+AAoACgAA-Xymyric 9 specification: https://docs.google.com/document/d/10HuhhSWbcs7u7IWC0UuAK0fY2e_X8Z23sTPiJAIG3fo/edit?usp+AD0A-sharing+AAoACgAA-This font:+AAoA    sorazora_serif_w4.otf+AAoACgAA-Designer:+AAoA    Kegfeng"
Version: 1.0
DefaultBaseFilename: sorazora_serif_w4
ItalicAngle: -20
UnderlinePosition: -79
UnderlineWidth: 39
Ascent: 735
Descent: 265
InvalidEm: 0
LayerCount: 2
Layer: 0 0 "Back" 1
Layer: 1 0 "Fore" 0
XUID: [1021 177 139733406 4461]
FSType: 0
OS2Version: 0
OS2_WeightWidthSlopeOnly: 0
OS2_UseTypoMetrics: 1
CreationTime: 1673642421
ModificationTime: 1675276906
PfmFamily: 17
TTFWeight: 400
TTFWidth: 5
LineGap: 72
VLineGap: 0
OS2TypoAscent: 0
OS2TypoAOffset: 1
OS2TypoDescent: 0
OS2TypoDOffset: 1
OS2TypoLinegap: 72
OS2WinAscent: 0
OS2WinAOffset: 1
OS2WinDescent: 0
OS2WinDOffset: 1
HheadAscent: 0
HheadAOffset: 1
HheadDescent: 0
HheadDOffset: 1
OS2Vendor: 'PfEd'
MarkAttachClasses: 1
DEI: 91125
LangName: 1033
GaspTable: 3 9 14 16 5 65535 15 1
OtfFeatName: 'ss01' 1033 "All disconnected"
OtfFeatName: 'ss02' 1033 "Override punctuation substitution"
OtfFeatName: 'ss03' 1033 "Traditional Xymyric figures"
OtfFeatName: 'ss04' 1033 "Double isolate K ligature"
OtfFeatName: 'ss05' 1033 "Use ideographic comma"
Encoding: ISO8859-1
UnicodeInterp: none
NameList: AGL For New Fonts

StartChar: a
Encoding: 97 97 26
Width: 666
Flags: W
HStem: -13.6191 42.0703<379.499 503.602> 366.661 36.1348<271.364 348.531 385.422 506.498 605.174 764.812> 518.939 106.453<486.157 571.463>
VStem: 231.203 81.2617<101.21 260.909> 475.583 106.454<529.514 614.818> 573.049 81.2607<134.227 300.256>
LayerCount: 2
Fore
SplineSet
117.377929688 366.661132812 m 2xf4
 113.68828134 366.661132812 112.02422771 368.12816688 112.02422771 370.098057967 c 0
 112.02422771 378.165853193 199.836375886 448.704893898 218.622070312 462.922851562 c 1
 271.364257812 402.795898438 l 1
 678.481445312 402.795898438 l 2
 714.55078125 402.795898438 772.114257812 407.079101562 784.563476562 408.901367188 c 1
 765.782226562 357.94921875 l 1
 745.29296875 362.9921875 710.90234375 366.661132812 670.754882812 366.661132812 c 2
 605.174079724 366.661132812 l 1
 633.784309868 340.226175797 654.309570312 298.144850493 654.309570312 237.021484375 c 0
 654.309570312 114.640625 566.330078125 -13.619140625 408.002929688 -13.619140625 c 0
 307.409179688 -13.619140625 231.203125 45.76171875 231.203125 161.190429688 c 0
 231.203125 250.837843521 277.50264905 325.132297099 348.530532016 366.661132812 c 1
 117.377929688 366.661132812 l 2xf4
582.037109375 572.166015625 m 0xf8
 582.037109375 542.76953125 558.206054688 518.939453125 528.810546875 518.939453125 c 0
 499.413085938 518.939453125 475.583007812 542.76953125 475.583007812 572.166015625 c 0
 475.583007812 601.5625 499.413085938 625.392578125 528.810546875 625.392578125 c 0
 558.206054688 625.392578125 582.037109375 601.5625 582.037109375 572.166015625 c 0xf8
442.266601562 366.661132812 m 0
 375.68359375 366.661132812 312.46484375 302.595703125 312.46484375 197.08203125 c 0
 312.46484375 82.7490234375 380.686523438 28.451171875 439.270507812 28.451171875 c 0
 512.530273438 28.451171875 573.048828125 94.3349609375 573.048828125 201.129882812 c 0xf4
 573.048828125 300.416015625 525.15234375 366.661132812 442.266601562 366.661132812 c 0
EndSplineSet
Validated: 524289
EndChar

StartChar: b
Encoding: 98 98 27
Width: 483
Flags: HW
HStem: -13.6221 47.4258<318.06 463.527> 195.059 36.1338<219.695 478.918> 366.661 36.1346<297.314 528.523>
VStem: 137.399 82.2953<129.395 195.059 231.192 269.29>
LayerCount: 2
Fore
SplineSet
259.819319638 366.661670685 m 1
 117.376953125 366.662109375 l 2
 113.687304777 366.662109375 112.023251148 368.128801397 112.023251148 370.098413253 c 0
 112.023251148 378.164589429 199.834445236 448.703612799 218.62109375 462.922851562 c 1
 271.36328125 402.795898438 l 1
 442.192382812 402.79296875 l 2
 478.999999989 402.792337506 535.825195312 407.080078125 548.274414062 408.901367188 c 1
 529.493164062 357.94921875 l 1
 509.00390625 362.9921875 474.61328125 366.661132812 434.465820312 366.661132812 c 2
 390.742115065 366.661267472 l 2
 312.123357095 366.481866359 226.955601334 337.580161756 219.228405625 231.192382812 c 1
 392.587890625 231.192382812 l 2
 428.657226562 231.192382812 486.221679688 235.474609375 498.669921875 237.295898438 c 1
 479.888671875 186.34375 l 1
 459.399414062 191.38671875 425.008789062 195.055664062 384.861328125 195.055664062 c 2
 219.694698466 195.058561757 l 1
 229.709932587 99.1347911728 311.170907127 33.8037109375 408.461914062 33.8037109375 c 0
 431.78125 33.8037109375 456.920898438 36.9775390625 499.291992188 44.9443359375 c 1
 499.291992188 21.4990234375 l 1
 422.59375 -9.4208984375 383.594726562 -13.6220703125 347.287109375 -13.6220703125 c 0
 229.17578125 -13.6220703125 137.399414062 63.802734375 137.399414062 179.23046875 c 0
 137.399414062 284.503836517 210.620617966 348.15076628 259.819319638 366.661670685 c 1
EndSplineSet
Validated: 524321
EndChar

StartChar: c
Encoding: 99 99 28
Width: 389
Flags: W
HStem: -13.6201 51.2256<140.731 244.938> 368.897 47.6543<177.232 295.077>
VStem: 368.651 81.2617<147.853 296.94>
DStem2: -20.9766 -228.002 60.1885 -228.002 0.34202 0.939693<44.1344 247.266>
LayerCount: 2
Fore
SplineSet
262.46484375 416.551757812 m 0
 364.635742188 416.551757812 449.913085938 356.276367188 449.913085938 245.204101562 c 0
 449.913085938 161.098632812 402.010742188 92.38671875 358.78515625 56.0966796875 c 1
 333.154259784 40.1836115711 209.513447572 -13.6201171875 151.536132812 -13.6201171875 c 0
 149.042112151 -13.6201171875 146.615387863 -13.5626876808 144.251241699 -13.4499181315 c 0
 139.847992324 -30.6916123658 133.12168278 -50.2059043137 124.208007812 -71.5419921875 c 2
 69.2880859375 -203.000976562 l 1
 45.126953125 -212.6875 7.322265625 -222.969726562 -20.9765625 -228.001953125 c 1
 34.6650390625 -94.81640625 l 2
 55.6399632126 -44.6102610424 64.5206732965 -14.8859101601 64.5206732965 4.95433430081 c 0
 64.5206732965 14.5959661473 62.4234013704 21.9033636009 58.59765625 28.0927734375 c 1
 139.858398438 59.6396484375 l 1
 158.5078125 45.51171875 175.41015625 37.60546875 207.876953125 37.60546875 c 0
 267.725585938 37.60546875 368.651367188 91.8427734375 368.651367188 213.205078125 c 0
 368.651367188 318.456054688 294.21484375 368.897460938 200.385742188 368.897460938 c 0
 192.721679688 368.897460938 165.041015625 365.4375 143.475585938 357.831054688 c 1
 143.475585938 382.162109375 l 1
 185.935546875 398.9765625 243.552734375 416.551757812 262.46484375 416.551757812 c 0
EndSplineSet
Validated: 524289
EndChar

StartChar: d
Encoding: 100 100 29
Width: 480
Flags: W
HStem: -13.6191 42.0703<249.271 373.16> 374.176 42.377<259.217 381.148>
VStem: 99.5195 81.2617<103.458 263.461> 443.312 81.2607<137.002 307.586>
LayerCount: 2
Fore
SplineSet
312.529296875 374.17578125 m 0
 250.075195312 374.17578125 180.78125 303.68359375 180.78125 195.416992188 c 0
 180.78125 88.11328125 250.045898438 28.451171875 309.533203125 28.451171875 c 0
 382.79296875 28.451171875 443.311523438 102.12109375 443.311523438 208.915039062 c 0
 443.311523438 308.202148438 395.415039062 374.17578125 312.529296875 374.17578125 c 0
358.54296875 416.552734375 m 0
 451.46875 416.552734375 524.572265625 347.755859375 524.572265625 244.807617188 c 0
 524.572265625 101.814453125 425.7421875 -13.619140625 278.265625 -13.619140625 c 0
 177.671875 -13.619140625 99.51953125 55.1240234375 99.51953125 159.525390625 c 0
 99.51953125 336.744140625 250.129882812 416.552734375 358.54296875 416.552734375 c 0
EndSplineSet
Validated: 524289
EndChar

StartChar: e
Encoding: 101 101 30
Width: 659
Flags: W
HStem: 366.661 36.1348<280.958 356.177>
VStem: 356.183 91.2848<310.586 391.888>
DStem2: 150.465 -228.001 231.628 -228.001 0.34202 0.939693<45.0187 319.697 387.417 617.957>
LayerCount: 2
Fore
SplineSet
353.56337338 110.357382818 m 1
 445.684949987 200.662285062 662.352910563 334.539087496 743.145507812 416.548828125 c 1
 798.0625 416.548828125 l 1
 740.350519883 360.021164741 617.209529102 279.307171461 505.974609375 193.579101562 c 0
 422.416015625 129.18359375 329.381835938 43.193359375 278.493883519 -98.1186095326 c 2
 240.728515625 -202.997070312 l 1
 216.567382812 -212.682617188 178.762695312 -222.96875 150.46484375 -228.000976562 c 1
 338.154296875 293.235351562 l 2
 350.361493687 327.135670338 356.182593008 345.384812304 356.182593008 355.208447006 c 0
 356.182593008 366.550921506 348.422333881 366.661132812 333.771484375 366.661132812 c 2
 126.969726562 366.661132812 l 2
 120.735351562 366.661132812 120.284179688 370.850585938 123.872070312 374.576171875 c 0
 143.734375 395.201171875 203.373046875 444.123046875 228.212890625 462.923828125 c 1
 280.958007812 402.795898438 l 1
 421.251953125 402.552734375 l 2
 439.395908286 402.552734375 447.467380532 398.670224686 447.467380532 385.105898467 c 0
 447.467380532 373.293616231 441.34635859 354.139103282 430.42578125 323.8125 c 2
 353.56337338 110.357382818 l 1
EndSplineSet
Validated: 524289
EndChar

StartChar: f
Encoding: 102 102 31
Width: 502
Flags: W
HStem: -13.6383 54.6007<115.181 284.302> 373.066 43.4873<322.451 455.975>
VStem: 263.943 94.1126<524.744 593.157> 490.133 81.2607<210.106 338.771>
DStem2: 58.3448 -13.6383 139.59 -13.6383 0.34202 0.939693<87.9383 414.566 447.49 602.6>
LayerCount: 2
Fore
SplineSet
571.393554688 293.587890625 m 0
 571.393554688 164.627097834 412.600026636 -13.6383495335 120.862249417 -13.6383495335 c 0
 109.500419491 -13.6383495335 75.2579595136 -13.2206795613 60.259765625 -8.376953125 c 1
 259.489257812 534.090820312 l 2
 262.339269445 541.850859153 263.942758858 548.126981118 263.942758858 553.03522542 c 0
 263.942758858 562.638043197 257.804981505 567.004949544 242.85613814 567.004949544 c 0
 236.222331486 567.004949544 227.853367374 566.144977537 217.515625 564.500976562 c 1
 217.515625 582.760742188 l 1
 254.010742188 595.168945312 323.46484375 603.057617188 334.786132812 603.057617188 c 0
 352.147416162 603.057617188 358.055316779 598.14029728 358.055316779 588.879165292 c 0
 358.055316779 582.562301712 355.306739011 574.22453323 351.569335938 564.047851562 c 2
 284.119535644 380.394778235 l 1
 312.036253912 391.420810458 344.820664421 403.230583421 367.749023438 411.247070312 c 0
 384.27734375 414.95703125 415.024414062 416.553710938 442.53125 416.553710938 c 0
 512.28125 416.553710938 571.393554688 382.36328125 571.393554688 293.587890625 c 0
244.896192298 273.59701871 m 2
 160.163085938 42.884765625 l 1
 174.409503721 41.5841073693 188.166096237 40.96230311 201.438314046 40.96230311 c 0
 399.983618279 40.96230311 490.1328125 180.113175133 490.1328125 267.428710938 c 0
 490.1328125 328.751953125 458.870117188 373.06640625 384.395507812 373.06640625 c 0
 327.915445177 373.06640625 271.989419914 345.827030109 244.896192298 273.59701871 c 2
EndSplineSet
Validated: 524289
EndChar

StartChar: g
Encoding: 103 103 32
Width: 389
Flags: W
HStem: -13.6201 51.2256<140.731 244.938> 368.896 47.6543<177.233 295.077> 518.939 106.453<285.021 370.326>
VStem: 274.446 106.454<529.514 614.818> 368.651 81.2617<147.853 296.939>
DStem2: -20.9766 -228.002 60.1888 -228.002 0.34202 0.939693<44.1339 247.266>
LayerCount: 2
Fore
SplineSet
262.46484375 416.55078125 m 0xe8
 364.635742188 416.55078125 449.913085938 356.275390625 449.913085938 245.204101562 c 0
 449.913085938 161.098632812 402.01171875 92.38671875 358.78515625 56.0966796875 c 1
 333.151773268 40.1820678053 209.514144145 -13.6201171875 151.536132812 -13.6201171875 c 0
 149.042138454 -13.6201171875 146.615439049 -13.5626935178 144.251316498 -13.4499346215 c 0
 139.848068498 -30.6915289056 133.121733253 -50.2057834992 124.208007812 -71.5419921875 c 2
 69.2880859375 -203.001953125 l 1
 45.126953125 -212.6875 7.322265625 -222.969726562 -20.9765625 -228.001953125 c 1
 34.6650390625 -94.8173828125 l 2
 55.6399533459 -44.611261222 64.5211072073 -14.8864724215 64.5211072073 4.95376365051 c 0
 64.5211072073 14.5954052887 62.4237244449 21.9027004184 58.59765625 28.091796875 c 1
 139.858398438 59.638671875 l 1
 158.5078125 45.51171875 175.411132812 37.60546875 207.876953125 37.60546875 c 0
 267.725585938 37.60546875 368.651367188 91.8427734375 368.651367188 213.205078125 c 0
 368.651367188 318.456054688 294.215820312 368.896484375 200.385742188 368.896484375 c 0
 192.721679688 368.896484375 165.041015625 365.436523438 143.4765625 357.831054688 c 1
 143.4765625 382.162109375 l 1
 185.935546875 398.975585938 243.552734375 416.55078125 262.46484375 416.55078125 c 0xe8
380.900390625 572.166015625 m 0xf0
 380.900390625 542.76953125 357.0703125 518.939453125 327.674804688 518.939453125 c 0
 298.27734375 518.939453125 274.446289062 542.76953125 274.446289062 572.166015625 c 0
 274.446289062 601.5625 298.27734375 625.392578125 327.674804688 625.392578125 c 0
 357.0703125 625.392578125 380.900390625 601.5625 380.900390625 572.166015625 c 0xf0
EndSplineSet
Validated: 524289
EndChar

StartChar: h
Encoding: 104 104 33
Width: 502
Flags: W
HStem: -204.698 106.453<189.897 275.201> -13.6383 54.6007<115.193 284.302> 373.066 43.4873<322.449 455.975>
VStem: 179.321 106.454<-194.124 -108.819> 263.943 94.1126<524.745 593.157> 490.133 81.2607<210.106 338.771>
DStem2: -11.1953 -204.698 70.0502 -204.698 0.34202 0.939693<291.26 617.88 650.811 805.922>
LayerCount: 2
Fore
SplineSet
285.775390625 -151.471679688 m 0xf4
 285.775390625 -180.868164062 261.9453125 -204.698242188 232.549804688 -204.698242188 c 0
 203.153320312 -204.698242188 179.322265625 -180.868164062 179.321289062 -151.470703125 c 0
 179.321289062 -122.075195312 203.15234375 -98.2451171875 232.549804688 -98.2451171875 c 0
 261.9453125 -98.2451171875 285.775390625 -122.075195312 285.775390625 -151.471679688 c 0xf4
571.393554688 293.587890625 m 0
 571.393554688 164.627097834 412.600026636 -13.6383495335 120.862249417 -13.6383495335 c 0
 109.523267138 -13.6383495335 75.2591867833 -13.221075913 60.259765625 -8.376953125 c 1
 259.489257812 534.090820312 l 2
 262.339269445 541.850859153 263.942758858 548.127047877 263.942758858 553.035373332 c 0
 263.942758858 562.638214459 257.805154619 567.005346929 242.85677058 567.005346929 c 0
 236.222863397 567.005346929 227.853695895 566.145251471 217.515625 564.500976562 c 1
 217.515625 582.760742188 l 1
 254.010742188 595.168945312 323.463867188 603.057617188 334.786132812 603.057617188 c 0
 352.147416162 603.057617188 358.055316779 598.14029728 358.055316779 588.879370483 c 0xec
 358.055316779 582.56264686 355.306739011 574.225113797 351.569335938 564.048828125 c 2
 284.119263965 380.394670932 l 1
 312.036041211 391.420733838 344.820590043 403.230557416 367.749023438 411.247070312 c 0
 384.27734375 414.95703125 415.024414062 416.553710938 442.53125 416.553710938 c 0
 512.28125 416.553710938 571.393554688 382.36328125 571.393554688 293.587890625 c 0
244.888528806 273.576584739 m 2
 160.163085938 42.884765625 l 1
 174.409503721 41.5841073693 188.166096237 40.96230311 201.438314046 40.96230311 c 0
 399.983618279 40.96230311 490.1328125 180.113175133 490.1328125 267.428710938 c 0
 490.1328125 328.751953125 458.870117188 373.06640625 384.395507812 373.06640625 c 0
 327.910119394 373.06640625 271.978872838 345.821892797 244.888528806 273.576584739 c 2
EndSplineSet
Validated: 524289
EndChar

StartChar: i
Encoding: 105 105 34
Width: 393
Flags: W
HStem: -13.6191 39.7871<150.135 258.285> 366.66 36.1348<322.249 380.172>
VStem: 47.9307 83.959<42.5181 124.824> 380.178 91.3437<313.066 391.886>
DStem2: 174.519 -228.002 255.683 -228.002 0.34202 0.939693<45.0153 248.725 263.991 468.121 487.999 617.821>
LayerCount: 2
Fore
SplineSet
269.504882812 462.922851562 m 1
 322.249023438 402.794921875 l 1
 445.305664062 402.551757812 l 2
 463.449976384 402.551757812 471.521430773 398.66820262 471.521430773 385.103136529 c 0
 471.521430773 373.28997944 465.40018345 354.134536833 454.479492188 323.807617188 c 2
 264.782226562 -203.001953125 l 1
 240.62109375 -212.6875 202.817382812 -222.969726562 174.518554688 -228.001953125 c 1
 258.784679549 6.01511640216 l 1
 240.418329048 -0.703541614791 193.118670614 -13.619140625 154.943359375 -13.619140625 c 0
 70.6416015625 -13.619140625 47.9306640625 24.4482421875 47.9306640625 62.2978515625 c 0
 47.9306640625 167.170456486 191.706770936 203.912091007 344.064261595 242.846677289 c 1
 362.166992188 293.120117188 l 2
 374.348993145 326.951188507 380.177725152 345.220540772 380.177725152 355.085457525 c 0
 380.177725152 366.436522683 372.460512428 366.66015625 357.825195312 366.66015625 c 2
 168.26171875 366.66015625 l 2
 162.02734375 366.66015625 161.575195312 370.849609375 165.163085938 374.575195312 c 0
 185.025390625 395.200195312 244.665039062 444.122070312 269.504882812 462.922851562 c 1
333.114411805 212.437639685 m 1
 311.700197777 208.349776155 289.089422733 202.943099406 270.211914062 197.5390625 c 0
 210.67578125 180.494140625 131.889648438 141.833007812 131.889648438 89.4814453125 c 0
 131.889648438 42.3408203125 166.986328125 26.16796875 218.599609375 26.16796875 c 0
 235.87345768 26.16796875 251.427223147 27.9596454355 267.812017428 31.0851093511 c 1
 333.114411805 212.437639685 l 1
EndSplineSet
Validated: 524289
EndChar

StartChar: j
Encoding: 106 106 35
Width: 506
Flags: W
HStem: -228.001 21G<150.98 158.005> 366.661 36.1348<271.365 355.687 439.368 604.484>
DStem2: 143.855 -228.001 225.018 -228.001 0.34202 0.939693<45.0187 631.25>
LayerCount: 2
Fore
SplineSet
117.377929688 366.661132812 m 6
 113.688366496 366.661132812 112.024646553 368.128099164 112.024646553 370.097921574 c 0
 112.024646553 378.165558289 199.836275529 448.70425897 218.622070312 462.922851562 c 1
 271.365234375 402.795898438 l 1
 518.154296875 402.796875 l 2
 554.223632812 402.796875 611.787109375 407.080078125 624.236328125 408.901367188 c 1
 605.455078125 357.94921875 l 1
 584.965820312 362.9921875 550.575195312 366.661132812 510.427734375 366.661132812 c 2
 439.368314605 366.661132812 l 1
 234.119140625 -202.997070312 l 1
 209.958007812 -212.682617188 172.154296875 -222.96875 143.85546875 -228.000976562 c 1
 355.687218509 366.661132812 l 1
 117.377929688 366.661132812 l 6
EndSplineSet
Validated: 524289
EndChar

StartChar: k
Encoding: 107 107 36
Width: 191
Flags: W
HStem: 372.299 14.0332<142.896 166.477> 523.576 96.4238<207.211 287.165 319.797 399.753>
VStem: 190.518 87.8674<316.235 395.763> 198.978 96.4229<531.81 611.766> 311.562 96.4238<531.81 611.766>
DStem2: 34.7123 -45.2822 114.03 -45.2822 0.34202 0.939693<60.7777 431.435>
LayerCount: 2
Fore
SplineSet
407.986328125 571.788085938 m 0xc8
 407.986328125 545.161132812 386.40234375 523.576171875 359.774414062 523.576171875 c 0
 333.1484375 523.576171875 311.5625 545.161132812 311.5625 571.788085938 c 0
 311.5625 598.4140625 333.1484375 620 359.774414062 620 c 0
 386.40234375 620 407.986328125 598.4140625 407.986328125 571.788085938 c 0xc8
295.400390625 571.788085938 m 0xd8
 295.400390625 545.161132812 273.809570312 523.576171875 247.188476562 523.576171875 c 0
 220.560546875 523.576171875 198.977539062 545.161132812 198.977539062 571.788085938 c 0
 198.977539062 598.415039062 220.560546875 620 247.188476562 620 c 0
 273.809570312 620 295.400390625 598.415039062 295.400390625 571.788085938 c 0xd8
140.372070312 386.33203125 m 1
 175.91015625 396.21484375 234.55859375 409.8984375 265.217773438 416.170898438 c 1
 272.284034211 411.589224323 278.385413721 403.134860381 278.385413721 387.373654872 c 0
 278.385413721 375.648024151 275.008487277 359.878280704 266.139648438 338.650390625 c 2
 170.103515625 108.779296875 l 2
 135.015625 24.7919921875 98.4091796875 -18.9462890625 69.232421875 -45.2822265625 c 1
 58.35546875 -42.7041015625 l 2
 58.3408253125 -41.690838735 58.3334035222 -40.6584748695 58.3334035222 -39.6075401194 c 0
 58.3334035222 -4.84440639543 66.4541324181 50.2385036245 89.939453125 106.453125 c 2
 171.953125 302.7578125 l 2
 183.965773189 331.511350167 190.518026657 348.1805521 190.518026657 357.580593923 c 0xe8
 190.518026657 364.743214136 186.713724833 367.685289585 178.622070312 368.537109375 c 2
 142.895507812 372.298828125 l 1
 140.372070312 386.33203125 l 1
EndSplineSet
Validated: 524289
EndChar

StartChar: l
Encoding: 108 108 37
Width: 191
Flags: W
HStem: -233.686 74.7324<-6.34994 35.0045> 372.299 14.0332<142.896 166.477> 396.171 20G<249.888 268.751>
VStem: -28.3057 21.4258<-121.154 -101.891> 190.518 87.867<316.235 395.763>
DStem2: -33.8599 -233.686 45.4571 -233.686 0.34202 0.939693<261.277 631.93>
LayerCount: 2
Fore
SplineSet
117.889648438 -101.890625 m 1
 87.494140625 -157.649414062 26.2392578125 -233.685546875 0.93359375 -233.685546875 c 0
 -13.6334740468 -233.685546875 -28.9316874595 -178.450247217 -28.9316874595 -121.459751937 c 0
 -28.9316874595 -114.932953312 -28.7310387923 -108.383133851 -28.3056640625 -101.890625 c 1
 -6.8798828125 -101.890625 l 1
 -4.7060546875 -129.776367188 7.5107421875 -158.953125 24.2060546875 -158.953125 c 0
 42.1787109375 -158.953125 78.703125 -123.840820312 93.7119140625 -101.890625 c 1
 117.889648438 -101.890625 l 1
140.372070312 386.33203125 m 1
 175.91015625 396.215820312 234.55859375 409.8984375 265.217773438 416.170898438 c 1
 272.284034211 411.589224323 278.385413721 403.135181473 278.385413721 387.374065797 c 0
 278.385413721 375.648501907 275.008487277 359.878697297 266.139648438 338.650390625 c 2
 170.104492188 108.780273438 l 2
 135.015625 24.7919921875 98.4091796875 -18.9462890625 69.232421875 -45.2822265625 c 1
 58.3564453125 -42.703125 l 5
 58.3417481508 -41.6881596825 58.3342990218 -40.6540271578 58.3342990218 -39.6012603262 c 0
 58.3342990218 -4.83871619036 66.4563220267 50.2414071798 89.9404296875 106.453125 c 6
 171.953125 302.7578125 l 2
 183.965858931 331.5115554 190.518434754 348.18110462 190.518434754 357.581381833 c 0
 190.518434754 364.744063186 186.714071352 367.686274127 178.622070312 368.538085938 c 2
 142.895507812 372.298828125 l 1
 140.372070312 386.33203125 l 1
EndSplineSet
Validated: 524289
EndChar

StartChar: m
Encoding: 109 109 38
Width: 191
Flags: W
HStem: -205.086 106.453<-10.2685 75.0363> 372.299 14.0332<142.896 166.477>
VStem: -20.8438 106.454<-194.512 -109.207> 190.518 87.867<316.235 395.763>
DStem2: -23.4505 -205.086 55.8665 -205.086 0.34202 0.939693<230.842 601.495>
LayerCount: 2
Fore
SplineSet
85.6103515625 -151.859375 m 0
 85.6103515625 -181.255859375 61.7802734375 -205.0859375 32.384765625 -205.0859375 c 0
 2.98828125 -205.0859375 -20.8427734375 -181.255859375 -20.84375 -151.858398438 c 0
 -20.84375 -122.462890625 2.9873046875 -98.6328125 32.384765625 -98.6328125 c 0
 61.7802734375 -98.6328125 85.6103515625 -122.462890625 85.6103515625 -151.859375 c 0
140.372070312 386.33203125 m 1
 175.91015625 396.215820312 234.55859375 409.8984375 265.217773438 416.170898438 c 1
 272.284034211 411.589224323 278.385413721 403.135181473 278.385413721 387.374065797 c 0
 278.385413721 375.648501907 275.008487277 359.878697297 266.139648438 338.650390625 c 2
 170.104492188 108.780273438 l 2
 135.015625 24.7919921875 98.4091796875 -18.9462890625 69.232421875 -45.2822265625 c 1
 58.3564453125 -42.703125 l 5
 58.3417465593 -41.6880497735 58.3342965646 -40.6538031884 58.3342965646 -39.6009183182 c 0
 58.3342965646 -4.83835492394 66.455451188 50.241591524 89.9404296875 106.453125 c 6
 171.953125 302.7578125 l 2
 183.965858931 331.5115554 190.518434754 348.18110462 190.518434754 357.581381833 c 0
 190.518434754 364.744063186 186.714071352 367.686274127 178.622070312 368.538085938 c 2
 142.895507812 372.298828125 l 1
 140.372070312 386.33203125 l 1
EndSplineSet
Validated: 524289
EndChar

StartChar: n
Encoding: 110 110 39
Width: 202
Flags: W
VStem: 195.332 94.2131<339.936 406.632>
DStem2: -16.1367 -227.999 65.0263 -227.999 0.34202 0.939693<45.8962 630.786>
LayerCount: 2
Fore
SplineSet
266.2578125 416.551757812 m 0
 283.658337061 416.551757812 289.545247229 411.63647149 289.545247229 402.341834468 c 0
 289.545247229 396.037897491 286.837262158 387.719454435 283.176757812 377.553710938 c 2
 74.126953125 -202.995117188 l 1
 49.9658203125 -212.680664062 12.162109375 -222.966796875 -16.13671875 -227.999023438 c 1
 190.962890625 347.596679688 l 2
 193.754199239 355.354587325 195.332115093 361.626898999 195.332115093 366.532444044 c 0
 195.332115093 376.156646676 189.258618108 380.520078917 174.358932787 380.520078917 c 0
 167.729732407 380.520078917 159.353337377 379.656312456 148.987304688 378.0078125 c 1
 148.987304688 396.266601562 l 1
 185.483398438 408.67578125 254.935546875 416.551757812 266.2578125 416.551757812 c 0
EndSplineSet
Validated: 524289
EndChar

StartChar: o
Encoding: 111 111 40
Width: 446
Flags: W
HStem: 191.896 106.453<246.399 331.704> 366.662 36.1348<303.6 430.527>
VStem: 235.824 106.454<202.471 287.775> 451.701 83.5918<261.16 348.16>
LayerCount: 2
Fore
SplineSet
342.278320312 245.122070312 m 0
 342.278320312 215.7265625 318.448242188 191.896484375 289.052734375 191.896484375 c 0
 259.655273438 191.896484375 235.825195312 215.7265625 235.82421875 245.123046875 c 0
 235.82421875 274.51953125 259.655273438 298.349609375 289.052734375 298.349609375 c 0
 318.448242188 298.349609375 342.278320312 274.51953125 342.278320312 245.122070312 c 0
149.61328125 366.662109375 m 2
 143.37890625 366.662109375 142.927734375 370.850585938 146.515625 374.576171875 c 0
 166.377929688 395.202148438 226.016601562 444.123046875 250.857421875 462.923828125 c 1
 303.599609375 402.796875 l 1
 456.666992188 402.6796875 l 2
 503.206054688 402.642578125 535.29296875 373.3359375 535.29296875 320.102539062 c 0
 535.29296875 194.931717127 193.120691553 -1.37461762875 131.29296875 -31.384765625 c 1
 103.90625 -6.5458984375 l 1
 154.04296875 15.5087890625 280.353515625 95.1826171875 333.46875 139.63671875 c 0
 420.7890625 212.717773438 451.701171875 248.25390625 451.701171875 298.905273438 c 0
 451.701171875 352.768554688 408.415039062 366.662109375 365.805664062 366.662109375 c 2
 149.61328125 366.662109375 l 2
EndSplineSet
Validated: 524289
EndChar

StartChar: p
Encoding: 112 112 41
Width: 479
Flags: W
VStem: 526.714 69.0497<347.98 400.929>
DStem2: 263.171 380.081 189.457 318.225 0.0874435 -0.996169<0.087546 336.633> 292.609 44.7373 305.784 -1.46186 0.611304 0.791396<0 389.764>
LayerCount: 2
Fore
SplineSet
575.159179688 416.55078125 m 0
 586.867897452 416.55078125 595.764115184 407.804799207 595.764115184 393.111302436 c 0
 595.764115184 381.911057547 590.595072519 367.255079189 577.5625 350.3828125 c 2
 305.784492686 -1.46186259093 l 1
 221.584960938 -203 l 1
 197.423828125 -212.685546875 159.620117188 -222.965820312 131.321289062 -227.998046875 c 1
 218.985501558 -18.1682037994 l 1
 189.45703125 318.224609375 l 2
 185.205078125 366.6640625 176.2265625 371.30859375 163.60546875 371.30859375 c 0
 154.77734375 371.30859375 134.10546875 365.419921875 121.1328125 360.091796875 c 1
 121.1328125 380.412109375 l 1
 175.208984375 403.233398438 232.415039062 416.55078125 246.196289062 416.55078125 c 0
 259.970081483 416.55078125 260.600820854 409.364212095 263.170898438 380.081054688 c 2
 292.60892007 44.7373285466 l 1
 516.451171875 334.529296875 l 2
 523.583978232 343.763217287 526.714464147 351.102861525 526.714464147 356.670940606 c 0
 526.714464147 365.957692086 518.006259792 370.31640625 504.634765625 370.31640625 c 0
 498.953125 370.31640625 487.232421875 367.248046875 474.155273438 362.759765625 c 1
 474.155273438 382.602539062 l 1
 504.075195312 393.84375 568.875976562 416.55078125 575.159179688 416.55078125 c 0
EndSplineSet
Validated: 524289
EndChar

StartChar: q
Encoding: 113 113 42
Width: 666
Flags: W
HStem: -13.6182 42.0693<379.5 503.602> 366.662 36.1352<271.365 348.531 385.206 506.716 605.176 764.812> 561.574 27.1455<673.823 734.543>
VStem: 231.203 81.2627<101.211 260.861> 573.049 81.2617<134.228 300.189>
LayerCount: 2
Fore
SplineSet
348.530603142 366.661701453 m 1
 117.377929688 366.662109375 l 2
 113.688590912 366.662109375 112.024848951 368.128555287 112.024848951 370.098119875 c 0
 112.024848951 371.456795108 112.816578463 373.054890823 114.28125 374.576171875 c 0
 134.143554688 395.201171875 193.782226562 444.123046875 218.622070312 462.922851562 c 1
 271.365234375 402.796875 l 1
 678.482421875 402.796875 l 2
 714.551757812 402.796875 772.115234375 407.080078125 784.564453125 408.90234375 c 1
 765.782226562 357.950195312 l 1
 745.29296875 362.9921875 710.90234375 366.661132812 670.755859375 366.661132812 c 2
 605.17561092 366.661248544 l 1
 633.785472764 340.226238803 654.310546875 298.145163583 654.310546875 237.022460938 c 0
 654.310546875 114.641601562 566.330078125 -13.6181640625 408.002929688 -13.6181640625 c 0
 307.409179688 -13.6181640625 231.203125 45.7626953125 231.203125 161.190429688 c 0
 231.203125 250.838210668 277.502783708 325.132715956 348.530603142 366.661701453 c 1
418.778320312 434.260742188 m 1
 543.877929688 544.493164062 l 2
 585.563476562 581.224609375 609.05859375 588.719726562 669.963867188 588.719726562 c 2
 734.54296875 588.719726562 l 1
 734.54296875 561.57421875 l 1
 681.247070312 551.439453125 626.48046875 538.677734375 567.557617188 504.583007812 c 2
 446.028320312 434.260742188 l 1
 418.778320312 434.260742188 l 1
442.688980153 366.661535289 m 2
 441.92178049 366.661536643 l 2
 375.465500834 366.44077767 312.465820312 302.414518371 312.465820312 197.083007812 c 0
 312.465820312 82.75 380.6875 28.451171875 439.270507812 28.451171875 c 0
 512.530273438 28.451171875 573.048828125 94.3359375 573.048828125 201.129882812 c 0
 573.048828125 300.248218207 525.31503979 366.436799323 442.688980153 366.661535289 c 2
EndSplineSet
Validated: 524289
EndChar

StartChar: r
Encoding: 114 114 43
Width: 483
Flags: W
HStem: -13.6221 47.4258<314.6 463.527> 366.661 36.1348<271.364 281.403 307.673 528.523>
VStem: 137.399 81.2617<127.904 266.151>
LayerCount: 2
Fore
SplineSet
117.376953125 366.661132812 m 6
 113.68761435 366.661132812 112.023872389 368.127920713 112.023872389 370.097562138 c 0
 112.023872389 378.165189261 199.833856663 448.703167319 218.62109375 462.922851562 c 1
 271.364257812 402.795898438 l 1
 442.192382812 402.796875 l 2
 478.26171875 402.796875 535.825195312 407.080078125 548.274414062 408.901367188 c 1
 529.493164062 357.94921875 l 1
 509.00390625 362.9921875 474.61328125 366.661132812 434.465820312 366.661132812 c 2
 396.407226562 366.661132812 l 2
 322.465820312 366.661132812 218.661132812 331.166015625 218.661132812 211.229492188 c 0
 218.661132812 104.466796875 304.528320312 33.8037109375 408.461914062 33.8037109375 c 0
 431.78125 33.8037109375 456.920898438 36.9775390625 499.291992188 44.9443359375 c 1
 499.291992188 21.4990234375 l 1
 422.59375 -9.4208984375 383.594726562 -13.6220703125 347.287109375 -13.6220703125 c 0
 229.17578125 -13.6220703125 137.399414062 59.9091796875 137.399414062 175.337890625 c 0
 137.399414062 280.44921875 210.388671875 336.013671875 236.596679688 349.317382812 c 0
 245.771367945 353.974746796 261.861508577 360.204454778 281.40327808 366.661132812 c 1
 117.376953125 366.661132812 l 6
EndSplineSet
Validated: 524289
EndChar

StartChar: s
Encoding: 115 115 44
Width: 191
Flags: W
HStem: 372.299 14.0332<142.895 166.476> 396.171 20G<249.888 268.751>
VStem: 190.517 87.868<316.235 395.763>
DStem2: 34.7123 -45.2822 114.029 -45.2822 0.34202 0.939693<60.7777 431.436>
LayerCount: 2
Fore
SplineSet
140.37109375 386.33203125 m 1
 175.909179688 396.215820312 234.55859375 409.8984375 265.217773438 416.170898438 c 1
 272.284034211 411.589224323 278.385413721 403.135181473 278.385413721 387.374065797 c 0
 278.385413721 375.648501907 275.008487277 359.878697297 266.139648438 338.650390625 c 2
 170.103515625 108.780273438 l 2
 135.014648438 24.7919921875 98.408203125 -18.9462890625 69.2314453125 -45.2822265625 c 1
 58.35546875 -42.7041015625 l 5
 58.3408253125 -41.690838735 58.3334035222 -40.6584748695 58.3334035222 -39.6075401194 c 0
 58.3334035222 -4.84440639543 66.4541324181 50.2385036245 89.939453125 106.453125 c 6
 171.952148438 302.7578125 l 2
 183.964882369 331.5115554 190.517458191 348.18110462 190.517458191 357.581381833 c 0
 190.517458191 364.744063186 186.71309479 367.686274127 178.62109375 368.538085938 c 2
 142.89453125 372.298828125 l 1
 140.37109375 386.33203125 l 1
EndSplineSet
Validated: 524289
EndChar

StartChar: t
Encoding: 116 116 45
Width: 480
Flags: W
HStem: -13.6191 42.0703<249.271 373.16> 149.532 106.453<269.399 354.704> 374.176 42.377<259.218 381.148>
VStem: 99.5195 81.2617<103.458 263.461> 258.824 106.454<160.106 245.411> 443.312 81.2617<137.002 307.586>
LayerCount: 2
Fore
SplineSet
365.278320312 202.7578125 m 0
 365.278320312 173.362304688 341.447265625 149.532226562 312.052734375 149.532226562 c 0
 282.655273438 149.532226562 258.825195312 173.362304688 258.82421875 202.758789062 c 0
 258.82421875 232.155273438 282.655273438 255.985351562 312.052734375 255.985351562 c 0
 341.447265625 255.985351562 365.278320312 232.155273438 365.278320312 202.7578125 c 0
312.530273438 374.17578125 m 0
 250.075195312 374.17578125 180.78125 303.68359375 180.78125 195.416992188 c 0
 180.78125 88.11328125 250.045898438 28.451171875 309.533203125 28.451171875 c 0
 382.79296875 28.451171875 443.311523438 102.12109375 443.311523438 208.915039062 c 0
 443.311523438 308.202148438 395.415039062 374.17578125 312.530273438 374.17578125 c 0
358.54296875 416.552734375 m 0
 451.46875 416.552734375 524.573242188 347.755859375 524.573242188 244.807617188 c 0
 524.573242188 101.814453125 425.7421875 -13.619140625 278.265625 -13.619140625 c 0
 177.671875 -13.619140625 99.51953125 55.1240234375 99.51953125 159.525390625 c 0
 99.51953125 336.744140625 250.129882812 416.552734375 358.54296875 416.552734375 c 0
EndSplineSet
Validated: 524289
EndChar

StartChar: u
Encoding: 117 117 46
Width: 190
Flags: W
HStem: 518.56 106.453<252.885 338.19>
VStem: 195.332 94.2131<339.936 406.632> 242.311 106.454<529.134 614.439>
DStem2: -16.1367 -228 65.0259 -228 0.34202 0.939693<45.8968 630.787>
LayerCount: 2
Fore
SplineSet
348.764648438 571.786132812 m 0xa0
 348.764648438 542.389648438 324.93359375 518.559570312 295.538085938 518.559570312 c 0
 266.141601562 518.559570312 242.310546875 542.389648438 242.310546875 571.786132812 c 0
 242.310546875 601.182617188 266.140625 625.012695312 295.538085938 625.012695312 c 0
 324.93359375 625.012695312 348.764648438 601.182617188 348.764648438 571.786132812 c 0xa0
266.256835938 416.551757812 m 0
 283.658082857 416.551757812 289.545182772 411.636392138 289.545182772 402.341609391 c 0
 289.545182772 396.037699489 286.837218593 387.719333449 283.176757812 377.553710938 c 2
 74.126953125 -202.995117188 l 1
 49.9658203125 -212.681640625 12.162109375 -222.967773438 -16.13671875 -228 c 1
 190.962890625 347.596679688 l 2
 193.754199239 355.354587325 195.332115093 361.626898999 195.332115093 366.532426727 c 0xc0
 195.332115093 376.156266702 189.259032942 380.51962896 174.360459306 380.51962896 c 0
 167.73101832 380.51962896 159.354133062 379.655684737 148.987304688 378.006835938 c 1
 148.987304688 396.266601562 l 1
 185.483398438 408.67578125 254.935546875 416.551757812 266.256835938 416.551757812 c 0
EndSplineSet
Validated: 524289
EndChar

StartChar: v
Encoding: 118 118 47
Width: 502
Flags: W
HStem: -233.298 74.7324<199.61 240.965> -13.6383 54.6007<115.183 284.303> 373.066 43.4873<322.451 455.976>
VStem: 177.654 21.4268<-120.763 -101.503> 263.943 94.1126<524.744 593.157> 490.133 81.2607<210.106 338.771>
DStem2: -21.6047 -233.298 59.6408 -233.298 0.34202 0.939693<321.695 648.323 681.246 836.357>
LayerCount: 2
Fore
SplineSet
323.850585938 -101.502929688 m 1
 293.454101562 -157.26171875 232.19921875 -233.297851562 206.893554688 -233.297851562 c 0
 192.326227954 -233.297851562 177.028515818 -178.060588219 177.028515818 -121.069017523 c 0
 177.028515818 -114.543224788 177.229088501 -107.994430827 177.654296875 -101.502929688 c 1
 199.081054688 -101.502929688 l 1
 201.25390625 -129.388671875 213.470703125 -158.565429688 230.166992188 -158.565429688 c 0
 248.138671875 -158.565429688 284.6640625 -123.453125 299.671875 -101.502929688 c 1
 323.850585938 -101.502929688 l 1
571.393554688 293.587890625 m 0
 571.393554688 164.627799889 412.600413465 -13.6383495335 120.863147111 -13.6383495335 c 0
 109.502201422 -13.6383495335 75.2580087234 -13.2206954538 60.259765625 -8.376953125 c 1
 259.489257812 534.090820312 l 2
 262.339269445 541.850859153 263.942758858 548.126981118 263.942758858 553.03522542 c 0
 263.942758858 562.638043197 257.804981505 567.004949544 242.85613814 567.004949544 c 0
 236.222331486 567.004949544 227.853367374 566.144977537 217.515625 564.500976562 c 1
 217.515625 582.760742188 l 1
 254.010742188 595.168945312 323.46484375 603.057617188 334.786132812 603.057617188 c 0
 352.147416162 603.057617188 358.055316779 598.14029728 358.055316779 588.879165292 c 0
 358.055316779 582.562301712 355.306739011 574.22453323 351.569335938 564.047851562 c 2
 284.119535644 380.394778235 l 1
 312.036253912 391.420810458 344.820664421 403.230583421 367.749023438 411.247070312 c 0
 384.27734375 414.95703125 415.025390625 416.553710938 442.532226562 416.553710938 c 0
 512.282226562 416.553710938 571.393554688 382.36328125 571.393554688 293.587890625 c 0
244.896192298 273.59701871 m 2
 160.163085938 42.884765625 l 1
 174.409503721 41.5841073693 188.166096237 40.96230311 201.438314046 40.96230311 c 0
 399.983618279 40.96230311 490.1328125 180.113175133 490.1328125 267.428710938 c 0
 490.1328125 328.751953125 458.870117188 373.06640625 384.395507812 373.06640625 c 0
 327.915445177 373.06640625 271.989419914 345.827030109 244.896192298 273.59701871 c 2
EndSplineSet
Validated: 524289
EndChar

StartChar: w
Encoding: 119 119 48
Width: 480
Flags: W
HStem: 374.176 42.377<259.217 381.148>
VStem: 99.5195 81.2617<102.262 263.461> 265.322 83.958<-123.88 -40.2268> 443.312 81.2607<135.537 307.586>
LayerCount: 2
Fore
SplineSet
198.913085938 -33.876953125 m 1
 198.913085938 -24.5859375 l 1
 231.38279509 -8.34798594939 l 1
 154.402505448 9.58836640903 99.51953125 72.0362799773 99.51953125 159.525390625 c 0
 99.51953125 336.744140625 250.129882812 416.552734375 358.54296875 416.552734375 c 0
 451.46875 416.552734375 524.572265625 347.755859375 524.572265625 244.807617188 c 0
 524.572265625 119.591748347 448.788299673 15.5088541816 330.917585504 -8.43552403215 c 1
 343.1494809 -18.3498951534 349.280273438 -34.6781399774 349.280273438 -61.232421875 c 0
 349.280273438 -99.1796875 322.864257812 -147.237304688 256.147460938 -189.041992188 c 0
 223.625 -209.420898438 174.830078125 -227.208984375 128.374023438 -242.223632812 c 1
 128.374023438 -221.578125 l 1
 210.956054688 -189.233398438 265.322265625 -134.178710938 265.322265625 -82.9091796875 c 0
 265.322265625 -42.6513671875 246.064453125 -33.876953125 198.913085938 -33.876953125 c 1
312.529296875 374.17578125 m 0
 250.075195312 374.17578125 180.78125 303.68359375 180.78125 195.416992188 c 0
 180.78125 88.11328125 250.045898438 28.451171875 309.533203125 28.451171875 c 0
 382.79296875 28.451171875 443.311523438 102.12109375 443.311523438 208.915039062 c 0
 443.311523438 308.202148438 395.415039062 374.17578125 312.529296875 374.17578125 c 0
EndSplineSet
Validated: 524289
EndChar

StartChar: x
Encoding: 120 120 49
Width: 368
Flags: W
HStem: -183.604 39.6162<42.6186 141.307> 366.659 36.1357<262.711 355.414> 518.94 106.453<303.534 388.84>
VStem: 292.96 106.454<529.515 614.819> 355.419 91.3592<313.061 391.888>
DStem2: 149.479 -227.998 230.939 -227.998 0.34202 0.939693<79.4469 617.898>
LayerCount: 2
Fore
SplineSet
-82.607421875 -207.97265625 m 1xe8
 -21.2146109992 -184.851080979 87.2850092142 -143.98828125 133.178710938 -143.98828125 c 0
 149.435117477 -143.98828125 163.716167595 -146.533628123 177.236240508 -151.736021502 c 1
 337.42578125 293.119140625 l 2
 349.59865076 326.924731564 355.419455756 345.196352599 355.419455756 355.06908065 c 0
 355.419455756 366.255765285 347.946171674 366.659179688 333.772460938 366.659179688 c 2
 126.971679688 366.659179688 l 2
 120.737304688 366.659179688 120.28515625 370.848632812 123.873046875 374.57421875 c 0
 143.735351562 395.200195312 193.240234375 438.092773438 218.080078125 456.893554688 c 1
 262.7109375 402.794921875 l 1
 420.565429688 402.55078125 l 2
 438.708449836 402.55078125 446.77865185 398.66917404 446.77865185 385.107602413 c 0
 446.77865185 373.295681472 440.656481285 354.140401206 429.735351562 323.810546875 c 2
 240.038085938 -202.998046875 l 1
 215.87787631 -212.684200195 178.076131089 -222.966011118 149.777657956 -227.998446578 c 1
 121.862304688 -194.71875 92.599609375 -183.604492188 61.0693359375 -183.604492188 c 0
 38 -183.604492188 -6.599609375 -196.807617188 -76.380859375 -221.28515625 c 1
 -82.607421875 -207.97265625 l 1xe8
399.4140625 572.166992188 m 0xf0
 399.4140625 542.770507812 375.583007812 518.940429688 346.1875 518.940429688 c 0
 316.790039062 518.940429688 292.959960938 542.770507812 292.959960938 572.166992188 c 0
 292.959960938 601.563476562 316.790039062 625.393554688 346.1875 625.393554688 c 0
 375.583007812 625.393554688 399.4140625 601.563476562 399.4140625 572.166992188 c 0xf0
EndSplineSet
Validated: 524289
EndChar

StartChar: y
Encoding: 121 121 50
Width: 629
Flags: W
HStem: -13.6201 21G<344.947 394.41> 373.385 43.166<330.492 422.047 545.403 645.867>
DStem2: -8.08984 -228 73.0732 -228 0.34202 0.939693<50.2085 628.018>
LayerCount: 2
Fore
SplineSet
490.518554688 367.370117188 m 1
 491.749519299 368.2162329 568.493159179 416.55078125 631.561523438 416.55078125 c 0
 665.396484375 416.55078125 728.286132812 389.333007812 753.017578125 318.901367188 c 1
 732.494140625 302.6875 706.259765625 284.051757812 684.091796875 269.497070312 c 1
 667.782226562 269.497070312 l 1
 659.234375 341.911132812 610.162109375 372.559570312 575.215820312 372.559570312 c 0
 548.87109375 372.559570312 520.21875 352.772460938 498.712890625 323.740234375 c 1
 498.712890625 323.740234375 501.938476562 295.783203125 501.938476562 255.459960938 c 0
 501.938476562 117.286132812 430.969726562 -13.6201171875 357.850585938 -13.6201171875 c 0
 332.043945312 -13.6201171875 315.915039062 10.8330078125 315.915039062 54.919921875 c 0
 315.915039062 123.737304688 360.000976562 227.501953125 416.454101562 304.922851562 c 1
 408.926757812 356.536132812 378.9765625 373.384765625 359.083984375 373.384765625 c 0
 322.300215057 373.384765625 267.772159203 331.718904537 237.684666142 245.577828859 c 2
 82.173828125 -202.99609375 l 1
 58.0126953125 -212.682617188 20.208984375 -222.96875 -8.08984375 -228 c 1
 191.45703125 347.595703125 l 2
 194.124335176 355.289984508 195.638577985 361.518659579 195.638577985 366.402500501 c 0
 195.638577985 376.142730215 189.615605216 380.533818157 174.704500218 380.533818157 c 0
 168.065354864 380.533818157 159.664171778 379.663302008 149.248046875 378.006835938 c 1
 149.248046875 396.265625 l 1
 185.744140625 408.674804688 255.196289062 416.55078125 266.517578125 416.55078125 c 0
 283.884849623 416.55078125 289.676513437 411.692238112 289.676513437 402.4408005 c 0
 289.676513437 395.941698378 286.896106264 387.529148872 283.035002018 376.391721412 c 1
 291.842295586 380.40949101 372.566864743 416.55078125 426.729492188 416.55078125 c 0
 445.73828125 416.55078125 479.451171875 407.834960938 490.518554688 367.370117188 c 1
EndSplineSet
Validated: 524289
EndChar

StartChar: z
Encoding: 122 122 51
Width: 367
Flags: W
HStem: -183.605 39.6162<42.6125 141.307> 366.659 36.1348<280.96 355.414>
VStem: 355.42 91.3589<313.061 391.888>
DStem2: 149.479 -227.998 230.939 -227.998 0.34202 0.939693<79.4455 617.897>
LayerCount: 2
Fore
SplineSet
-82.607421875 -207.97265625 m 1
 -21.2478517785 -184.863600021 87.2824162284 -143.989257812 133.178710938 -143.989257812 c 0
 149.435040967 -143.989257812 163.716033168 -146.534407951 177.236049612 -151.73655163 c 1
 337.42578125 293.119140625 l 2
 349.598783971 326.924643688 355.419797784 345.19626612 355.419797784 355.069017226 c 0
 355.419797784 366.255497526 347.946553527 366.659179688 333.772460938 366.659179688 c 2
 126.971679688 366.659179688 l 2
 120.737304688 366.659179688 120.28515625 370.848632812 123.873046875 374.57421875 c 0
 143.735351562 395.19921875 203.375 444.12109375 228.21484375 462.921875 c 1
 280.959960938 402.793945312 l 1
 420.565429688 402.55078125 l 2
 438.708449836 402.55078125 446.77865185 398.668895069 446.77865185 385.107063707 c 0
 446.77865185 373.294916542 440.656481285 354.139424644 429.735351562 323.809570312 c 2
 240.038085938 -202.999023438 l 1
 215.878799427 -212.68383018 178.079019741 -222.965225421 149.780901697 -227.997869714 c 1
 121.862304688 -194.719726562 92.599609375 -183.60546875 61.0693359375 -183.60546875 c 0
 38 -183.60546875 -6.599609375 -196.80859375 -76.380859375 -221.28515625 c 1
 -82.607421875 -207.97265625 l 1
EndSplineSet
Validated: 524289
EndChar

StartChar: zero
Encoding: 48 48 52
Width: 473
VWidth: 800
Flags: W
HStem: -13.1807 30.4502<187.485 291.049> 384.77 30.4512<310.986 415.149>
VStem: 84.7232 75.1227<37.8586 205.436> 442.759 75.1465<196.373 364.367>
LayerCount: 2
Fore
SplineSet
235.069335938 17.26953125 m 0
 353.839662036 17.26953125 442.758652202 197.838154665 442.758652202 297.644293654 c 0
 442.758652202 350.738531464 418.397718368 384.76953125 367.40234375 384.76953125 c 0
 247.779947265 384.76953125 159.845886112 203.606059454 159.845886112 104.828793192 c 0
 159.845886112 51.4860622135 184.328213979 17.26953125 235.069335938 17.26953125 c 0
84.7231932834 112.9052512 m 0
 84.7231932834 229.948376086 195.189137939 415.220703125 378.364257812 415.220703125 c 0
 472.487268989 415.220703125 517.905133117 364.722114609 517.905133117 289.756896327 c 0
 517.905133117 170.560649041 405.24435614 -13.1806640625 224.100585938 -13.1806640625 c 0
 130.510299415 -13.1806640625 84.7231932834 37.5972701052 84.7231932834 112.9052512 c 0
EndSplineSet
Validated: 524289
EndChar

StartChar: one
Encoding: 49 49 53
Width: 270
VWidth: 800
Flags: W
HStem: 0 24.2129<32.5684 106.832> 378.34 24.2129<168.801 225.977 309.392 383.654>
LayerCount: 2
Fore
SplineSet
305.143554688 357.90234375 m 0
 190.240376946 38.8062943186 190.240376946 38.8062943186 190.240376946 35.0637166816 c 0
 190.240376946 26.232147833 198.642956156 24.212890625 217.1640625 24.212890625 c 2
 256.139648438 24.212890625 l 1
 247.421875 0 l 1
 247.421875 0 176.267578125 0 176.267578125 0.001953125 c 1
 176.267578125 0.001953125 95.0059245075 0.001953125 95.0048828125 0 c 2
 23.8505859375 0 l 1
 32.568359375 24.212890625 l 1
 71.544921875 24.212890625 l 2
 95.46875 24.212890625 104.936523438 27.58203125 111.080078125 44.650390625 c 0
 225.982848094 363.719272455 225.982848094 363.719272455 225.982848094 367.488659275 c 0
 225.982848094 376.32053191 217.580706679 378.33984375 199.05859375 378.33984375 c 2
 160.083007812 378.33984375 l 1
 168.80078125 402.552734375 l 1
 392.372070312 402.552734375 l 1
 383.654296875 378.33984375 l 1
 344.678710938 378.33984375 l 2
 320.75390625 378.33984375 311.286132812 374.970703125 305.143554688 357.90234375 c 0
EndSplineSet
Validated: 524289
EndChar

StartChar: two
Encoding: 50 50 54
Width: 335
VWidth: 800
Flags: W
HStem: 0 64.8359<114.251 314.871> 362.742 51.4893<225.056 343.484>
VStem: 323.436 87.265<276.185 351.913>
LayerCount: 2
Fore
SplineSet
315.494140625 414.231445312 m 0
 371.473202642 414.231445312 410.701086248 384.902607994 410.701086248 339.091711699 c 0
 410.701086248 266.506922937 338.622813647 222.581185767 268.9165682 180.101002683 c 0
 177.614819439 124.460149004 140.79426861 99.7038245874 114.250976562 64.8359375 c 1
 300.463867188 64.8359375 l 2
 319.3046875 64.8359375 325.05078125 70.197265625 338.9765625 88.4033203125 c 1
 356.2578125 88.4033203125 l 1
 314.213867188 20.0908203125 l 2
 308.733398438 11.189453125 306.607421875 7.48828125 303.318359375 0 c 1
 17.5908203125 0 l 1
 23.51953125 16.466796875 l 1
 105.364382676 141.011084966 279.546637573 177.356829524 318.827148438 286.454101562 c 0
 321.949997745 295.124859101 323.436104036 303.41269913 323.436104036 311.117056647 c 0
 323.436104036 341.452660569 300.396112886 362.7421875 263.51171875 362.7421875 c 0
 225.734375 362.7421875 182.336914062 341.995117188 160.59765625 312.409179688 c 1
 136.284179688 312.409179688 l 1
 173.516601562 373.393554688 243.280273438 414.231445312 315.494140625 414.231445312 c 0
EndSplineSet
Validated: 524289
EndChar

StartChar: three
Encoding: 51 51 55
Width: 325
VWidth: 800
Flags: W
HStem: -243.559 19.3584<-76.8661 -51.3041> 160.74 17.458<136.077 160.873> 364.401 48.8867<211.685 327.487>
VStem: 220.326 94.7501<12.2697 127.212> 293.128 91.2304<281.059 355.842>
LayerCount: 2
Fore
SplineSet
-78.533203125 -224.200195312 m 1xf0
 141.850119054 -161.256311934 220.325894276 -22.223119671 220.325894276 64.3084095752 c 0xf0
 220.325894276 119.732759725 185.359158295 152.413352079 129.787109375 160.740234375 c 1
 136.077148438 178.198242188 l 1
 149.904203995 181.665744652 293.128092842 219.891378113 293.128092842 315.547865377 c 0
 293.128092842 348.829397011 268.048422537 364.401367188 235.4296875 364.401367188 c 0
 210.173828125 364.401367188 175.362304688 347.556640625 152.798828125 330.518554688 c 1
 139.079101562 343.557617188 l 1
 184.227539062 383.298828125 241.955078125 413.288085938 302.1484375 413.288085938 c 0
 352.826553529 413.288085938 384.358464785 385.754296555 384.358464785 344.538150558 c 0xe8
 384.358464785 325.593507219 375.858246754 249.555786335 251.8359375 190.08203125 c 1
 290.296941261 177.552471411 315.076034597 148.028111844 315.076034597 100.678071665 c 0
 315.076034597 -10.4308147306 191.133313275 -191.440780953 -75.921875 -243.55859375 c 1
 -78.533203125 -224.200195312 l 1xf0
EndSplineSet
Validated: 524289
EndChar

StartChar: four
Encoding: 52 52 56
Width: 478
VWidth: 800
Flags: W
HStem: 8.30469 21G<-3.97949 14.3716> 19.0107 53.5439<110.227 267.687 368.23 472.933> 394.938 20G<445.461 491.519>
DStem2: -3.97949 16.6191 110.227 72.5547 0.765043 0.64398<123.394 453.998> 175.065 -237.68 256.215 -237.68 0.34202 0.939693<78.455 272.888 357.591 555.657>
LayerCount: 2
Fore
SplineSet
469.220703125 414.938476562 m 1xa0
 491.518554688 414.938476562 l 1
 368.229966959 72.5546875 l 1
 441.345703125 72.5546875 l 2
 462.724609375 72.5546875 490.098632812 73.564453125 509.366210938 75.2724609375 c 1
 514.103515625 68.1328125 l 1
 469.05078125 16.2431640625 l 1
 454.705078125 18.4599609375 438.586914062 19.0107421875 412.198242188 19.0107421875 c 2
 348.949388819 19.0107421875 l 1
 284.625 -159.624023438 l 2
 280.878999058 -170.02618291 280.878999058 -170.02618291 278.268554688 -192.849609375 c 1
 183.1171875 -237.6796875 l 1
 175.892578125 -231.668945312 l 1
 182.028320312 -218.26171875 187.236328125 -204.40625 192.739257812 -189.12109375 c 2
 267.686762132 19.0107421875 l 1
 53.505859375 19.0107421875 l 2x60
 27.2275390625 19.0107421875 23.865234375 17.7939453125 4.8779296875 8.3046875 c 1
 -3.9794921875 16.619140625 l 1
 469.220703125 414.938476562 l 1xa0
286.9677388 72.5546875 m 1
 363.489257812 285.057617188 l 1
 110.2265625 72.5546875 l 1
 286.9677388 72.5546875 l 1
EndSplineSet
Validated: 524289
EndChar

StartChar: five
Encoding: 53 53 57
Width: 350
VWidth: 800
Flags: W
HStem: -243.558 19.4766<-55.6739 -35.7559> 337.717 64.835<249.335 415.522>
VStem: 239.738 99.3312<20.0871 131.614>
DStem2: 105.319 183.847 182.197 248.762 0.549965 0.835188<96.4964 202.519>
LayerCount: 2
Fore
SplineSet
-57.5068359375 -224.081054688 m 1
 180.021434124 -151.588671993 239.737640739 -2.0241423287 239.737640739 66.3073098277 c 0
 239.737640739 122.60147115 204.64778831 172.777751411 105.319335938 183.846679688 c 1
 249.334960938 402.551757812 l 1
 399.537109375 402.551757812 l 2
 423.623046875 402.551757812 431.391601562 405.993164062 442.301757812 419.068359375 c 1
 459.435546875 419.068359375 l 1
 415.5234375 359.034179688 l 2
 410.609375 352.321289062 407.151367188 347.083984375 401.163085938 337.716796875 c 1
 239.888671875 337.716796875 l 1
 182.197265625 248.76171875 l 1
 292.401396969 237.776558809 339.068816396 183.257899306 339.068816396 111.783779571 c 0
 339.068816396 -21.8544814572 187.273900981 -197.698277702 -54.6455078125 -243.557617188 c 1
 -57.5068359375 -224.081054688 l 1
EndSplineSet
Validated: 524289
EndChar

StartChar: six
Encoding: 54 54 58
Width: 450
VWidth: 800
Flags: W
HStem: -9.27441 34.6543<209.368 309.329> 281.749 50.6748<317.677 393.43> 577.838 20.2012<566.569 595.182>
VStem: 99.7902 84.7078<44.0129 220.83> 409.356 87.6944<154.592 266.937>
LayerCount: 2
Fore
SplineSet
253.778320312 25.3798828125 m 0
 326.810814567 25.3798828125 409.356385669 123.035718622 409.356385669 211.69359546 c 0
 409.356385669 250.80254929 390.697837721 281.749023438 339.874023438 281.749023438 c 0
 302.768357393 281.749023438 252.058024716 258.639149143 204.429732172 222.914233044 c 1
 190.669365328 179.010556467 184.498024595 142.92937286 184.498024595 114.175583225 c 0
 184.498024595 53.4217433755 212.048989104 25.3798829847 253.778320312 25.3798828125 c 0
497.050747106 236.678414606 m 0
 497.050747106 123.537531152 360.646165745 -9.2744140625 231.237304688 -9.2744140625 c 0
 155.377571228 -9.2744140625 99.7902184635 36.3778656547 99.7902184635 125.453763798 c 0
 99.7902184635 239.234273351 205.643765768 525.122051504 598.396484375 598.0390625 c 1
 595.181640625 577.837890625 l 1
 387.588395134 526.582804991 268.293135807 392.49082202 217.704181775 261.235623806 c 1
 268.640264834 300.23727746 384.434111364 333.422156295 391.180244434 333.422156295 c 1
 391.180244434 333.422156295 391.448763736 333.098180235 389.818359375 332.423828125 c 1
 467.627856418 332.423828125 497.050747106 288.394105547 497.050747106 236.678414606 c 0
EndSplineSet
Validated: 524289
EndChar

StartChar: seven
Encoding: 55 55 59
Width: 398
VWidth: 800
Flags: W
HStem: 337.719 64.834<185.247 452.571>
DStem2: 302.752 158.398 345.781 164.923 0.64067 0.767816<-156.783 233.67>
LayerCount: 2
Fore
SplineSet
197.314453125 402.552734375 m 1
 536.725585938 402.552734375 l 1
 531.15625 387.086914062 l 1
 345.78125 164.922851562 l 2
 234.356445312 30.7802734375 125.903320312 -128.881835938 82.8662109375 -211.797851562 c 1
 20.4658203125 -211.797851562 l 1
 67.1962890625 -129.95703125 171.073242188 0.796875 302.751953125 158.3984375 c 2
 452.571289062 337.71875 l 1
 222.092773438 337.71875 l 2
 196.27734375 337.71875 182.248046875 335.438476562 167.7109375 319.326171875 c 2
 155.138671875 305.388671875 l 1
 138.799804688 305.388671875 l 1
 180.01953125 372.915039062 l 2
 186.961261919 383.832556789 193.168255215 393.594525751 197.314453125 402.552734375 c 1
EndSplineSet
Validated: 524289
EndChar

StartChar: eight
Encoding: 56 56 60
Width: 433
VWidth: 800
Flags: W
HStem: -8.13379 34.9082<185.04 298.745> 565.404 30.8848<357.949 457.892>
VStem: 79.085 76.6906<50.6559 177.829> 208.823 75.7706<405.975 482.674> 392.831 80.0836<143.343 236.759> 479.002 72.5728<443.492 551.348>
DStem2: 371.432 350.245 269.323 319.543 0.788739 -0.614728<-125.345 -46.059 -32.3689 7.31439 27.208 110.131>
LayerCount: 2
Fore
SplineSet
208.82281468 420.145051889 m 0
 208.82281468 501.919603881 325.042508056 596.2890625 438.204101562 596.2890625 c 0
 509.662581072 596.2890625 551.574787965 558.473871618 551.574787965 508.600312398 c 0
 551.574787965 457.52265626 507.659532796 391.0224359 392.679468019 333.247284639 c 1
 411.6171875 318.09765625 l 2
 445.963084892 290.621372481 472.914209054 263.572916526 472.914209054 219.024607169 c 0
 472.914209054 113.631754877 344.25954108 -8.1337890625 215.869140625 -8.1337890625 c 0
 131.143516248 -8.1337890625 79.0850005856 35.7661164911 79.0850005856 101.056575778 c 0
 79.0850005856 112.344585879 83.0630950358 254.258054335 281.631096181 309.950461612 c 1
 269.323242188 319.54296875 l 2
 232.349985369 348.356615513 208.82281468 382.501841306 208.82281468 420.145051889 c 0
232.752929688 26.7744140625 m 0
 313.185043341 26.7744140625 392.830559944 104.715430471 392.830559944 182.343008635 c 0
 392.830559944 211.691287854 378.557512111 234.407412882 349.526367188 257.034179688 c 2
 301.189655542 294.706892718 l 1
 232.800251131 266.996901314 186.528998966 222.245637216 165.048828125 162.5859375 c 0
 158.752641567 145.101917209 155.775587315 128.121259134 155.775587315 112.425538949 c 0
 155.775587315 63.3084723431 184.928979644 26.7744140625 232.752929688 26.7744140625 c 0
416.200195312 565.404296875 m 0
 349.744911139 565.404296875 284.593415874 510.521727592 284.593415874 454.797123492 c 0
 284.593415874 425.744408445 304.824113919 403.52799043 337.262695312 377.579101562 c 2
 371.431607979 350.244958724 l 1
 405.794092692 371.694204697 479.001968073 417.390950417 479.001968073 497.852728257 c 0
 479.001968073 537.305296209 455.998076945 565.404296875 416.200195312 565.404296875 c 0
EndSplineSet
Validated: 524289
EndChar

StartChar: nine
Encoding: 57 57 61
Width: 450
VWidth: 800
Flags: W
HStem: -235.39 20.2021<-33.1279 -5.11319> 68.8605 55.3847<212.076 274.159> 376.199 34.6543<278.773 379.749>
VStem: 99.683 90.1743<147.338 256.99> 407.398 84.4971<188.53 353.544>
LayerCount: 2
Fore
SplineSet
99.6829901979 175.204355985 m 0
 99.6829901979 283.734659748 224.443915311 410.853515625 357.743164062 410.853515625 c 0
 434.217548953 410.853515625 491.894854787 362.590759856 491.894854787 271.1423843 c 0
 491.894854787 106.804244757 303.894665932 -172.222429135 -36.3427734375 -235.389648438 c 1
 -33.1279296875 -215.1875 l 1
 168.184404695 -165.484104894 325.712651677 -9.57586858459 379.334051508 143.847972511 c 1
 337.715886351 106.783326219 215.565143385 68.8604525114 208.564335002 68.8604525114 c 1
 208.564335002 68.8604525114 208.350971302 69.2685158327 210.321289062 70.1279296875 c 1
 131.005083311 70.1279296875 99.6829901979 120.076432761 99.6829901979 175.204355985 c 0
335.202148438 376.19921875 m 0
 255.817691289 376.19921875 189.857334815 282.629708245 189.857334815 210.550370732 c 0
 189.857334815 164.442421074 214.300935329 124.245117188 264.9453125 124.245117188 c 0
 313.646016905 124.245117188 352.096369151 149.121911991 393.23911357 188.40572416 c 1
 403.008816512 224.40852901 407.397735972 254.868308209 407.397735972 280.095286694 c 0
 407.397735972 346.009120561 377.435081658 376.199218711 335.202148438 376.19921875 c 0
EndSplineSet
Validated: 524289
EndChar

StartChar: period
Encoding: 46 46 62
Width: 178
VWidth: 800
Flags: W
HStem: -19.1787 119.506<72.4382 135.96>
VStem: 40.6902 127.021<12.1367 69.0103>
LayerCount: 2
Fore
SplineSet
167.710930432 60.8285176032 m 0
 167.710930432 21.9399421765 123.951727208 -19.1787109375 82.681640625 -19.1787109375 c 0
 57.0505326909 -19.1768592464 40.6901529692 -2.90848600376 40.6901529692 20.31896318 c 0
 40.6901529692 59.2067910352 84.4452456299 100.325658108 125.716256773 100.327148594 c 0
 151.346284095 100.327148594 167.710930432 84.060760506 167.710930432 60.8285176032 c 0
EndSplineSet
Validated: 524289
EndChar

StartChar: comma
Encoding: 44 44 63
Width: 173
VWidth: 800
Flags: HW
HStem: -134.723 235.051
VStem: 42.8039 127.4<5.54945 77.4016>
LayerCount: 2
Fore
SplineSet
42.8038908746 32.9569205249 m 0
 42.8038908746 68.0681947242 81.9467091674 100.328125 117.766601562 100.328125 c 0
 153.008975025 100.328125 170.204051332 84.0252984904 170.204051332 55.0243657321 c 0
 170.204051332 4.39986814458 124.848458643 -80.9210413553 -0.8310546875 -134.72265625 c 1
 -13.30859375 -109.325195312 l 1
 61.3823765253 -72.9065141835 93.0675949092 -33.5262065775 93.0675949092 -14.2793869972 c 0
 93.0675949092 -8.03453366009 89.7319236672 -3.90923955066 83.447265625 -2.6923828125 c 0
 55.6310348692 2.68353317205 42.8038908746 14.7793358083 42.8038908746 32.9569205249 c 0
EndSplineSet
Validated: 524289
EndChar

StartChar: colon
Encoding: 58 58 64
Width: 179
VWidth: 800
Flags: W
HStem: -19.1787 119.506<72.4384 135.959> 263.668 119.506<174.286 237.81>
VStem: 40.6902 127.021<12.1367 69.0109> 142.537 127.021<294.983 351.858>
LayerCount: 2
Fore
SplineSet
167.711214218 60.82947432 m 0xe0
 167.711214218 21.9394709256 123.952362437 -19.1787109375 82.6826171875 -19.1787109375 c 0
 57.049199815 -19.1768592134 40.6901529692 -2.90590315226 40.6901529692 20.3194478652 c 0
 40.6901529692 59.2078248779 84.4480989483 100.325658211 125.716256773 100.327148594 c 0
 151.345468042 100.327148594 167.711214218 84.0611724124 167.711214218 60.82947432 c 0xe0
269.557893906 343.676154007 m 0xd0
 269.557893906 304.786150613 225.799042124 263.66796875 184.529296875 263.66796875 c 0
 158.899846863 263.669820188 142.536832657 279.935802828 142.536832657 303.165642868 c 0
 142.536832657 342.055402307 186.295959165 383.173828125 227.565429688 383.173828125 c 0
 253.200447483 383.171976285 269.557893906 366.901138714 269.557893906 343.676154007 c 0xd0
EndSplineSet
Validated: 524289
EndChar

StartChar: semicolon
Encoding: 59 59 65
Width: 178
VWidth: 800
Flags: HW
HStem: 263.668 119.506<174.278 237.802>
VStem: 44.9152 127.393<5.55083 77.4035> 142.53 127.013<294.987 351.859>
LayerCount: 2
Fore
SplineSet
269.543245468 343.676154007 m 0xa0
 269.543245468 304.791350887 225.793058796 263.672684423 184.521484375 263.66796875 c 0
 158.890376441 263.669820441 142.529996719 279.938193684 142.529996719 303.165642868 c 0
 142.529996719 342.056125381 186.288950736 383.173828125 227.55859375 383.173828125 c 0
 253.191340507 383.168271492 269.543245468 366.897309713 269.543245468 343.676154007 c 0xa0
44.9152189996 32.957883487 m 0xc0
 44.9152189996 68.0697923768 84.0605409371 100.329101562 119.877929688 100.329101562 c 0
 155.114680114 100.329101562 172.308364391 84.0269942847 172.308364391 55.0272614484 c 0
 172.308364391 4.40042386107 126.951845828 -80.9207637592 1.2724609375 -134.721679688 c 1
 -11.2041015625 -109.32421875 l 1
 63.4974437317 -72.9042604529 95.1724949722 -33.5216249413 95.1724949722 -14.2762311749 c 0
 95.1724949722 -8.03255665337 91.8386589527 -3.90835026953 85.55859375 -2.6923828125 c 0
 57.7423629942 2.68427478 44.9152189996 14.7802558422 44.9152189996 32.957883487 c 0xc0
EndSplineSet
Validated: 524289
EndChar

StartChar: exclam
Encoding: 33 33 66
Width: 236
VWidth: 800
Flags: W
HStem: -19.1787 119.506<101.019 164.54>
VStem: 69.2784 127.014<12.1363 69.0059> 263.04 115.822<517.288 589.624>
LayerCount: 2
Fore
SplineSet
339.380859375 614.37890625 m 0
 363.704397607 614.37890625 378.861947254 598.894760837 378.861947254 577.247515219 c 0
 378.861947254 561.126688989 365.493031189 533.558875297 348.385742188 498.282226562 c 2
 190.024414062 171.9296875 l 1
 170.2421875 171.9296875 l 1
 246.833007812 498.400390625 l 2
 252.123046875 520.951171875 257.404296875 542.587890625 263.040039062 558.239257812 c 0
 274.208007812 589.237304688 308.39453125 614.37890625 339.380859375 614.37890625 c 0
196.29198512 60.8285176032 m 0
 196.29198512 21.9388222005 152.53273887 -19.1787109375 111.262695312 -19.1787109375 c 0
 85.6289175158 -19.1750063667 69.2783911523 -2.89861996817 69.2783911523 20.3204064017 c 0
 69.2783911523 59.2016048207 113.024833862 100.317716799 154.29296875 100.327148438 c 0
 179.933867455 100.327148438 196.29198512 84.0557292981 196.29198512 60.8285176032 c 0
EndSplineSet
Validated: 524289
EndChar

StartChar: question
Encoding: 63 63 67
Width: 280
VWidth: 800
Flags: W
HStem: -19.1797 119.506<65.0224 128.546>
VStem: 33.2725 127.023<12.1364 69.0087> 363.618 30.4669<409.25 474.019>
LayerCount: 2
Fore
SplineSet
245.060546875 635.725585938 m 1
 286.732654968 626.20276623 394.084381233 563.003720788 394.084381233 440.880077281 c 0
 394.084381233 275.590334421 213.162473092 294.359751242 179.115234375 226.018554688 c 2
 146.90625 161.412109375 l 1
 126.447265625 161.412109375 l 1
 134.796875 197.890625 l 2
 152.892578125 276.991210938 154.547851562 294.470703125 154.850585938 308.436523438 c 1
 215.470703125 334.288085938 287.088867188 369.024414062 330.719726562 393.05859375 c 0
 343.398959394 400.04193011 363.617527321 415.298517816 363.617527321 441.582788154 c 0
 363.617527321 480.430973796 301.757327454 512.07028994 226.291015625 539.736328125 c 1
 224.135971613 546.002886074 223.171373729 553.226135741 223.171373729 560.960358737 c 0
 223.171373729 585.48061324 232.866709909 615.136746937 245.060546875 635.725585938 c 1
160.295198593 60.8284977575 m 0
 160.295198593 21.9400882595 116.53823896 -19.1796875 75.265625 -19.1796875 c 0
 49.6353494228 -19.1778360028 33.2724680055 -2.91121294418 33.2724680055 20.3194280172 c 0
 33.2724680055 59.2035540147 77.0248597554 100.324681531 118.299265829 100.326172032 c 0
 143.941231438 100.326172032 160.295198593 84.050164932 160.295198593 60.8284977575 c 0
EndSplineSet
Validated: 524289
EndChar

StartChar: quotesingle
Encoding: 39 39 68
Width: 149
VWidth: 800
Flags: W
HStem: 458.438 198.905
VStem: 260.179 89.1114<592.127 654.482>
LayerCount: 2
Fore
SplineSet
303.609525258 657.342606212 m 0
 330.143591145 657.342606212 349.290091923 649.242426408 349.290091923 633.314142489 c 0
 349.290091923 628.538832985 347.569196471 623.059930228 343.810546875 616.884765625 c 2
 247.377929688 458.4375 l 1
 227.397460938 458.4375 l 1
 250.13671875 567.624023438 258.795898438 618.4921875 260.178710938 644.275390625 c 0
 260.855925935 656.385021843 293.349789744 657.342606212 303.609525258 657.342606212 c 0
EndSplineSet
Validated: 524289
EndChar

StartChar: quotedbl
Encoding: 34 34 69
Width: 269
VWidth: 800
Flags: W
HStem: 458.438 198.905
VStem: 260.164 89.111<592.127 654.482> 378.445 89.1114<592.127 654.482>
LayerCount: 2
Fore
SplineSet
421.87612682 657.342606212 m 0
 448.410192707 657.342606212 467.556693485 649.242426408 467.556693485 633.314142489 c 0
 467.556693485 628.538832985 465.835798033 623.059930228 462.077148438 616.884765625 c 2
 365.64453125 458.4375 l 1
 345.65625 458.4375 l 1
 368.403320312 567.624023438 377.069335938 618.493164062 378.4453125 644.275390625 c 0
 379.12231444 656.38442059 411.615121426 657.342606212 421.87612682 657.342606212 c 0
303.601622509 657.342606212 m 0
 330.129999767 657.342606212 349.275079806 649.242731024 349.275079806 633.315040987 c 0
 349.275079806 628.539520244 347.554031473 623.060317528 343.794921875 616.884765625 c 2
 247.36328125 458.4375 l 1
 227.381835938 458.4375 l 1
 250.12890625 567.624023438 258.788085938 618.493164062 260.1640625 644.275390625 c 0
 260.840922852 656.381888099 293.318314681 657.342606212 303.601622509 657.342606212 c 0
EndSplineSet
Validated: 524289
EndChar

StartChar: quoteleft
Encoding: 256 8216 70
Width: 173
VWidth: 800
Flags: W
HStem: 438.241 235.055
VStem: 196.768 77.1353<463.968 562.472>
LayerCount: 2
Fore
SplineSet
324.159656097 505.597663893 m 0
 324.159656097 470.491988411 285.019284952 438.241210938 249.206054688 438.241210938 c 0
 213.963388421 438.241210938 196.767828478 454.543326912 196.767828478 483.545183729 c 0
 196.767828478 534.176927491 242.127305573 619.491980659 367.805664062 673.295898438 c 1
 380.282226562 647.900390625 l 1
 305.587095232 611.476299057 273.903174564 572.09485203 273.903174564 552.849529581 c 0
 273.903174564 546.60497179 277.238912406 542.480379941 283.5234375 541.264648438 c 0
 311.322635609 535.888776825 324.159656097 523.784912111 324.159656097 505.597663893 c 0
EndSplineSet
Validated: 524289
EndChar

StartChar: quoteright
Encoding: 257 8217 71
Width: 173
VWidth: 800
Flags: W
HStem: 438.243 235.05
VStem: 299.397 77.1332<549.068 647.567>
LayerCount: 2
Fore
SplineSet
249.146278719 605.937425353 m 0
 249.146278719 641.037633767 288.28205472 673.29296875 324.099609375 673.29296875 c 0
 359.336320285 673.29296875 376.529787281 656.990257503 376.529787281 627.989517041 c 0
 376.529787281 577.359694191 331.172659399 492.040273112 205.494140625 438.243164062 c 1
 193.017578125 463.639648438 l 1
 267.721082373 500.061670067 299.396551609 539.445353879 299.396551609 558.690025431 c 0
 299.396551609 564.933251444 296.062900353 569.056968413 289.783203125 570.272460938 c 0
 261.984206598 575.649920665 249.146278719 587.751126951 249.146278719 605.937425353 c 0
EndSplineSet
Validated: 524289
EndChar

StartChar: quotedblleft
Encoding: 258 8220 72
Width: 315
VWidth: 800
Flags: W
HStem: 438.241 235.055<367.801 371.24>
VStem: 196.765 77.1305<463.966 562.468> 339.353 77.131<463.967 562.468>
LayerCount: 2
Fore
SplineSet
324.150617183 505.612599036 m 0
 324.150617183 470.498667601 285.016282816 438.241210938 249.1953125 438.241210938 c 0
 213.958562073 438.241210938 196.764877797 454.542336841 196.764877797 483.542541683 c 0
 196.764877797 534.186688032 242.128402473 619.496472402 367.80078125 673.295898438 c 1
 380.27734375 647.900390625 l 1
 305.56770262 611.47421199 273.895376952 572.089665435 273.895376952 552.845772661 c 0
 273.895376952 546.602955997 277.228530031 542.479714727 283.506835938 541.264648438 c 0
 311.32289681 535.890248492 324.150617183 523.791538576 324.150617183 505.612599036 c 0
466.739077875 505.612265958 m 0
 466.739077875 470.496298539 427.602303674 438.241210938 391.783203125 438.241210938 c 0
 356.546912279 438.241210938 339.352944462 454.542552104 339.352944462 483.543116122 c 0
 339.352944462 534.186888085 384.716340826 619.496492834 510.388671875 673.295898438 c 1
 522.866210938 647.900390625 l 1
 448.157063622 611.474452759 416.483933647 572.089564118 416.483933647 552.845653606 c 0
 416.483933647 546.602836231 419.817165985 542.479624959 426.095703125 541.264648438 c 0
 453.911933881 535.890215669 466.739077875 523.791390793 466.739077875 505.612265958 c 0
EndSplineSet
Validated: 524289
EndChar

StartChar: quotedblright
Encoding: 259 8221 73
Width: 316
VWidth: 800
Flags: W
HStem: 438.245 235.055<344.637 348.076>
VStem: 299.389 77.1348<549.072 647.574> 441.977 77.1352<549.072 647.574>
LayerCount: 2
Fore
SplineSet
391.725670667 605.928110809 m 0
 391.725670667 641.044106008 430.862766414 673.299804688 466.681640625 673.299804688 c 0
 501.917931471 673.299804688 519.111899288 656.997972828 519.111899288 627.997470909 c 0
 519.111899288 577.354435521 473.748693773 492.044604492 348.076171875 438.245117188 c 1
 335.599609375 463.639648438 l 1
 410.306486413 500.064479384 441.976679182 539.449467762 441.976679182 558.693960532 c 0
 441.976679182 564.938178392 438.642462165 569.062018153 432.362304688 570.276367188 c 0
 404.551590971 575.650736999 391.725670667 587.749341377 391.725670667 605.928110809 c 0
249.137780042 605.928110809 m 0
 249.137780042 641.043637522 288.274474743 673.299804688 324.092773438 673.299804688 c 0
 359.329880285 673.299804688 376.523555968 656.997858313 376.523555968 627.997165331 c 0
 376.523555968 577.353045979 331.16005333 492.044927408 205.48828125 438.245117188 c 1
 193.010742188 463.639648438 l 1
 267.718660018 500.064986843 299.388798965 539.449674534 299.388798965 558.694015585 c 0
 299.388798965 564.938206303 296.054564029 569.062019605 289.774414062 570.276367188 c 0
 261.963700346 575.650736999 249.137780042 587.749341377 249.137780042 605.928110809 c 0
EndSplineSet
Validated: 524289
EndChar

StartChar: hyphen
Encoding: 45 45 74
Width: 494
VWidth: 800
Flags: W
HStem: 146.507 61.6152<168.189 453.558>
VStem: 146.002 329.743
LayerCount: 2
Fore
SplineSet
168.189453125 208.122070312 m 1
 475.745117188 208.122070312 l 1
 453.557617188 146.506835938 l 1
 146.001953125 146.506835938 l 1
 168.189453125 208.122070312 l 1
EndSplineSet
Validated: 524289
EndChar

StartChar: endash
Encoding: 260 8211 75
Width: 393
VWidth: 800
Flags: W
HStem: 146.507 61.6152<74.9434 445.605>
LayerCount: 2
Fore
SplineSet
74.943359375 208.122070312 m 1
 467.79296875 208.122070312 l 1
 445.60546875 146.506835938 l 1
 52.755859375 146.506835938 l 1
 74.943359375 208.122070312 l 1
EndSplineSet
Validated: 524289
EndChar

StartChar: emdash
Encoding: 261 8212 76
Width: 780
VWidth: 800
Flags: W
HStem: 146.507 61.6152<74.9502 833.57>
LayerCount: 2
Fore
SplineSet
74.9501953125 208.122070312 m 1
 855.7578125 208.122070312 l 1
 833.5703125 146.506835938 l 1
 52.7626953125 146.506835938 l 1
 74.9501953125 208.122070312 l 1
EndSplineSet
Validated: 524289
EndChar

StartChar: ellipsis
Encoding: 262 8230 77
Width: 602
Flags: W
HStem: -19.1787 119.506<72.3627 136.039 283.906 347.58 495.443 559.118>
VStem: 40.6817 127.038<12.1982 68.9496> 252.225 127.031<12.2023 68.9496> 463.768 127.031<12.1995 68.9468>
LayerCount: 2
Fore
SplineSet
590.798317171 60.7984758543 m 0
 590.798317171 22.1030267963 547.186192007 -19.1774843015 505.762695312 -19.1787109375 c 0
 479.886118669 -19.1748789602 463.767608048 -2.68506388993 463.767608048 20.3509760297 c 0
 463.767608048 59.043644713 507.373657943 100.32101508 548.795898438 100.327148438 c 0
 574.676522952 100.326382036 590.798317171 83.8363501459 590.798317171 60.7984758543 c 0
379.255241213 60.7979183595 m 0
 379.255241213 22.1062581676 335.649610116 -19.1725774239 294.227539062 -19.1787109375 c 0
 268.346535659 -19.1779445244 252.224648289 -2.68682833165 252.224648289 20.3513617724 c 0
 252.224648289 59.0464662202 295.836704906 100.325921778 337.259765625 100.327148438 c 0
 363.136171193 100.323316485 379.255241213 83.8337194253 379.255241213 60.7979183595 c 0
167.719687648 60.7974640346 m 0
 167.719687648 22.1003274707 124.105039403 -19.1774843549 82.6845703125 -19.1787109375 c 0
 56.803566909 -19.1779445244 40.681679539 -2.68682833165 40.681679539 20.3513617724 c 0
 40.681679539 59.0464662202 84.2937361559 100.325921778 125.716796875 100.327148438 c 0
 151.597800278 100.326382024 167.719687648 83.835867318 167.719687648 60.7974640346 c 0
EndSplineSet
Validated: 524289
EndChar

StartChar: at
Encoding: 64 64 78
Width: 784
Flags: W
HStem: -151.245 29.2637<262.719 443.436> -2.37891 39.501<368.203 495.117> 252.11 46.4934<386.86 490.119> 366.66 35.8916<484.802 748.037> 516.155 29.4551<480.503 664.9>
VStem: 87.9208 39.2512<-7.71458 182.428> 248.22 87.7386<65.5603 191.835> 495.256 29.2432<231.797 241.071> 584.232 93.4098<160.126 266.267> 790.83 41.154<195.985 330.092>
LayerCount: 2
Fore
SplineSet
87.9207755397 74.5418846726 m 0
 87.9207755397 294.272454358 326.798712337 545.610351562 590.327148438 545.610351562 c 0
 669.32421875 545.610351562 736.233398438 523.668945312 788.98828125 462.40234375 c 1
 752.711914062 438.61328125 l 1
 706.784179688 494.61328125 646.797851562 516.155273438 578.497070312 516.155273438 c 0
 424.04296875 516.155273438 220.305664062 394.609375 148.665039062 195.638671875 c 0
 133.884087294 154.590031088 127.171995933 116.960053054 127.171995933 83.0852547041 c 0
 127.171995933 -47.2384538288 226.518200921 -121.981445312 347.952148438 -121.981445312 c 0
 500.95703125 -121.981445312 703.8046875 -4.8291015625 775.989257812 195.638671875 c 0
 785.981605679 223.389254745 790.829794898 248.021122706 790.829794898 269.342060955 c 0
 790.829794898 332.551285023 748.21819357 366.66015625 670.70703125 366.66015625 c 2
 484.801757812 366.66015625 l 1
 517.701171875 361.298828125 548.584960938 352.310546875 590.452148438 339.89453125 c 0
 650.026599007 322.229187588 677.641672766 285.900130739 677.641672766 239.352210133 c 0
 677.641672766 142.909319425 560.225557778 -2.37890625 393.64453125 -2.37890625 c 0
 298.654149663 -2.37890625 248.220209367 48.9279185172 248.220209367 113.913612614 c 0
 248.220209367 202.119816802 337.780702054 298.603682264 439.352368085 298.603682264 c 0
 484.22208452 298.603682264 520.212874082 277.44812574 524.499023438 235.326171875 c 1
 495.255859375 220.583007812 l 1
 489.584929168 240.414476064 468.87618347 252.110326113 444.077123515 252.110326113 c 0
 378.215484749 252.110326113 335.958849586 180.306514357 335.958849586 123.447317545 c 0
 335.958849586 64.5199038165 384.331112001 37.1220703125 423.6015625 37.1220703125 c 0
 533.451556862 37.1220703125 584.231905836 153.589104569 584.231905836 210.39891138 c 0
 584.231905836 277.857269499 528.55543678 294.030450237 434.619149952 321.317535257 c 0
 390.803017607 334.04546574 343.180867333 347.878987452 293.592773438 366.66015625 c 1
 297.80078125 378.33984375 l 1
 381.807617188 406.163085938 l 1
 396.124023438 404.23046875 421.423828125 402.551757812 443.58203125 402.551757812 c 2
 673.98046875 402.551757812 l 2
 773.989978709 402.551757812 831.983767014 363.674177363 831.983767014 283.870237817 c 0
 831.983767014 258.758340356 826.24138771 229.594031691 814.258789062 196.313476562 c 0
 743.90625 0.943359375 538.153320312 -151.245117188 338.072265625 -151.245117188 c 0
 181.88476198 -151.245117188 87.9207755397 -59.3826824244 87.9207755397 74.5418846726 c 0
EndSplineSet
Validated: 524289
EndChar

StartChar: numbersign
Encoding: 35 35 79
Width: 568
Flags: MW
HStem: 0 21G<161.201 203.617 364.482 406.898> 123.227 68.6123<115.994 204.014 263.319 407.295 466.6 563.283> 412.451 68.6123<208.218 304.5 363.805 507.781 567.086 655.544>
DStem2: 161.201 0 196.668 0 0.328188 0.944612<11.6398 130.452 214.727 436.635 520.911 623.237> 364.482 0 399.949 0 0.328188 0.944612<11.6398 130.452 214.727 436.635 520.911 623.237>
LayerCount: 2
Fore
SplineSet
569.021484375 588.717773438 m 5
 604.48828125 588.717773438 l 5
 567.085794098 481.063476562 l 5
 679.358398438 481.063476562 l 1
 655.543945312 412.451171875 l 1
 543.247722428 412.451171875 l 1
 466.600072208 191.838867188 l 1
 587.133789062 191.838867188 l 1
 563.283203125 123.2265625 l 1
 442.762000538 123.2265625 l 1
 399.94921875 0 l 1
 364.482421875 0 l 1
 407.295203663 123.2265625 l 1
 239.480750538 123.2265625 l 1
 196.66796875 0 l 1
 161.201171875 0 l 1
 204.013953663 123.2265625 l 1
 92.1435546875 123.2265625 l 1
 115.994140625 191.838867188 l 1
 227.852025333 191.838867188 l 1
 304.499675553 412.451171875 l 1
 184.404296875 412.451171875 l 1
 208.217773438 481.063476562 l 1
 328.337747223 481.063476562 l 1
 365.740234375 588.717773438 l 1
 401.20703125 588.717773438 l 1
 363.804544098 481.063476562 l 1
 531.618997223 481.063476562 l 5
 569.021484375 588.717773438 l 5
507.780925553 412.451171875 m 1
 339.966472428 412.451171875 l 1
 263.318822208 191.838867188 l 1
 431.133275333 191.838867188 l 1
 507.780925553 412.451171875 l 1
EndSplineSet
Validated: 524289
EndChar

StartChar: percent
Encoding: 37 37 80
Width: 615
Flags: HW
HStem: -11.4531 20.624<434.969 500.401> 0 21G<77.2451 146.728> 229.022 20.624<507.455 572.662> 339.068 20.626<254.163 318.108> 579.547 20.626<326.217 391.649>
VStem: 182.943 53.4261<366.571 494.843> 364.481 53.1643<16.0101 143.882> 408.972 53.1647<444.811 572.708> 590.242 53.4305<93.8794 222.144>
DStem2: 77.2451 0 125.535 0 0.727282 0.686338<35.1205 857.765>
LayerCount: 2
Fore
SplineSet
543.670379181 229.022461366 m 0xbe80
 474.617630183 229.018408857 417.644827953 126.651768122 417.644827953 63.5378940052 c 0
 417.644827953 28.6941985668 435.414562653 9.1708984375 464.467773438 9.1708984375 c 0
 532.805980937 9.1708984375 590.242229827 110.331217388 590.242229827 173.929242705 c 0
 590.242229827 208.948637108 572.506097941 229.022461366 543.670379181 229.022461366 c 0xbe80
643.672726994 166.908368866 m 0
 643.672726994 87.0238128874 560.640596356 -11.453125 457.037109375 -11.453125 c 0
 396.669748648 -11.453125 364.480563574 22.9428106325 364.480563574 71.5068338627 c 0
 364.480563574 150.645709525 446.654383827 249.641328475 551.078125 249.646484375 c 0
 611.663021203 249.646484375 643.672726994 215.354880916 643.672726994 166.908368866 c 0
282.961914062 359.694335938 m 0
 352 359.694335938 408.971912023 461.959056957 408.971912023 525.171380374 c 0x3d80
 408.971912023 560.020945838 391.204927953 579.546875 362.149414062 579.546875 c 0
 293.81077643 579.546875 236.369556676 478.399498611 236.369556676 414.797028067 c 0
 236.369556676 379.769263538 254.11415933 359.694335938 282.961914062 359.694335938 c 0
182.943476901 421.804821235 m 0
 182.943476901 501.701285161 265.985689875 600.172851562 369.580078125 600.172851562 c 0
 429.947438852 600.172851562 462.136623926 565.776341276 462.136623926 517.210727918 c 0
 462.136623926 438.076500961 379.971433902 339.069003975 275.53708016 339.068359363 c 0
 214.949204793 339.068359363 182.943476901 373.358766513 182.943476901 421.804821235 c 0
701.08203125 588.716796875 m 1
 749.372070312 588.716796875 l 1
 125.53515625 0 l 1
 77.2451171875 0 l 1x7c80
 701.08203125 588.716796875 l 1
EndSplineSet
Validated: 524289
EndChar

StartChar: ampersand
Encoding: 38 38 81
Width: 705
Flags: W
HStem: -14.3574 13.6123<365.6 390.36> 332.933 86.2754<214.567 263.099> 369.998 44.0151<549.466 633.632> 411.91 2.10297<619.333 621.251>
VStem: 187.655 82.5437<12.96 107.052> 440.978 79.2496<521.186 590.514> 665.202 94.6249<205.548 338.797>
LayerCount: 2
Fore
SplineSet
520.227494289 535.163253922 m 0xce
 520.227494289 511.559495603 499.851237399 526.100295546 435.070710879 458.266760766 c 1
 443.179494188 443.201311602 448.409751076 422.431397708 448.409751076 409.342813349 c 0
 448.409751076 396.673995046 443.779944288 393.839889416 428.952800408 387.210045813 c 0
 413.204268534 380.168210639 385.125495695 363.223900856 340.776222376 322.363663994 c 0
 336.622831533 313.186059496 333.366469832 305.253975109 327.88359636 289.291233929 c 1
 426.460485341 358.548510943 610.842511083 414.01312253 622.02035801 414.01312253 c 0xae
 622.372736964 414.01312253 622.552983776 413.958001213 622.552983776 413.846453012 c 0
 622.552983776 413.565618438 621.410516959 412.9271307 618.99609375 411.91015625 c 1x9e
 701.133554849 411.91015625 759.826739091 376.370076705 759.826739091 298.678101797 c 0
 759.826739091 276.166180923 754.898855315 250.115184021 744.185546875 220.364257812 c 0
 691.607421875 74.3564453125 547.040039062 -4.439453125 366.03515625 -14.357421875 c 1
 365.188476562 -0.7451171875 l 1
 641.501363762 56.8055958402 665.201873883 243.455161866 665.201873883 276.100607109 c 0
 665.201873883 333.040753068 628.68725976 369.998046875 562.9453125 369.998046875 c 0xae
 488.093666284 369.998046875 412.803119757 320.848603949 305.745436871 213.984245931 c 1
 286.693897036 138.352120028 278.2812435 73.0208513301 270.198242188 50.5732421875 c 0
 258.90625 19.2177734375 219.827148438 -25.42578125 207.342773438 -25.42578125 c 0
 197.259165689 -25.42578125 187.654585499 -14.1936431005 187.654585499 24.7718547949 c 0
 187.654585499 44.3283614032 187.654585499 74.0248866645 166.784536593 118.015874547 c 1
 155.114586647 101.138765185 146.173619611 87.1967407723 138.936872621 75.9121780627 c 0
 121.335815032 48.4661117022 113.816054662 36.7402343751 101.633789062 36.740234375 c 0
 90.5901855414 36.740234375 79.5038729117 69.5053246394 79.5038729117 102.047732594 c 0
 79.5038729117 139.332546398 82.804827174 142.265113199 141.284777635 194.218684076 c 0
 183.428127985 231.658824196 250.060731486 290.85520965 345.076167789 387.962594601 c 0
 349.415633816 396.012415394 353.72423996 403.760251201 358.017837191 411.341135069 c 1
 251.097415985 356.901651138 247.274297008 332.932617188 227.787109375 332.932617188 c 0
 215.350356403 332.932617188 202.924811003 383.455653452 202.924811003 408.670209282 c 0
 202.924811003 413.302353372 202.924811003 424.570386908 215.920898438 438.26171875 c 1
 220.75390625 424.768554688 227.80859375 419.208007812 244.28125 419.208007812 c 0
 273.540235723 419.208007812 323.223841764 431.235697729 380.573344152 450.446477394 c 1
 419.881215371 518.353547156 440.977933707 561.020557674 440.977933707 587.196346074 c 0
 440.977933707 593.832557309 439.607153232 599.496205796 436.615234375 604.0625 c 1
 463.421524554 606.969726562 463.421524554 606.969726562 466.704101562 606.969726562 c 0
 479.191992579 606.969726562 520.227494289 563.595099761 520.227494289 535.163253922 c 0xce
292.991405045 274.656608858 m 1
 239.20300545 217.028205763 192.817412162 154.275056049 183.715810707 141.823202221 c 1
 222.73140367 111.945963208 222.73140367 111.945963208 228.794921875 108.901367188 c 1
 288.059962848 257.514101387 292.346127294 273.000343335 292.991405045 274.656608858 c 1
EndSplineSet
Validated: 524289
EndChar

StartChar: asciicircum
Encoding: 94 94 82
Width: 395
Flags: W
HStem: 349.386 239.332<370.238 380.027>
DStem2: 154.745 349.386 217.446 349.386 0.685411 0.728157<42.9761 298.087> 438.845 588.718 390.688 536.665 0.2159 -0.976415<40.4282 231.574>
LayerCount: 2
Fore
SplineSet
380.02734375 588.717773438 m 1
 438.844726562 588.717773438 l 1
 491.764648438 349.385742188 l 1
 429.055664062 349.385742188 l 1
 390.688476562 536.665039062 l 1
 217.446289062 349.385742188 l 1
 154.745117188 349.385742188 l 1
 380.02734375 588.717773438 l 1
EndSplineSet
Validated: 524289
EndChar

StartChar: asterisk
Encoding: 42 42 83
Width: 351
Flags: W
HStem: 348.51 293.802
VStem: 318.852 84.7682<580.513 617.223>
LayerCount: 2
Fore
SplineSet
208.455870098 474.168281951 m 0
 208.455870098 496.891590749 211.880620655 528.988226723 231.230690561 528.988226723 c 0
 243.905015798 528.988226723 272.495213874 521.970969453 346.973632812 498.823242188 c 1
 341.19140625 483.788085938 l 1
 210.298828125 449.33984375 l 1
 209.250755219 454.961958997 208.455870098 464.073419342 208.455870098 474.168281951 c 0
269.10060278 348.509671671 m 0
 259.811372668 348.509671671 228.700474415 349.366664752 228.700474415 360.847603711 c 0
 228.700474415 367.80112557 243.883499789 385.881770374 339.905273438 479.54296875 c 1
 352.290039062 474.545898438 l 1
 304.015625 351.2109375 l 1
 295.848091553 349.769060384 282.388211041 348.509671671 269.10060278 348.509671671 c 0
410.623940652 372.382877878 m 0
 405.15127048 372.382877878 399.670828807 372.382877878 356.008789062 473.452148438 c 1
 369.439453125 485.397460938 l 1
 470.5078125 443.62109375 l 1
 470.153271066 442.895956775 433.377735154 372.382877878 410.623940652 372.382877878 c 0
502.420898438 534.084960938 m 0
 478.591796875 524.7890625 428.948242188 507.298828125 373.03515625 488.96875 c 1
 368.9375 501.349609375 l 1
 479.662109375 598.859375 l 1
 492.486277565 591.544952694 519.965968862 568.339638562 519.965968862 551.60525533 c 0
 519.965968862 542.087595236 512.958288674 538.200026264 502.420898438 534.084960938 c 0
396.457094852 642.311565589 m 0
 400.518116376 642.311565589 403.619774749 642.311565589 403.619774749 635.11935607 c 0
 403.619774749 623.072596722 394.917961272 590.847836386 367.447265625 504.647460938 c 1
 351.497070312 500.354492188 l 1
 318.8515625 602.392578125 l 1
 335.265057559 614.967774031 378.810608758 642.311565589 396.457094852 642.311565589 c 0
EndSplineSet
Validated: 524289
EndChar

StartChar: less
Encoding: 60 60 84
Width: 424
Flags: W
HStem: -24.7725 21G<327.643 382.509>
DStem2: 182.773 199.02 89.3154 189.076 0.80567 -0.592365<0 268.033> 96.4717 208.948 182.773 199.02 0.899392 0.437144<73.2788 439.747>
LayerCount: 2
Fore
SplineSet
182.7734375 199.01953125 m 1
 398.719726562 40.24609375 l 1
 375.306640625 -24.7724609375 l 1
 279.978515625 46.5107421875 184.651367188 117.79296875 89.3154296875 189.076171875 c 1
 96.4716796875 208.948242188 l 1
 536.477539062 422.810546875 l 1
 513.064453125 357.79296875 l 1
 182.7734375 199.01953125 l 1
EndSplineSet
Validated: 524289
EndChar

StartChar: asciitilde
Encoding: 126 126 85
Width: 685
Flags: W
HStem: 211.026 70.708<515.925 626.096> 290.893 70.7041<264.679 373.89>
LayerCount: 2
Fore
SplineSet
358.302734375 361.596679688 m 0
 465.376826586 361.596679688 502.029166555 281.734375 599.57421875 281.734375 c 0
 642.559570312 281.734375 692.822265625 305.150390625 739.252929688 347.245117188 c 1
 758.08984375 335.99609375 l 1
 701.879882812 267.483398438 615.708007812 211.026367188 532.466796875 211.026367188 c 0
 474.2890625 211.026367188 435.853515625 233.670898438 408.0625 251.168945312 c 0
 369.520507812 275.439453125 327.200195312 290.892578125 291.204101562 290.892578125 c 0
 248.21875 290.892578125 197.956054688 267.477539062 151.5234375 225.377929688 c 1
 132.6875 236.626953125 l 1
 188.89453125 305.13671875 275.060546875 361.596679688 358.302734375 361.596679688 c 0
EndSplineSet
Validated: 524289
EndChar

StartChar: greater
Encoding: 62 62 86
Width: 424
Flags: W
HStem: -24.7725 21G<38.4644 104.595>
DStem2: 54.6748 40.2461 31.2627 -24.7725 0.901275 0.433248<0 366.472> 192.433 422.811 169.021 357.793 0.800843 -0.598875<20.188 288.212>
LayerCount: 2
Fore
SplineSet
192.432617188 422.810546875 m 1
 478.418945312 208.948242188 l 1
 471.263671875 189.076171875 l 1
 324.591796875 117.79296875 177.926757812 46.5107421875 31.2626953125 -24.7724609375 c 1
 54.6748046875 40.24609375 l 1
 384.966796875 199.01953125 l 1
 328.405176989 240.595237414 171.179983451 356.205251714 169.020507812 357.79296875 c 1
 192.432617188 422.810546875 l 1
EndSplineSet
Validated: 524289
EndChar

StartChar: equal
Encoding: 61 61 87
Width: 471
Flags: W
HStem: 81.918 53.8291<87.8135 461.279> 249.325 53.8291<148.095 521.561>
LayerCount: 2
Fore
SplineSet
148.094726562 303.154296875 m 1
 540.944335938 303.154296875 l 1
 521.560546875 249.325195312 l 1
 128.7109375 249.325195312 l 1
 148.094726562 303.154296875 l 1
87.8134765625 135.747070312 m 1
 480.663085938 135.747070312 l 1
 461.279296875 81.91796875 l 1
 68.4296875 81.91796875 l 1
 87.8134765625 135.747070312 l 1
EndSplineSet
Validated: 524289
EndChar

StartChar: plus
Encoding: 43 43 88
Width: 471
Flags: W
HStem: -9.61035 21G<203.029 267.966> 173.057 53.8291<120.632 268.806 345.924 494.098>
DStem2: 203.029 -9.61035 260.765 -9.61035 0.34202 0.939693<19.7467 194.148 271.107 425.816>
LayerCount: 2
Fore
SplineSet
288.18901237 226.885742188 m 1
 347.293945312 391.025390625 l 1
 405.029296875 391.025390625 l 1
 345.924363932 226.885742188 l 1
 513.481445312 226.885742188 l 1
 494.09765625 173.056640625 l 1
 326.541079829 173.056640625 l 1
 260.764648438 -9.6103515625 l 1
 203.029296875 -9.6103515625 l 1
 268.805728267 173.056640625 l 1
 101.248046875 173.056640625 l 1
 120.631835938 226.885742188 l 1
 288.18901237 226.885742188 l 1
EndSplineSet
Validated: 524289
EndChar

StartChar: dollar
Encoding: 36 36 89
Width: 413
Flags: W
HStem: -17.7898 35.3205<146.855 177.511 238.934 283.39>
VStem: 206.155 81.5753<388.038 475.353> 375.936 82.6989<137.761 220.323>
DStem2: 151.961 -88.7451 200.485 -88.7451 0.34202 0.939693<16.5963 75.4148 130.084 379.114 508.399 696.119 716.628 719.971 751.009 811.757>
LayerCount: 2
Fore
SplineSet
426.977539062 675.010742188 m 1
 475.502929688 675.010742188 l 1
 449.299188463 602.23989956 l 1
 450.082591877 602.247275125 450.866981818 602.250976562 451.65234375 602.250976562 c 0
 513.014648438 602.250976562 552.358398438 583.9296875 575.142578125 559.282226562 c 1
 566.91796875 551.303710938 555.206054688 527.936523438 547.657226562 510.3671875 c 2
 528.530273438 465.874023438 l 1
 509.262695312 465.874023438 l 1
 512.56640625 479.740234375 l 2
 514.186476935 486.545630722 514.946490267 492.975612282 514.946490267 499.028449545 c 0
 514.946490267 541.334918426 477.817189358 565.216573543 437.719894686 570.082851526 c 1
 360.423534136 355.421851744 l 1
 404.274414062 314.189453125 l 2
 432.353323386 287.795952524 458.634558471 262.476421385 458.634558471 217.621715797 c 0
 458.634558471 133.423063533 368.751140896 2.29827534561 226.640207131 -16.1100357206 c 1
 200.485351562 -88.7451171875 l 1
 151.9609375 -88.7451171875 l 1
 177.510844854 -17.7897954451 l 1
 111.655723552 -13.7274046448 74.0257029781 15.856916918 48.5546875 43.458984375 c 1
 63.3271484375 65.384765625 76.0390625 89.72265625 104.686523438 149.659179688 c 1
 124.46875 149.659179688 l 1
 121.672851562 138.741210938 l 2
 118.646422606 126.948242141 116.7707668 114.274377191 116.7707668 101.705651309 c 0
 116.7707668 63.2453557508 134.333652352 25.7695400854 190.22919867 17.5306804563 c 1
 286.976415239 286.209927866 l 1
 248.694335938 321.90625 l 2
 225.310217255 343.708701504 206.154756718 370.458207668 206.154756718 406.217491119 c 0
 206.154756718 479.845100109 289.111300075 573.111720678 398.74906861 596.616712201 c 1
 426.977539062 675.010742188 l 1
238.934085207 18.0314961729 m 1
 312.96224736 31.0352061577 375.935696482 97.4790552313 375.935696482 164.688504417 c 0
 375.935696482 203.259387615 350.998666123 226.512050087 323.303866277 252.336208931 c 1
 238.934085207 18.0314961729 l 1
387.80020903 566.210345422 m 1
 327.025997738 549.032572343 287.730012568 490.493759263 287.730012568 453.300263489 c 0
 287.730012568 431.964319045 299.761297712 413.514119148 324.202389134 389.591162023 c 1
 387.80020903 566.210345422 l 1
EndSplineSet
Validated: 524289
EndChar

StartChar: parenleft
Encoding: 40 40 90
Width: 353
Flags: W
HStem: -213.806 27.6611<234.493 251.745> 561.057 27.6611<493.145 528.236>
VStem: 71.6663 83.8143<-117.386 101.118>
LayerCount: 2
Fore
SplineSet
538.197265625 588.717773438 m 1
 528.236328125 561.056640625 l 1
 400.774663664 519.830807175 297.2152948 444.471423279 204.671875 187.456054688 c 0
 171.251726902 94.6402531923 155.4805962 23.2581071729 155.4805962 -30.7299425955 c 0
 155.4805962 -111.283337787 187.622719317 -155.97268329 259.185546875 -186.14453125 c 1
 249.224609375 -213.805664062 l 1
 142.78583243 -198.039537159 71.6662593459 -135.123602644 71.6662593459 -21.5896313526 c 0
 71.6662593459 84.9593336962 143.15774678 282.382856435 216.604492188 388.5625 c 0
 298.610351562 507.107421875 417.694335938 572.588867188 538.197265625 588.717773438 c 1
EndSplineSet
Validated: 524289
EndChar

StartChar: parenright
Encoding: 41 41 91
Width: 353
Flags: W
HStem: -213.806 27.6611<-39.918 -4.82647> 561.057 27.6611<236.573 253.825>
VStem: 332.843 83.8094<273.784 492.295>
LayerCount: 2
Fore
SplineSet
239.09375 588.717773438 m 1
 345.532526945 572.952601073 416.652100029 510.035755072 416.652100029 396.501742184 c 0
 416.652100029 289.952575638 345.160302118 92.5274242972 271.712890625 -13.650390625 c 0
 189.708007812 -132.1953125 70.6240234375 -197.67578125 -49.87890625 -213.805664062 c 1
 -39.91796875 -186.14453125 l 1
 87.7543975486 -144.850549005 191.183446846 -69.3333608256 283.645507812 187.456054688 c 0
 317.053325948 280.234410672 332.842705077 351.645165301 332.842705077 405.623472644 c 0
 332.842705077 486.188575696 300.701141765 530.882473071 229.1328125 561.056640625 c 1
 239.09375 588.717773438 l 1
EndSplineSet
Validated: 524289
EndChar

StartChar: bracketleft
Encoding: 91 91 92
Width: 311
Flags: W
HStem: -211.798 35.6484<96.9326 207.078> 553.069 35.6484<359.51 483.809>
DStem2: 1.43457 -215.69 82.5409 -215.69 0.34202 0.939693<69.8187 844.867>
LayerCount: 2
Fore
SplineSet
292.489257812 592.610351562 m 1
 320.247070312 590.6640625 372.958007812 588.717773438 436.96875 588.717773438 c 2
 495.330078125 588.717773438 l 1
 483.80859375 556.71875 l 1
 359.509765625 553.069335938 l 1
 96.9326171875 -176.149414062 l 1
 218.598632812 -179.798828125 l 1
 207.078125 -211.797851562 l 1
 148.716796875 -211.797851562 l 2
 84.7060546875 -211.797851562 30.6044921875 -213.744140625 1.4345703125 -215.690429688 c 1
 292.489257812 592.610351562 l 1
EndSplineSet
Validated: 524289
EndChar

StartChar: bracketright
Encoding: 93 93 93
Width: 310
Flags: W
HStem: -211.798 31.999<-37.6436 86.6553> 556.719 31.999<239.087 349.232>
DStem2: 72.2635 -215.69 153.683 -215.69 0.34202 0.939693<42.0787 817.127>
LayerCount: 2
Fore
SplineSet
444.737304688 592.610351562 m 1
 153.682617188 -215.690429688 l 1
 125.911132812 -213.744140625 73.20703125 -211.797851562 9.1962890625 -211.797851562 c 2
 -49.1650390625 -211.797851562 l 1
 -37.6435546875 -179.798828125 l 1
 86.6552734375 -176.149414062 l 1
 349.232421875 553.069335938 l 1
 227.56640625 556.71875 l 1
 239.086914062 588.717773438 l 1
 297.448242188 588.717773438 l 2
 361.458984375 588.717773438 415.567382812 590.6640625 444.737304688 592.610351562 c 1
EndSplineSet
Validated: 524289
EndChar

StartChar: braceleft
Encoding: 123 123 94
Width: 248
Flags: W
HStem: -213.806 28.4062<125.021 144.066> 560.312 28.4062<385.442 422.813>
VStem: 33.0655 83.5381<-180.179 -66.9442> 129.344 82.824<73.702 172.298>
LayerCount: 2
Fore
SplineSet
33.0654845999 -153.703019387 m 0
 33.0654845999 -77.7172070176 129.344077884 97.8635645657 129.344077884 143.386836449 c 0
 129.344077884 161.162765327 119.372541591 171.066620406 94.4306640625 175.77734375 c 1
 102.846679688 199.134765625 l 1
 162.297722499 209.018782588 172.306105787 241.765161981 196.865118622 322.119673658 c 0
 266.239885074 549.106626206 292.692447168 588.717773438 433.0390625 588.717773438 c 1
 422.813476562 560.311523438 l 1
 355.167294745 549.041304202 340.732133846 504.617420322 301.051757812 382.501953125 c 0
 256.591956383 245.681451756 245.006272723 211.274877608 191.532226562 187.456054688 c 1
 196.325842244 184.305517286 212.168094295 173.893416917 212.168094295 150.681913051 c 0
 212.168094295 92.3234874018 116.603597725 -87.5132637671 116.603597725 -146.018408189 c 0
 116.603597725 -168.111178616 127.598022676 -180.345216689 154.29296875 -185.399414062 c 1
 144.06640625 -213.805664062 l 1
 73.4943685447 -213.805664062 33.0654845999 -204.343081448 33.0654845999 -153.703019387 c 0
EndSplineSet
Validated: 524289
EndChar

StartChar: braceright
Encoding: 125 125 95
Width: 248
Flags: W
HStem: -213.806 28.4062<-39.6602 -2.28826> 560.312 28.4062<239.087 258.131>
VStem: 170.988 82.8213<202.614 301.213> 266.553 83.5345<441.859 555.091>
LayerCount: 2
Fore
SplineSet
170.98796475 224.231506989 m 0
 170.98796475 282.598515511 266.552959975 462.434429477 266.552959975 520.93235939 c 0
 266.552959975 543.023967944 255.557986926 555.257466518 228.860351562 560.311523438 c 1
 239.086914062 588.717773438 l 1
 309.653397217 588.717773438 350.087442248 579.255921041 350.087442248 528.614269131 c 0
 350.087442248 452.62834793 253.809242429 277.04850628 253.809242429 231.525272926 c 0
 253.809242429 213.749344048 263.780778722 203.845488969 288.72265625 199.134765625 c 1
 280.306640625 175.77734375 l 1
 220.855264878 165.893406404 210.847101867 133.147474945 186.288725859 52.7943775069 c 0
 116.91348546 -174.196016709 90.4608663282 -213.805664062 -49.8857421875 -213.805664062 c 1
 -39.66015625 -185.399414062 l 1
 27.9860724367 -174.130302299 42.4141821571 -129.726983237 82.1005859375 -7.58984375 c 0
 126.560591487 129.228393277 138.156032472 163.641233882 191.62109375 187.456054688 c 1
 186.831813768 190.60374251 170.98796475 201.016892463 170.98796475 224.231506989 c 0
EndSplineSet
Validated: 524289
EndChar

StartChar: bar
Encoding: 124 124 96
Width: 213
Flags: W
DStem2: 2.83984 -211.798 57.5078 -211.798 0.34202 0.939693<18.6975 850.827>
LayerCount: 2
Fore
SplineSet
291.091796875 588.717773438 m 1
 345.759765625 588.717773438 l 1
 57.5078125 -211.797851562 l 1
 2.83984375 -211.797851562 l 1
 291.091796875 588.717773438 l 1
EndSplineSet
Validated: 524289
EndChar

StartChar: slash
Encoding: 47 47 97
Width: 217
Flags: W
HStem: 0 21G<0 68.1249>
DStem2: 0 0 55.4473 0 0.535384 0.844609<29.6856 697.03>
LayerCount: 2
Fore
SplineSet
373.177734375 588.717773438 m 1
 428.625976562 588.717773438 l 1
 55.447265625 0 l 1
 0 0 l 1
 373.177734375 588.717773438 l 1
EndSplineSet
Validated: 524289
EndChar

StartChar: backslash
Encoding: 92 92 98
Width: 217
Flags: W
HStem: 0 21G<161.193 218.367>
VStem: 161.193 106.239
DStem2: 161.193 0 216.642 0 0.0859547 0.996299<4.76604 590.905>
LayerCount: 2
Fore
SplineSet
267.432617188 588.717773438 m 1
 216.641601562 0 l 1
 161.193359375 0 l 1
 211.984375 588.717773438 l 1
 267.432617188 588.717773438 l 1
EndSplineSet
Validated: 524289
EndChar

StartChar: underscore
Encoding: 95 95 100
Width: 781
Flags: W
HStem: -204.036 61.6162<-51.2773 707.344>
LayerCount: 2
Fore
SplineSet
-51.27734375 -142.419921875 m 1
 729.530273438 -142.419921875 l 1
 707.34375 -204.036132812 l 1
 -73.4638671875 -204.036132812 l 1
 -51.27734375 -142.419921875 l 1
EndSplineSet
Validated: 524289
EndChar

StartChar: grave
Encoding: 96 96 101
Width: 309
Flags: W
HStem: 461.852 176.383<382.926 400.063>
VStem: 286.773 127.294
LayerCount: 2
Fore
SplineSet
382.92578125 461.8515625 m 1
 286.7734375 616.19921875 l 6
 286.770023522 616.313430799 286.768323133 616.427172446 286.768323133 616.540444297 c 0
 286.768323133 631.465940629 316.291420844 638.234589404 345.139349641 638.234589404 c 4
 372.184414341 638.234589404 398.636063094 632.285523861 399.611328125 621.53125 c 2
 414.067382812 461.8515625 l 1
 382.92578125 461.8515625 l 1
EndSplineSet
Validated: 524289
EndChar

StartChar: placeholder
Encoding: 263 57424 103
Width: 422
VWidth: 800
Flags: W
HStem: -188 86<50 67 355 372> -188 17<67 120 133 204 217 288 300 355> -85 77<50 67 355 372> 14 81<50 67 355 372> 108 79<50 67 355 372> 126 8<111.947 116 161.348 181.906 255.824 260 308.361 330.872> 170 8<95.2812 100 110 128 137 148 158 182 192 203 212 223 233 244 254 272 281 296 303.931 332.495> 204 86<50 67 355 372> 228 9<156.464 178.923> 249 7<318 337.769> 274 8<113 124.993 152 164.486 197 207.938 236 245.959 276 288 297 307.993> 306 77<50 67 355 372> 405 81<50 67 355 372> 498 90<50 67 355 372> 570 18<67 120 133 204 217 288 300 355>
VStem: 50 70<-188 -171 570 588> 50 17<-171 -102 -85 -8 10 90 108 187 204 290 306 383 401 481 498 570> 103 9<134.605 170 229.125 273> 125 10<134.417 170 203.875 273.926> 133 71<-188 -171 570 588> 148 10<135.019 170> 167 10<250.183 272.437> 177 15<193.003 201.932> 182 10<137 170 178 193 273.004 274> 187 9<229.125 236 243.665 273> 203 9<126.026 170> 208 9<204.017 229 238 269.801> 217 71<-188 -171 570 588> 223 10<99.866 170 178 193 198 200> 244 10<134.857 170 262 273.47> 266 10<203.073 273> 272 9<134.872 170> 288 9<153 161.547 229.017 274> 300 72<-188 -171 570 588> 308 10<203.505 249 256 274> 355 17<-171 -98 -81 -4 14 95 112 191 209 294 311 387 405 486 502 570>
LayerCount: 2
Fore
SplineSet
50 481 m 1x301880
 67 482 l 1
 67 401 l 1
 50 400 l 1
 50 481 l 1x301880
50 383 m 1
 67 383 l 1
 67 306 l 1
 50 306 l 1
 50 383 l 1
50 290 m 1x311880
 67 290 l 1
 67 204 l 1
 50 204 l 1
 50 290 l 1x311880
50 187 m 1x381880
 67 187 l 1
 67 108 l 1
 50 108 l 1
 50 187 l 1x381880
50 90 m 1
 67 91 l 1
 67 10 l 1
 50 10 l 1
 50 90 l 1
50 -8 m 1
 67 -8 l 1
 67 -85 l 1
 50 -85 l 1
 50 -8 l 1
50 -102 m 1xb01880
 67 -102 l 1xb01880
 67 -171 l 1x701880
 120 -171 l 1
 120 -188 l 1x7019
 50 -188 l 1xb019
 50 -102 l 1xb01880
50 588 m 1x301d
 120 588 l 1
 120 570 l 1x301b
 67 570 l 1x301a80
 67 498 l 1
 50 498 l 1x301c80
 50 528 50 558 50 588 c 1x301d
133 588 m 1x301a10
 204 588 l 1
 204 570 l 1
 133 570 l 1
 133 588 l 1x301a10
217 588 m 1x301a0010
 288 588 l 1
 288 570 l 1
 217 570 l 1
 217 588 l 1x301a0010
300 588 m 1x301a000040
 372 588 l 1x301c000040
 372 502 l 1
 355 502 l 1
 355 570 l 1x301a000010
 300 570 l 1
 300 588 l 1x301a000040
372 486 m 1x3018000010
 372 405 l 1
 355 405 l 1
 355 486 l 1
 372 486 l 1x3018000010
372 387 m 1
 372 311 l 1
 355 310 l 1
 355 387 l 1
 372 387 l 1
372 294 m 1
 372 209 l 1
 355 208 l 1
 355 294 l 1
 372 294 l 1
187 236 m 1x30b800a0
 183 234 183 234 168 228 c 0
 162 228 147 228 141 240 c 1
 141 243 l 1
 149 245 150 246 150 246 c 1
 162 246 167 254 167 262 c 0
 167 267 165 275 152 275 c 1
 152 280 l 1
 160 282 l 2
 162 282 177 282 177 262 c 0
 177 247 164 242 156 239 c 1
 163 237 163 237 164 237 c 0
 173 235 184 242 187 250 c 1
 187 273 l 1x30b804a0
 187 273 182 278 182 279 c 2
 182 280 l 1x30b801
 182.376887462 280.376887462 182.611730765 280.469686606 183.346945861 280.760209395 c 0
 184.56248575 281.240534189 187.145762083 282.261324773 194 286 c 1
 197 282 l 1
 206 282 l 1
 208 283 208 283 218 285 c 1
 218 276 l 1
 224 278 230 280 236 282 c 1
 241 282 l 2
 251.304816468 282 257.756962008 274.053866212 257.756962008 264.305811359 c 0
 257.756962008 254.188480684 250.806716979 242.130122355 234 235 c 0
 230 234 217 229 217 229 c 1
 217 206 l 1
 213.5 204.5 212 203.75 211 203.25 c 0
 210 202.75 209.5 202.5 208 202 c 1
 208 274 l 1
 196 274 l 1
 196 231 l 1
 194 229.666666667 192 229.222222222 190 228.777777778 c 0
 189 228.555555556 188 228.333333333 187 228 c 1
 187 236 l 1x30b800a0
98 279 m 1
 110 286 l 1
 113 282 l 1
 124 282 l 1
 126 283 126 283 136 285 c 1
 135 282 135 278 135 273 c 2
 135 206 l 1
 128 203 128 203 125 202 c 1
 125 274 l 1
 112 274 l 1
 112 231 l 1
 110 229.666666667 108 229.222222222 106 228.777777778 c 0
 105 228.555555556 104 228.333333333 103 228 c 1
 103 273 l 1x30b860
 98 279 l 1
261 281 m 1
 264 283 272 286 272 286 c 1x30780001
 272.763932023 285.236067977 273.236067977 284.909830056 273.639320225 284.631189606 c 0
 274.291796068 284.180339887 274.763932023 283.854101966 276 282 c 1
 307 282 l 1
 309 283 309 283 319 285 c 1
 319 284.171572875 318.828427125 283.171572875 318.627416998 282 c 0
 318.343145751 280.343145751 318 278.343145751 318 276 c 2
 318 256 l 1
 320 256 l 2
 322.639320225 256 325.27864045 256.27864045 327.7708764 256.5417528 c 0
 330 256.77708764 332.11145618 257 334 257 c 2
 339 257 l 1
 339 256 338 253 336 247 c 0
 335.979889186 247 335.883893959 247.024782535 335.713275127 247.068830217 c 0
 334.351151831 247.42048175 328.232883012 249 318 249 c 1
 318 206 l 1
 311 203 311 203 308 202 c 1
 308 274 l 1
 297 274 l 1
 297 231 l 1
 293.5 229.5 292 228.75 291 228.25 c 0
 290 227.75 289.5 227.5 288 227 c 1
 288 274 l 1
 276 274 l 1
 276 206 l 1
 269 203 269 203 266 202 c 1
 266 273 l 1x30780002a0
 261 281 l 1
220 238 m 0
 245 242 247 262 247 262 c 2
 248 264 250 274 235 274 c 0
 229 274 219 269 217 267 c 1
 217 238 l 1x30380020
 218 238 219 238 220 238 c 0
168 221 m 2
 169 221 170 221 170 220 c 2
 170 218 l 2
 170 217.798753882 168.82943443 210.439245907 161 200 c 1
 159 206 153 219 153 219 c 1
 153 220 l 2
 153 221 155 221 156 221 c 2
 156 221 157 220 162 217 c 1
 168 221 l 2
223 193 m 1x37180108
 219 198 l 1
 219 200 l 1
 220 200 l 1
 225 202 229 203 233 204 c 1
 233 178 l 1
 328 178 l 1
 328 178 330 179 332 179 c 0
 334 179 334 178 334 178 c 2
 334 177.552786405 333.8 177.105572809 333.4 176.211145618 c 0
 332.905572809 175.105572809 332.105572809 173.316718427 331 170 c 0
 330.85714476 170.047479584 325.197612609 171.895188433 318.752928135 171.895188433 c 0
 310.086388411 171.895188433 300 168.553840632 300 153 c 1
 300 153 301.640441438 133.314702741 323.492359465 133.314702741 c 0
 325.768600926 133.314702741 328.264150943 133.528301887 331 134 c 1
 331 129 l 1
 313 126 l 1
 297.735140889 126 289.518022381 139.654997417 289.518022381 152.640112904 c 0
 289.518022381 159.220042468 291.627963845 165.627963845 296 170 c 1
 281 170 l 1
 281 141 l 1
 277 127 260 126 260 126 c 1
 246 126 244 138 244 142 c 2
 244 170 l 1
 233 170 l 1
 233 103 l 1
 230 101 227 100 223 99 c 1
 223 170 l 1
 212 170 l 1
 212 128 l 1
 209.725082782 126.483388522 208.025193159 126.116832231 205.592190955 125.592190955 c 0
 204.816721855 125.424972406 203.966777043 125.241694261 203 125 c 1
 203 170 l 1
 192 170 l 1
 192 137 l 1
 195 128 l 1
 192.946024685 126.630683123 190.423292192 126.198880601 187.752741079 125.741776762 c 0
 186.522732493 125.531242823 185.261366246 125.315341562 184 125 c 1
 183 129 l 1
 180 127 169 125 164 125 c 0
 149 125 148 142 148 144 c 2
 148 170 l 1
 137 170 l 1
 137 141 l 1
 133 127 116 126 116 126 c 1
 107 124 100 132 100 142 c 2
 100 170 l 1
 81 170 l 1
 79 171 l 1
 79 174 79 175 92 186 c 1
 94 184 96 181 98 178 c 1
 182 178 l 1
 182 193 l 1x3718094d40
 182 193 177 197 177 198 c 0x371802
 177.04249431 198.084988619 177.083182853 198.168171472 177.123063182 198.249702028 c 0
 178.021669196 200.086794385 178.509931715 201.084988619 190 203 c 0
 191 203 191 204 191 204 c 1
 192 204 l 1
 192 178 l 1
 223 178 l 1
 223 193 l 1x37180108
372 191 m 1x3018000010
 372 112 l 1
 355 112 l 1
 355 191 l 1
 372 191 l 1x3018000010
119 134 m 0x3618
 124 134 128 136 128 143 c 2
 128 170 l 1
 110 170 l 1
 110 161 110 154 110 145 c 0
 110 134 118 134 119 134 c 0x3618
158 170 m 1x361809
 158 146 l 2
 158 144 161 136 164 134 c 1
 176 134 l 1
 178 135 180 136 182 138 c 1
 182 170 l 1
 158 170 l 1x361809
263 134 m 0
 266 134 272 134 272 143 c 2
 272 170 l 1
 254 170 l 1
 254 147 l 2x36180005
 254 143 254 134 263 134 c 0
201 118 m 2
 201 118 202 117 208 114 c 1x30180020
 216 117 l 1
 216 114 l 1
 207 98 l 1
 206 100 205 102 199 116 c 1
 199 117 l 2
 199 118 200 118 201 118 c 2
372 95 m 1x3018000010
 372 14 l 1
 355 14 l 1
 355 95 l 1
 372 95 l 1x3018000010
372 -4 m 1
 372 -81 l 1
 355 -81 l 1
 355 -4 l 1
 372 -4 l 1
372 -98 m 1
 372 -188 l 1xb018000040
 300 -188 l 1
 300 -171 l 1x7018000040
 355 -171 l 1x7018000010
 355 -98 l 1
 372 -98 l 1
133 -171 m 1x701810
 204 -171 l 1
 204 -188 l 1
 133 -188 l 1
 133 -171 l 1x701810
217 -171 m 1x70180010
 288 -171 l 1
 288 -188 l 1
 217 -188 l 1
 217 -171 l 1x70180010
EndSplineSet
Validated: 1
EndChar

StartChar: a.init
Encoding: 264 57344 104
Width: 539
VWidth: 800
Flags: W
HStem: -13.6191 48.5625<209.129 318.633 407.464 493.377> 366.662 35.8916<612.807 678.499> 376.795 39.7568<322.441 490.002>
VStem: 85.8672 81.2607<78.5915 228.461> 381.219 83.2807<6.77892 66.4629> 586.804 98.715<536.513 593.741>
DStem2: 406.134 97.5202 474.29 68.7979 0.379821 0.92506<-34.4083 269.827 360.111 480.556>
LayerCount: 2
Fore
SplineSet
676.270507812 602.715820312 m 0xbc
 682.641309784 602.715820312 685.518593973 599.201616255 685.518593973 592.570798148 c 0
 685.518593973 585.997308586 682.690847399 576.360863082 677.635742188 564.048828125 c 2
 611.32726485 402.553710938 l 1
 670.768554688 402.553710938 l 2
 675.746046016 402.553710938 678.516936167 392.979468429 678.516936167 383.720844968 c 0
 678.516936167 375.053169703 676.088471837 366.662109375 670.768554688 366.662109375 c 0xdc
 630.189977126 366.662109375 588.619898508 346.795186163 561.035467565 280.067416239 c 2
 474.290039062 68.7978515625 l 2
 467.185861594 51.4944261047 464.499899684 41.5038112797 464.499899684 36.102614 c 0
 464.499899684 31.9995103378 466.049946258 30.544921875 468.390625 30.544921875 c 0
 479.681640625 30.544921875 498.862304688 39.033203125 534.583007812 61.7451171875 c 1
 534.583007812 33.525390625 l 1
 474.166015625 -6.4677734375 450.485351562 -13.619140625 421.08203125 -13.619140625 c 0
 393.846808695 -13.619140625 381.219215839 2.56740967896 381.219215839 23.9566212201 c 0
 381.219215839 29.4564995008 382.054121058 35.300364879 383.690268854 41.3014800678 c 1
 342.808465197 20.1982548053 296.787864154 -2.8455091605 285.385742188 -7.8564453125 c 0
 270.387695312 -11.611328125 253.626953125 -13.619140625 223.170898438 -13.619140625 c 0
 167.258789062 -13.619140625 85.8671875 14.5234375 85.8671875 125.594726562 c 0
 85.8671875 244.958007812 162.466796875 336.452148438 258.015625 374.919921875 c 0
 352.64497674 413.015515295 409.979678736 416.551757812 481.333007812 416.551757812 c 0
 498.739592095 416.551757812 516.071891456 413.403906996 534.104043576 408.350488506 c 1
 582.254882812 525.305664062 l 2
 585.056580553 532.139991608 586.803579032 538.106596691 586.803579032 543.059010502 c 0
 586.803579032 553.546823753 578.968767284 559.486265734 556.724111361 559.486265734 c 0
 545.614012975 559.486265734 530.909371376 558.004668806 511.791015625 554.868164062 c 1
 511.791015625 573.126953125 l 1
 548.286132812 585.536132812 641.55078125 602.715820312 676.270507812 602.715820312 c 0xbc
508.574786687 346.341627005 m 1
 477.33492158 368.327702998 433.304048199 376.794921875 383.302734375 376.794921875 c 0xbc
 296.645507812 376.794921875 167.127929688 300.461914062 167.127929688 152.8984375 c 0
 167.127929688 61.6865234375 234.125976562 34.943359375 266.426757812 34.943359375 c 0
 319.415307643 34.943359375 365.815750038 58.9924936387 406.134160276 97.5201809815 c 1
 508.574786687 346.341627005 l 1
EndSplineSet
Validated: 524289
EndChar

StartChar: a.fina
Encoding: 265 57346 105
Width: 485
VWidth: 800
Flags: W
HStem: -18.1954 55.0497<148.855 179.859> 366.662 35.8916<124.235 177.876> 373.065 43.4902<315.274 437.679>
VStem: 471.836 81.2617<207.864 338.771>
DStem2: -27.7773 -228 53.3871 -228 0.34202 0.939693<44.1336 261.183 309.293 617.821>
LayerCount: 2
Fore
SplineSet
132.03125 402.553710938 m 2xd0
 243.009765625 402.553710938 l 2xd0
 261.154592492 402.553710938 269.227418778 398.66898019 269.227418778 385.102362156 c 0
 269.227418778 382.625650231 268.958368526 379.826261451 268.43243163 376.668924087 c 1
 298.202521967 388.999665468 336.316823422 403.33204093 361.94921875 412.293945312 c 0
 379.017578125 414.752929688 402.676757812 416.555664062 424.235351562 416.555664062 c 0xb0
 493.985351562 416.555664062 553.09765625 382.364257812 553.09765625 293.588867188 c 0
 553.09765625 182.82767892 435.790095221 45.5743186603 253.794921875 4.044921875 c 0
 169.602008699 -15.1667943382 169.602008699 -15.1667943382 129.032001259 -18.1954251576 c 1
 62.486328125 -203 l 1
 38.3251953125 -212.685546875 0.5205078125 -222.967773438 -27.77734375 -228 c 1
 159.87109375 293.12109375 l 2
 172.053094708 326.952619147 177.881826714 345.222214355 177.881826714 355.087261088 c 0
 177.881826714 366.438475808 170.164613991 366.662109375 155.529296875 366.662109375 c 2
 132.03125 366.662109375 l 2
 126.843496732 366.662109375 124.23299695 375.673061796 124.23299695 384.664927731 c 0
 124.23299695 393.618782063 126.821472484 402.553710938 132.03125 402.553710938 c 2xd0
233.214143611 271.12971977 m 2
 148.854672724 36.854290322 l 1
 159.64502964 36.1241124714 170.13774596 35.7711156958 180.336812476 35.7711156958 c 0
 385.49730076 35.7711156958 471.8359375 178.607003352 471.8359375 267.4296875 c 0
 471.8359375 328.752929688 440.573242188 373.065429688 366.098632812 373.065429688 c 0xb0
 308.978497085 373.065429688 259.939659678 345.209040279 233.214143611 271.12971977 c 2
EndSplineSet
Validated: 524289
EndChar

StartChar: b.init
Encoding: 266 57347 106
Width: 558
VWidth: 800
Flags: W
HStem: -228.002 21G<341.833 347.627> 137.949 106.453<315.482 400.787> 366.66 35.8916<571.874 698.23> 379.753 47.1445<320.792 495.033>
VStem: 89.7275 88.7656<84.1249 241.864> 304.908 106.453<148.523 233.828> 376.566 84.4636<-166.133 -53.8644>
LayerCount: 2
Fore
SplineSet
411.361328125 191.17578125 m 0xcc
 411.361328125 161.779296875 387.53125 137.94921875 358.135742188 137.94921875 c 0
 328.73828125 137.94921875 304.908203125 161.779296875 304.908203125 191.17578125 c 0
 304.908203125 220.572265625 328.73828125 244.40234375 358.135742188 244.40234375 c 0
 387.53125 244.40234375 411.361328125 220.572265625 411.361328125 191.17578125 c 0xcc
423.7421875 -203.001953125 m 1
 399.581054688 -212.6875 361.776367188 -222.970703125 333.477539062 -228.001953125 c 1
 362.999023438 -157.340820312 l 2
 372.308595518 -135.057814711 376.566026371 -116.501176183 376.566026371 -100.954058481 c 0
 376.566026371 -37.6093133009 305.890505644 -24.2241467624 218.291015625 -12.3134765625 c 0
 137.244140625 -1.2939453125 89.7275390625 50.353515625 89.7275390625 136.006835938 c 0
 89.7275390625 244.552734375 147.750976562 317.094726562 205.48828125 355.0546875 c 1
 260.289971217 383.699871134 346.321981846 426.897460938 447.435546875 426.897460938 c 0xda
 488.18768189 426.897460938 533.871145443 419.70697588 570.469881687 402.551757812 c 1
 690.004882812 402.551757812 l 2
 695.494649729 402.551757812 698.232184463 393.594922749 698.232184463 384.630065812 c 0
 698.232184463 375.649136363 695.484825033 366.66015625 690.004882812 366.66015625 c 2
 601.515753133 366.66015625 l 1xea
 581.422429253 351.729420248 557.297858258 341.233842949 530.815429688 333.331054688 c 1
 499.573242188 365.287109375 445.3125 379.752929688 389.677734375 379.752929688 c 0
 293.827148438 379.752929688 178.493164062 308.397460938 178.493164062 169.946289062 c 0
 178.493164062 136.71394569 178.493164062 42.7127500773 306.9967277 26.1247562019 c 0
 366.70079782 18.41780457 461.029604485 6.24128881473 461.029604485 -80.6179571905 c 0xda
 461.029604485 -101.588032506 455.531509852 -126.911101705 442.720703125 -157.575195312 c 2
 423.7421875 -203.001953125 l 1
EndSplineSet
Validated: 524289
EndChar

StartChar: b.medi
Encoding: 267 57348 107
Width: 475
VWidth: 800
Flags: W
HStem: -13.2393 45.8555<220.525 343.829> 366.66 35.8926<123.979 245.917 264.402 330.713 514.507 614.906> 518.939 106.453<421.747 507.053>
VStem: 94.9014 78.2891<82.6118 227.071> 411.173 106.454<529.514 614.818> 440.256 78.5927<175.832 365.668>
LayerCount: 2
Fore
SplineSet
517.626953125 572.166015625 m 0xf8
 517.626953125 542.76953125 493.795898438 518.939453125 464.400390625 518.939453125 c 0
 435.002929688 518.939453125 411.172851562 542.76953125 411.172851562 572.166015625 c 0
 411.172851562 601.5625 435.002929688 625.392578125 464.400390625 625.392578125 c 0
 493.795898438 625.392578125 517.626953125 601.5625 517.626953125 572.166015625 c 0xf8
440.255626467 267.591658498 m 0xf4
 440.255626467 284.403082827 438.696695365 337.903134176 420.540039062 386.298828125 c 1
 429.284179688 405.24609375 l 1
 457.7109375 402.943359375 469.451171875 402.55078125 508.119140625 402.55078125 c 2
 606.48828125 402.55078125 l 2
 611.837555122 402.55078125 614.926080663 392.788431215 614.926080663 383.446482518 c 0
 614.926080663 374.875910354 612.326544441 366.659179688 606.48828125 366.659179688 c 2
 514.506835938 366.659179688 l 1
 517.435103846 344.908573996 518.848360761 323.773294462 518.848360761 303.341556304 c 0
 518.848360761 115.234464076 399.058287429 -13.2392578125 238.883789062 -13.2392578125 c 0
 130.389648438 -13.2392578125 94.9013671875 55.943359375 94.9013671875 136.387695312 c 0
 94.9013671875 237.20703125 172.700195312 330.03515625 245.916992188 366.659179688 c 1
 132.029296875 366.66015625 l 2
 126.975041462 366.66015625 123.944083445 376.610828033 123.944083445 386.033499012 c 0
 123.944083445 394.506588291 126.394926112 402.552734375 132.029296875 402.552734375 c 2
 251.721679688 402.55078125 l 2
 284.522460938 402.55078125 310.057617188 402.552734375 342.541015625 409.541992188 c 1
 330.712890625 366.659179688 l 1
 222.966796875 366.659179688 173.190429688 247.329101562 173.190429688 165.170898438 c 0
 173.190429688 73.1630859375 229.037109375 32.6162109375 284.694335938 32.6162109375 c 0
 374.781611045 32.6162109375 440.255626467 140.228057798 440.255626467 267.591658498 c 0xf4
EndSplineSet
Validated: 524289
EndChar

StartChar: b.fina
Encoding: 268 57349 108
Width: 520
VWidth: 800
Flags: W
HStem: -18.4727 34.9043<288.968 428.212> 143.176 106.453<324.462 409.767> 366.659 35.8916<123.875 278.189 296.295 527.39>
VStem: 110.062 82.916<102.44 263.208> 313.887 106.454<153.75 239.055> 434.257 82.2373<-54.1973 -5.18164>
LayerCount: 2
Fore
SplineSet
420.340820312 196.40234375 m 0
 420.340820312 167.005859375 396.510742188 143.17578125 367.115234375 143.17578125 c 0
 337.71875 143.17578125 313.887695312 167.005859375 313.88671875 196.403320312 c 0
 313.88671875 225.798828125 337.717773438 249.62890625 367.115234375 249.62890625 c 0
 396.510742188 249.62890625 420.340820312 225.798828125 420.340820312 196.40234375 c 0
132.03125 402.55078125 m 2
 437.176757812 402.795898438 l 2
 467.103515625 402.819335938 529.260742188 405.713867188 546.291992188 407.416992188 c 1
 528.7734375 354.006835938 l 1
 499.8203125 362.702148438 434.874023438 366.659179688 395.151367188 366.659179688 c 0
 277.876953125 366.659179688 192.978515625 307.155273438 192.978515625 197.934570312 c 0
 192.978515625 116.5390625 228.844726562 16.431640625 382.974609375 16.431640625 c 0
 492.280273438 16.431640625 516.494140625 8.443359375 516.494140625 -18.806640625 c 0
 516.494140625 -32.1884765625 501.409179688 -51.1669921875 482.431640625 -64.0625 c 0
 473.689208658 -70.0028012311 473.689208658 -70.0028012311 398.247070312 -100.072265625 c 1
 398.247070312 -80.8505859375 l 1
 398.247070312 -80.8505859375 434.256835938 -65.5224609375 434.256835938 -45.083984375 c 0
 434.256835938 -28.052734375 397.759765625 -18.47265625 302.641601562 -18.47265625 c 0
 153.508789062 -18.47265625 110.0625 83.2216796875 110.0625 169.69921875 c 0
 110.0625 263.4765625 162.122070312 323.548828125 227.6171875 347.875 c 2
 278.189453125 366.659179688 l 1
 132.03125 366.659179688 l 2
 126.372035314 366.659179688 123.855795744 374.865740936 123.855795744 383.430566977 c 0
 123.855795744 392.77733994 126.852461341 402.55078125 132.03125 402.55078125 c 2
EndSplineSet
Validated: 524289
EndChar

StartChar: c.init
Encoding: 269 57350 109
Width: 498
VWidth: 800
Flags: W
HStem: -228.001 21G<265.722 294.657> 366.661 35.8906<580.238 639.193> 371.04 45.5117<172.575 258.072>
VStem: 255.561 83.1016<214.918 348.476>
DStem2: 280.007 -228.001 361.672 -228.001 0.34202 0.939693<136.79 632.207>
LayerCount: 2
Fore
SplineSet
128.483398438 380.412109375 m 1xb0
 179.334960938 397.443359375 242.506835938 416.551757812 250.448242188 416.551757812 c 0xb0
 282.696289062 416.551757812 338.662109375 389.100585938 338.662109375 308.115234375 c 0
 338.662109375 186.219726562 228.443359375 82.2294921875 109.830078125 30.5263671875 c 1
 176.201784308 22.7827541496 265.114670777 -1.22980851096 326.792091586 -99.4601102422 c 1
 494.63671875 366.661132812 l 1
 462.827148438 414.336914062 l 1
 494.03515625 424.572265625 532.146484375 435.3828125 564.22265625 443.14453125 c 1
 580.23828125 402.551757812 l 1
 630.221679688 402.552734375 l 2
 636.006010217 402.552734375 639.212140028 393.001311385 639.212140028 383.752990377 c 0
 639.212140028 375.073582521 636.388329814 366.661132812 630.221679688 366.661132812 c 2
 575.900390625 366.661132812 l 1xd0
 370.771484375 -203 l 1
 346.610351562 -212.686523438 308.806640625 -222.96875 280.506835938 -228.000976562 c 1
 250.936523438 -71.009765625 123.438476562 -9.380859375 11.4150390625 -8.6240234375 c 1
 11.4150390625 10.537109375 l 1
 147.516601562 75.166015625 255.560546875 154.811523438 255.560546875 280.442382812 c 0
 255.560546875 345.5078125 220.750976562 371.040039062 183.086914062 371.040039062 c 0
 167.811523438 371.040039062 138.702148438 363.01171875 128.483398438 360.091796875 c 1
 128.483398438 380.412109375 l 1xb0
EndSplineSet
Validated: 524289
EndChar

StartChar: c.medi
Encoding: 270 57351 110
Width: 498
VWidth: 800
Flags: W
HStem: -228.001 21G<265.723 294.657> 366.661 35.8916<123.623 240.68 580.238 638.913>
VStem: 255.562 83.1006<214.918 361.976>
DStem2: 280.007 -228.001 361.672 -228.001 0.34202 0.939693<136.79 632.208>
LayerCount: 2
Fore
SplineSet
132.029296875 402.552734375 m 2
 309.712890625 402.552734375 l 1
 326.8203125 380.727539062 338.662109375 344.609375 338.662109375 308.115234375 c 0
 338.662109375 186.219726562 228.443359375 82.2294921875 109.830078125 30.5263671875 c 1
 176.202553418 22.7827555367 265.114951724 -1.22979990827 326.792152402 -99.4600574545 c 1
 494.637695312 366.661132812 l 1
 462.828125 414.336914062 l 1
 494.03515625 424.572265625 532.147460938 435.3828125 564.22265625 443.14453125 c 1
 580.23828125 402.551757812 l 1
 630.22265625 402.552734375 l 2
 635.602490799 402.552734375 638.960902866 392.410666673 638.960902866 382.909127298 c 0
 638.960902866 374.536445038 636.353097004 366.661132812 630.22265625 366.661132812 c 2
 575.901367188 366.661132812 l 1
 370.771484375 -203 l 1
 346.610351562 -212.686523438 308.806640625 -222.96875 280.5078125 -228.000976562 c 1
 250.9375 -71.009765625 123.438476562 -9.380859375 11.416015625 -8.6240234375 c 1
 11.416015625 10.537109375 l 1
 147.516601562 75.166015625 255.561523438 154.811523438 255.561523438 280.442382812 c 0
 255.561523438 313.314453125 245.037109375 345.94140625 230.811523438 366.661132812 c 1
 132.029296875 366.661132812 l 2
 126.155083667 366.661132812 123.585960025 374.747574209 123.585960025 383.243842326 c 0
 123.585960025 392.647280556 126.732997683 402.552734375 132.029296875 402.552734375 c 2
EndSplineSet
Validated: 524289
EndChar

StartChar: c.fina
Encoding: 271 57352 111
Width: 756
VWidth: 800
Flags: W
HStem: -228.002 21G<238.439 253.862> 366.661 35.8916<123.996 240.68> 396.547 20G<778.982 895.071>
VStem: 239.713 90.2637<-205.279 -132.796> 255.561 83.1016<214.917 361.976>
LayerCount: 2
Fore
SplineSet
299.494791067 -81.5934719347 m 1xc8
 424.607590056 152.521412324 717.809467306 292.358916179 840.154296875 416.546875 c 1
 895.071289062 416.546875 l 1
 838.600344773 361.23477995 730.384080488 290.756288314 636.56640625 218.44921875 c 0
 481.96484375 99.3037109375 365.627929688 -4.529296875 329.9765625 -203.000976562 c 1
 305.815429688 -212.6875 268.01171875 -222.969726562 239.712890625 -228.001953125 c 1xb0
 237.165039062 -78.3447265625 123.438476562 -9.380859375 11.4150390625 -8.6240234375 c 1
 11.4150390625 10.5361328125 l 1
 147.516601562 75.1650390625 255.560546875 154.811523438 255.560546875 280.442382812 c 0
 255.560546875 313.314453125 245.037109375 345.94140625 230.811523438 366.661132812 c 1
 132.028320312 366.661132812 l 2
 126.420054484 366.661132812 123.961053939 374.766181513 123.961053939 383.273152593 c 0
 123.961053939 392.667852087 126.960040352 402.552734375 132.028320312 402.552734375 c 2
 309.711914062 402.552734375 l 1
 326.8203125 380.7265625 338.662109375 344.609375 338.662109375 308.114257812 c 0
 338.662109375 186.219726562 228.443359375 82.228515625 109.830078125 30.5263671875 c 1
 187.193898177 21.5006125682 256.993597922 1.43533101451 299.494791067 -81.5934719347 c 1xc8
EndSplineSet
Validated: 524289
EndChar

StartChar: d.init
Encoding: 272 57353 112
Width: 202
VWidth: 800
Flags: W
HStem: -228.002 21G<-8.93502 -1.9873> 366.663 35.8916<293.131 342.232>
VStem: 262.654 94.2117<521.668 593.133>
DStem2: -16.1367 -228.002 65.0263 -228.002 0.34202 0.939693<45.8962 659.499 698.024 829.062>
LayerCount: 2
Fore
SplineSet
333.576171875 603.059570312 m 0
 350.977240542 603.059570312 356.865708528 598.138775268 356.865708528 588.839783088 c 0
 356.865708528 582.533380268 354.157425995 574.213313647 350.495117188 564.048828125 c 2
 292.308530936 402.5546875 l 1
 333.576171875 402.5546875 l 2
 339.355511007 402.5546875 342.233767926 393.605522061 342.233767926 384.644512701 c 0
 342.233767926 375.659752713 339.340233487 366.663085938 333.576171875 366.663085938 c 0
 304.631304532 366.663085938 275.335002599 351.200876772 250.443178247 286.359365004 c 1
 74.126953125 -202.998046875 l 1
 49.9658203125 -212.68359375 12.162109375 -222.969726562 -16.13671875 -228.001953125 c 1
 258.28125 534.090820312 l 2
 261.074957491 541.848968172 262.653961676 548.12160038 262.653961676 553.027384542 c 0
 262.653961676 562.650536048 256.578195462 567.01426566 241.676953109 567.01426566 c 0
 235.047429174 567.01426566 226.671046147 566.150536539 216.305664062 564.501953125 c 1
 216.305664062 582.76171875 l 1
 252.801757812 595.169921875 322.25390625 603.059570312 333.576171875 603.059570312 c 0
EndSplineSet
Validated: 524289
EndChar

StartChar: d.medi
Encoding: 273 57354 113
Width: 202
VWidth: 800
Flags: W
HStem: -228 21G<-8.93501 -1.9873> 366.663 35.8916<123.778 197.112 293.13 341.427>
VStem: 262.654 94.2117<521.796 593.134>
DStem2: -16.1367 -228 65.0263 -228 0.34202 0.939693<45.8962 629.441 698.023 829.061>
LayerCount: 2
Fore
SplineSet
197.522741605 365.358090956 m 1
 160.365794323 366.663085938 160.365794323 366.663085938 155.3515625 366.663085938 c 2
 132.03125 366.663085938 l 2
 126.521447054 366.663085938 123.775536399 375.616389159 123.775536399 384.579474908 c 0
 123.775536399 393.562168516 126.533474234 402.5546875 132.03125 402.5546875 c 2
 174.038085938 402.5546875 l 2
 190.120548854 402.5546875 203.069306347 403.591588676 213.524453196 409.796774017 c 1
 258.28125 534.091796875 l 2
 261.074957491 541.849944734 262.653961676 548.122576943 262.653961676 553.028361104 c 0
 262.653961676 562.65151261 256.578195462 567.015242222 241.676953109 567.015242222 c 0
 235.047429174 567.015242222 226.671046147 566.151513101 216.305664062 564.502929688 c 1
 216.305664062 582.762695312 l 1
 252.801757812 595.170898438 322.25390625 603.060546875 333.576171875 603.060546875 c 0
 350.977240542 603.060546875 356.865708528 598.139751831 356.865708528 588.840759651 c 0
 356.865708528 582.534356831 354.157425995 574.21429021 350.495117188 564.049804688 c 2
 292.308456856 402.555664062 l 1
 333.576171875 402.555664062 l 2
 338.866230165 402.555664062 341.428928115 393.776063886 341.428928115 384.901380831 c 0
 341.428928115 375.83236794 338.75277008 366.6640625 333.576171875 366.6640625 c 0
 304.630500567 366.6640625 275.333375146 351.200994374 250.44110409 286.354938387 c 1
 74.126953125 -202.99609375 l 1
 49.9658203125 -212.681640625 12.162109375 -222.96875 -16.13671875 -228 c 1
 197.522741605 365.358090956 l 1
EndSplineSet
Validated: 524289
EndChar

StartChar: d.fina
Encoding: 274 57355 114
Width: 202
VWidth: 800
Flags: W
HStem: -228 21G<-8.93502 -1.9873> 366.664 35.8916<124.432 197.112>
VStem: 262.654 94.2117<525.268 593.135>
DStem2: -16.1367 -228 65.0259 -228 0.34202 0.939693<45.8968 630.651 663.655 829.062>
LayerCount: 2
Fore
SplineSet
197.52281849 365.359064818 m 1
 160.365528721 366.6640625 160.365528721 366.6640625 155.3515625 366.6640625 c 2
 132.03125 366.6640625 l 2
 127.322480873 366.6640625 124.389786307 376.795278914 124.389786307 386.292415994 c 0
 124.389786307 394.670784304 126.672231285 402.555664062 132.03125 402.555664062 c 2
 174.038085938 402.555664062 l 2
 190.120586254 402.555664062 203.069366572 403.592570061 213.524526137 409.79779387 c 1
 258.28125 534.092773438 l 2
 261.074957491 541.850921297 262.653961676 548.123553505 262.653961676 553.029337667 c 0
 262.653961676 562.652489173 256.578195462 567.016218785 241.676953109 567.016218785 c 0
 235.047429174 567.016218785 226.671046147 566.152489664 216.305664062 564.50390625 c 1
 216.305664062 582.763671875 l 1
 252.801757812 595.171875 322.25390625 603.061523438 333.576171875 603.061523438 c 0
 350.977240542 603.061523438 356.865708528 598.140728393 356.865708528 588.841736213 c 0
 356.865708528 582.535333393 354.157425995 574.215266772 350.495117188 564.05078125 c 2
 74.126953125 -202.995117188 l 1
 49.9658203125 -212.681640625 12.162109375 -222.967773438 -16.13671875 -228 c 1
 197.52281849 365.359064818 l 1
EndSplineSet
Validated: 524289
EndChar

StartChar: e.init
Encoding: 275 57356 115
Width: 184
VWidth: 800
Flags: W
HStem: -228.002 21G<-27.0083 -20.0605> 366.662 35.8916<276.844 323.657> 374.731 14.0322<116.964 127.868> 396.553 20G<219.355 227.907>
DStem2: -34.21 -228.002 46.9541 -228.002 0.34202 0.939693<45.0159 592.324>
LayerCount: 2
Fore
SplineSet
221.337126234 256.006980929 m 1xc0
 56.0537109375 -203.000976562 l 1
 31.892578125 -212.6875 -5.9111328125 -222.969726562 -34.2099609375 -228.001953125 c 1
 156.908203125 302.7578125 l 2
 160.175760314 311.831752793 162.18604921 321.787715767 162.18604921 331.300439124 c 0
 162.18604921 351.477496557 153.14196911 369.660465178 127.868164062 373.203125 c 2
 116.963867188 374.731445312 l 1
 114.439453125 388.763671875 l 1
 148.204480076 398.189977013 215.089896171 416.552545405 223.620669053 416.552545405 c 0xb0
 232.192904783 416.552545405 240.085783719 402.881114851 245.322473253 381.707162804 c 1
 266.504197386 395.206073008 310.285349479 402.352158229 315.501953125 402.553710938 c 0
 320.580807091 402.553710938 323.692834377 392.499590479 323.692834377 383.033997677 c 0
 323.692834377 374.615280255 321.23110887 366.662109375 315.501953125 366.662109375 c 0
 287.518891363 366.662109375 254.271307844 341.191042597 221.337126234 256.006980929 c 1xc0
EndSplineSet
Validated: 524289
EndChar

StartChar: e.medi
Encoding: 276 57357 116
Width: 480
VWidth: 800
Flags: W
HStem: -13.6191 42.0703<249.271 373.16> 366.662 35.8906<123.871 183.001 560.319 620.616> 374.176 42.377<257.8 383.04>
VStem: 99.5195 81.2617<103.458 264.732> 443.312 81.2617<137.002 308.31>
LayerCount: 2
Fore
SplineSet
559.338867188 411.499023438 m 1xb8
 580.260742188 403.650390625 600.8125 402.552734375 611.893554688 402.552734375 c 0
 617.491218677 402.552734375 620.63688606 392.929415006 620.63688606 383.648912822 c 0
 620.63688606 375.006875828 617.909151622 366.662109375 611.893554688 366.662109375 c 0
 570.071410771 366.662109375 537.132954791 350.680004773 504.825505225 330.174873419 c 1
 517.45050166 305.749010056 524.573242188 276.942037149 524.573242188 244.807617188 c 0
 524.573242188 101.814453125 425.7421875 -13.619140625 278.265625 -13.619140625 c 0
 177.671875 -13.619140625 99.51953125 55.1240234375 99.51953125 159.525390625 c 0
 99.51953125 247.537512201 136.666250575 311.524274987 187.342802285 353.641683595 c 1
 172.043770558 361.024469823 152.847874551 366.662109375 132.030273438 366.662109375 c 0
 126.404342902 366.662109375 123.851232889 375.013022582 123.851232889 383.658459769 c 0
 123.851232889 392.936013529 126.791336046 402.552734375 132.029296875 402.552734375 c 2
 183.000976562 402.552734375 l 1xd8
 207.059932496 368.500382588 l 1
 254.740190446 401.038164614 310.743095428 416.552734375 358.54296875 416.552734375 c 0
 413.41912001 416.552734375 461.382905003 392.560894264 491.461141409 351.712135585 c 1
 559.338867188 411.499023438 l 1xb8
312.530273438 374.17578125 m 0xb8
 250.075195312 374.17578125 180.78125 303.68359375 180.78125 195.416992188 c 0
 180.78125 88.11328125 250.045898438 28.451171875 309.533203125 28.451171875 c 0
 382.79296875 28.451171875 443.311523438 102.12109375 443.311523438 208.916015625 c 0
 443.311523438 308.202148438 395.415039062 374.17578125 312.530273438 374.17578125 c 0xb8
EndSplineSet
Validated: 524289
EndChar

StartChar: e.fina
Encoding: 277 57358 117
Width: 481
VWidth: 800
Flags: W
HStem: -227.996 21G<-20.5746 -13.627> 366.662 35.8916<123.563 177.936> 396.552 20G<524.469 619.82>
VStem: 177.942 91.2846<310.587 391.889>
DStem2: -27.7764 -227.996 53.389 -227.996 0.34202 0.939693<45.0157 319.694 387.417 617.953>
LayerCount: 2
Fore
SplineSet
175.323850253 110.361947761 m 1xd0
 267.532871726 200.751708714 484.034931946 334.465084271 564.903320312 416.551757812 c 1
 619.8203125 416.551757812 l 1xb0
 562.033275102 359.950577411 439.656948709 279.83457439 327.732421875 193.58203125 c 0
 244.173828125 129.186523438 151.139648438 43.1953125 100.253918228 -98.1163457732 c 2
 62.48828125 -202.99609375 l 1
 38.3271484375 -212.681640625 0.5224609375 -222.963867188 -27.7763671875 -227.99609375 c 1
 159.9140625 293.236328125 l 2
 172.121022917 327.135990413 177.941922825 345.385082063 177.941922825 355.208852849 c 0
 177.941922825 366.551894371 170.181368669 366.662109375 155.530273438 366.662109375 c 2
 132.032226562 366.662109375 l 2
 126.322607191 366.662109375 123.561034725 375.431803255 123.561034725 384.301368087 c 0
 123.561034725 393.375276629 126.45131936 402.553710938 132.032226562 402.553710938 c 2
 243.010742188 402.553710938 l 2
 261.155054509 402.553710938 269.226508898 398.671271789 269.226508898 385.1072447 c 0
 269.226508898 373.294992427 263.105261575 354.140396208 252.184570312 323.813476562 c 2
 175.323850253 110.361947761 l 1xd0
EndSplineSet
Validated: 524289
EndChar

StartChar: f.init
Encoding: 278 57359 118
Width: 389
VWidth: 800
Flags: W
HStem: -228.002 21G<-12.621 -6.82715> -13.6201 51.2256<140.731 244.938> 368.897 47.6543<177.232 295.094> 368.897 33.6562<401.035 528.832>
VStem: 368.65 81.2627<147.853 297.407>
DStem2: -20.9766 -228.002 60.1885 -228.002 0.34202 0.939693<44.1344 247.267>
LayerCount: 2
Fore
SplineSet
144.250808285 -13.4499350684 m 0xd8
 139.847530018 -30.6916251454 133.121313375 -50.2059113 124.208007812 -71.5419921875 c 2
 69.2880859375 -203.000976562 l 1
 45.126953125 -212.6875 7.322265625 -222.969726562 -20.9765625 -228.001953125 c 1
 34.6650390625 -94.8173828125 l 2
 55.6395646192 -44.6099613985 64.5204624357 -14.8852816427 64.5204624357 4.95503399054 c 0
 64.5204624357 14.5963369363 62.423304308 21.9035206314 58.59765625 28.0927734375 c 1
 139.858398438 59.6396484375 l 1
 158.5078125 45.51171875 175.41015625 37.60546875 207.876953125 37.60546875 c 0
 267.725585938 37.60546875 368.650390625 91.8427734375 368.650390625 213.205078125 c 0
 368.650390625 318.456054688 294.21484375 368.897460938 200.385742188 368.897460938 c 0
 192.721679688 368.897460938 165.041015625 365.4375 143.475585938 357.831054688 c 1
 143.475585938 382.162109375 l 1
 185.935546875 398.9765625 243.552734375 416.551757812 262.46484375 416.551757812 c 0xe8
 291.102956831 416.551757812 318.413811714 411.816164396 342.891478615 402.553710938 c 1
 520.633789062 402.553710938 l 2
 525.92746733 402.553710938 528.886034042 392.958754273 528.886034042 383.690815364 c 0
 528.886034042 375.033799335 526.304656752 366.662109375 520.633789062 366.662109375 c 2
 401.0354252 366.662109375 l 1
 431.295253219 337.910732888 449.913085938 297.102428829 449.913085938 245.204101562 c 0
 449.913085938 161.098632812 402.010742188 92.38671875 358.78515625 56.0966796875 c 1
 333.153117153 40.1829021632 209.513171871 -13.6201171875 151.53515625 -13.6201171875 c 0
 149.04132766 -13.6201171875 146.614784078 -13.562693431 144.250808285 -13.4499350684 c 0xd8
EndSplineSet
Validated: 524289
EndChar

StartChar: f.medi
Encoding: 279 57360 119
Width: 190
VWidth: 800
Flags: W
HStem: -227.999 21G<-20.5747 -13.627> 366.664 35.8916<123.834 177.877 277.405 330.498>
DStem2: -27.7764 -227.999 53.3887 -227.999 0.34202 0.939693<45.0162 617.822>
LayerCount: 2
Fore
SplineSet
132.032226562 402.555664062 m 2
 321.934570312 402.559570312 l 2
 327.055367846 402.559570312 330.564900723 391.998575759 330.564900723 382.334111419 c 0
 330.564900723 374.18210015 328.067873473 366.66796875 321.934570312 366.66796875 c 0
 291.99609375 366.66796875 261.686523438 350.124023438 236.255859375 279.509765625 c 2
 62.48828125 -202.998046875 l 1
 38.3271484375 -212.684570312 0.5224609375 -222.966796875 -27.7763671875 -227.999023438 c 1
 159.872070312 293.124023438 l 2
 172.054204769 326.9554655 177.883142166 345.224847436 177.883142166 355.089688091 c 0
 177.883142166 366.440433193 170.165973648 366.6640625 155.530273438 366.6640625 c 2
 132.032226562 366.6640625 l 2
 126.348714875 366.6640625 123.814602033 374.890617617 123.814602033 383.466732406 c 0
 123.814602033 392.804016574 126.818505219 402.555664062 132.032226562 402.555664062 c 2
EndSplineSet
Validated: 524289
EndChar

StartChar: f.fina
Encoding: 280 57361 120
Width: 348
VWidth: 800
Flags: W
HStem: 325.233 68.4219<253.046 383.604> 366.669 35.8906<124.03 245.094>
LayerCount: 2
Fore
SplineSet
159.740234375 402.559570312 m 2x40
 221.270417295 402.559570312 345.863585877 393.655277124 347.745748457 393.655277124 c 0
 388.593271347 393.655277124 413.159519549 403.905516733 460.178710938 446.401367188 c 1
 482.076171875 446.401367188 l 1
 411.029296875 363.189453125 371.614257812 325.233398438 325.385742188 325.233398438 c 0x80
 292.042674456 325.233398438 274.151437965 343.553090382 223.611328125 354.927734375 c 0
 189.791992188 362.5390625 156.047851562 366.668945312 132.2265625 366.668945312 c 0
 126.632478951 366.668945312 124.021173802 375.210056874 124.021173802 383.959093972 c 0
 124.021173802 393.144734364 126.89960589 402.559570312 132.2265625 402.559570312 c 2
 159.740234375 402.559570312 l 2x40
EndSplineSet
Validated: 524289
EndChar

StartChar: g.init
Encoding: 281 57362 121
Width: 498
VWidth: 800
Flags: W
HStem: -228.001 21G<265.722 294.657> 366.661 35.8916<580.238 637.907> 371.041 45.5107<172.575 258.072> 518.939 106.453<430.996 516.302>
VStem: 255.561 83.1016<214.918 348.476> 420.422 106.454<529.514 614.818>
DStem2: 280.007 -228.001 361.672 -228.001 0.34202 0.939693<136.791 632.207>
LayerCount: 2
Fore
SplineSet
526.875976562 572.166015625 m 0x9c
 526.875976562 542.76953125 503.045898438 518.939453125 473.650390625 518.939453125 c 0
 444.252929688 518.939453125 420.421875 542.76953125 420.421875 572.166015625 c 0
 420.421875 601.5625 444.252929688 625.392578125 473.650390625 625.392578125 c 0
 503.045898438 625.392578125 526.875976562 601.5625 526.875976562 572.166015625 c 0x9c
128.483398438 380.412109375 m 1
 179.334960938 397.443359375 242.506835938 416.551757812 250.448242188 416.551757812 c 0xbc
 282.696289062 416.551757812 338.662109375 389.100585938 338.662109375 308.115234375 c 0
 338.662109375 186.219726562 228.443359375 82.2294921875 109.830078125 30.5263671875 c 1
 176.201825312 22.7827493655 265.114780639 -1.22983818102 326.7922059 -99.4597927824 c 1
 494.63671875 366.661132812 l 1
 462.827148438 414.337890625 l 1
 494.03515625 424.572265625 532.146484375 435.3828125 564.22265625 443.14453125 c 1
 580.23828125 402.552734375 l 1
 630.221679688 402.552734375 l 2
 635.42178498 402.552734375 637.909177952 393.853073121 637.909177952 385.019928531 c 0
 637.909177952 375.911497199 635.264328838 366.661132812 630.221679688 366.661132812 c 2
 575.900390625 366.661132812 l 1xdc
 370.771484375 -203 l 1
 346.610351562 -212.685546875 308.806640625 -222.96875 280.506835938 -228.000976562 c 1
 250.936523438 -71.0087890625 123.438476562 -9.3798828125 11.4150390625 -8.623046875 c 1
 11.4150390625 10.537109375 l 1
 147.516601562 75.166015625 255.560546875 154.8125 255.560546875 280.442382812 c 0
 255.560546875 345.5078125 220.750976562 371.041015625 183.086914062 371.041015625 c 0xbc
 167.811523438 371.041015625 138.702148438 363.01171875 128.483398438 360.091796875 c 1
 128.483398438 380.412109375 l 1
EndSplineSet
Validated: 524289
EndChar

StartChar: g.medi
Encoding: 282 57363 122
Width: 498
VWidth: 800
Flags: W
HStem: -228.001 21G<265.723 294.657> 366.661 35.8916<124.305 240.68 580.238 638.152> 518.938 106.453<430.997 516.303>
VStem: 255.562 83.1006<214.917 361.976> 420.423 106.454<529.513 614.818>
DStem2: 280.007 -228.001 361.672 -228.001 0.34202 0.939693<136.79 632.208>
LayerCount: 2
Fore
SplineSet
526.876953125 572.166015625 m 0
 526.876953125 542.768554688 503.045898438 518.938476562 473.651367188 518.938476562 c 0
 444.25390625 518.938476562 420.422851562 542.76953125 420.422851562 572.166015625 c 0
 420.422851562 601.561523438 444.25390625 625.391601562 473.651367188 625.391601562 c 0
 503.045898438 625.391601562 526.876953125 601.561523438 526.876953125 572.166015625 c 0
132.029296875 402.552734375 m 2
 309.712890625 402.552734375 l 1
 326.8203125 380.727539062 338.662109375 344.610351562 338.662109375 308.114257812 c 0
 338.662109375 186.219726562 228.443359375 82.228515625 109.830078125 30.525390625 c 1
 176.202552775 22.7825600489 265.114949999 -1.22983860514 326.792150607 -99.4600624387 c 1
 494.637695312 366.661132812 l 1
 462.828125 414.336914062 l 1
 494.03515625 424.572265625 532.147460938 435.3828125 564.22265625 443.14453125 c 1
 580.23828125 402.552734375 l 1
 630.22265625 402.552734375 l 2
 635.265325017 402.552734375 638.170654458 392.801123907 638.170654458 383.46385589 c 0
 638.170654458 374.887721933 635.719679652 366.661132812 630.22265625 366.661132812 c 2
 575.901367188 366.661132812 l 1
 370.771484375 -203.000976562 l 1
 346.610351562 -212.686523438 308.806640625 -222.96875 280.5078125 -228.000976562 c 1
 250.9375 -71.009765625 123.438476562 -9.380859375 11.416015625 -8.6240234375 c 1
 11.416015625 10.537109375 l 1
 147.516601562 75.166015625 255.561523438 154.8125 255.561523438 280.442382812 c 0
 255.561523438 313.314453125 245.037109375 345.94140625 230.811523438 366.661132812 c 1
 132.029296875 366.661132812 l 2
 126.530724668 366.661132812 124.244036676 374.354829914 124.244036676 382.618022476 c 0
 124.244036676 392.202303601 127.320347773 402.552734375 132.029296875 402.552734375 c 2
EndSplineSet
Validated: 524289
EndChar

StartChar: g.fina
Encoding: 283 57364 123
Width: 756
VWidth: 800
Flags: W
HStem: -228.003 21G<238.44 253.863> 366.661 35.8916<124.305 240.68> 396.547 20G<778.98 895.071> 518.938 106.453<419.514 504.819>
VStem: 239.714 90.2612<-205.281 -132.796> 255.562 83.1016<214.917 361.976> 408.939 106.454<529.513 614.818>
LayerCount: 2
Fore
SplineSet
515.393554688 572.166015625 m 0x92
 515.393554688 542.768554688 491.563476562 518.938476562 462.16796875 518.938476562 c 0
 432.770507812 518.938476562 408.939453125 542.76953125 408.939453125 572.166015625 c 0
 408.939453125 601.561523438 432.770507812 625.391601562 462.16796875 625.391601562 c 0
 491.563476562 625.391601562 515.393554688 601.561523438 515.393554688 572.166015625 c 0x92
299.494832874 -81.5937960004 m 1
 424.608029704 152.52253154 717.806489083 292.355893089 840.154296875 416.546875 c 1
 895.071289062 416.546875 l 1
 838.600300144 361.234736237 730.377779352 290.751431907 636.56640625 218.44921875 c 0
 481.96484375 99.3037109375 365.627929688 -4.529296875 329.975063162 -203.002162712 c 1
 305.813907849 -212.68862488 268.012491212 -222.970739419 239.713867188 -228.002929688 c 1xba
 237.166015625 -78.345703125 123.4375 -9.380859375 11.4150390625 -8.6240234375 c 1
 11.4150390625 10.5361328125 l 1
 147.515625 75.1650390625 255.561523438 154.8125 255.561523438 280.442382812 c 0
 255.561523438 313.315429688 245.037109375 345.942382812 230.811523438 366.661132812 c 1
 132.028320312 366.661132812 l 2
 126.530130439 366.661132812 124.243503659 374.35518207 124.243503659 382.618589806 c 0
 124.243503659 392.20271205 127.319470218 402.552734375 132.028320312 402.552734375 c 2
 309.711914062 402.552734375 l 1
 326.819335938 380.7265625 338.663085938 344.609375 338.663085938 308.114257812 c 0xd6
 338.663085938 186.219726562 228.443359375 82.2294921875 109.831054688 30.5263671875 c 1
 187.194159153 21.5013423004 256.993688266 1.4356897381 299.494832874 -81.5937960004 c 1
EndSplineSet
Validated: 524289
EndChar

StartChar: h.init
Encoding: 284 57365 124
Width: 686
VWidth: 800
Flags: W
HStem: -13.6191 42.0703<454.907 578.796> 366.66 36.1348<298.954 410.034 765.955 825.242> 374.176 42.377<459.546 588.676>
VStem: 305.155 81.2617<103.458 266.207> 648.947 81.2607<137.003 308.31>
LayerCount: 2
Fore
SplineSet
456.078125 402.551757812 m 2xd8
 489.234406662 402.551757812 512.397369119 416.552734375 564.178710938 416.552734375 c 0xb8
 619.054943545 416.552734375 667.01844883 392.560823134 697.096397902 351.711953924 c 1
 764.974609375 411.5 l 1
 785.895507812 403.650390625 806.448242188 402.553710938 817.529296875 402.553710938 c 0
 822.654291645 402.553710938 825.243405292 393.51941837 825.243405292 384.515979227 c 0
 825.243405292 375.573826894 822.689420099 366.662109375 817.529296875 366.662109375 c 0
 775.706140435 366.662109375 742.767390333 350.680443237 710.460225685 330.175398141 c 1
 723.085260426 305.749422615 730.208007812 276.942267255 730.208007812 244.807617188 c 0
 730.208007812 101.815429688 631.377929688 -13.619140625 483.901367188 -13.619140625 c 0
 383.307617188 -13.619140625 305.155273438 55.1240234375 305.155273438 159.525390625 c 0
 305.155273438 257.148714308 350.858058216 325.212878477 410.033951063 366.66015625 c 1
 144.967773438 366.66015625 l 2
 141.27812509 366.66015625 139.614071461 368.127190317 139.614071461 370.097081404 c 0
 139.614071461 378.164481299 227.423530463 448.701322985 246.211914062 462.921875 c 1
 298.954101562 402.794921875 l 1
 456.078125 402.551757812 l 2xd8
518.165039062 374.17578125 m 0
 455.7109375 374.17578125 386.416992188 303.684570312 386.416992188 195.41796875 c 0
 386.416992188 88.11328125 455.681640625 28.451171875 515.168945312 28.451171875 c 0
 588.428710938 28.451171875 648.947265625 102.12109375 648.947265625 208.916015625 c 0
 648.947265625 308.202148438 601.05078125 374.17578125 518.165039062 374.17578125 c 0
EndSplineSet
Validated: 524289
EndChar

StartChar: h.medi
Encoding: 285 57366 125
Width: 264
VWidth: 800
Flags: W
HStem: 366.662 35.8916<124.408 190.05 323.092 403.615>
VStem: 232.654 82.8271<410.117 470.762>
DStem2: 34.7156 -45.2793 114.033 -45.2793 0.34202 0.939693<60.7822 430.542>
LayerCount: 2
Fore
SplineSet
315.481445312 446.497070312 m 0
 315.481445312 416.553710938 332.434570312 402.553710938 388.799804688 402.553710938 c 2
 396.145507812 402.553710938 l 2
 401.048910047 402.553710938 403.616583403 393.312679109 403.616583403 384.208830435 c 0
 403.616583403 375.371321292 401.196950583 366.663085938 396.145507812 366.663085938 c 2
 320.669921875 366.663085938 l 2
 304.487157348 366.663085938 289.702964425 368.066191957 277.062149921 371.181607498 c 1
 275.495209139 362.585628557 271.666629224 351.876959023 266.141601562 338.65234375 c 2
 170.106445312 108.782226562 l 2
 135.017578125 24.7939453125 98.4111328125 -18.943359375 69.234375 -45.279296875 c 1
 58.3583984375 -42.7001953125 l 5
 58.3436996843 -41.685120086 58.3362496896 -40.6508735009 58.3362496896 -39.5979886555 c 0
 58.3362496896 -4.8354260804 66.457404313 50.244492503 89.9423828125 106.455078125 c 6
 171.955078125 302.760742188 l 2
 183.75640922 331.00847015 190.052485569 347.621816421 190.052485569 356.793049552 c 0
 190.052485569 364.07067818 186.087931917 366.662109375 177.763671875 366.662109375 c 2
 132.033203125 366.662109375 l 2
 126.744275771 366.662109375 124.389728798 374.877646141 124.389728798 383.447544173 c 0
 124.389728798 392.790059457 127.187960574 402.553710938 132.033203125 402.553710938 c 2
 226.336914062 402.553710938 l 2
 229.441426563 402.553710938 232.387386782 402.512300227 235.179567971 402.426073167 c 1
 233.523855152 407.090339336 232.654296875 412.272059832 232.654296875 418.005859375 c 0
 232.654296875 478.513842945 289.860027061 499.501642678 382.759765625 533.584960938 c 1
 382.759765625 514.120117188 l 1
 336.135742188 497.087890625 315.481445312 469.327148438 315.481445312 446.497070312 c 0
EndSplineSet
Validated: 524289
EndChar

StartChar: h.fina
Encoding: 286 57367 126
Width: 191
VWidth: 800
Flags: W
HStem: 366.662 35.8906<124.339 190.047>
VStem: 190.05 87.8017<316.133 387.863> 258.201 81.0439<464.107 529.365>
DStem2: 34.7127 -45.2803 114.031 -45.2803 0.34202 0.939693<60.7771 430.543>
LayerCount: 2
Fore
SplineSet
132.03125 402.552734375 m 2xc0
 226.334960938 402.552734375 l 2
 263.383768399 402.552734375 277.852091553 396.654947003 277.852091553 379.070909978 c 0
 277.852091553 369.429291698 273.502175378 356.274190491 266.139648438 338.651367188 c 2
 170.104492188 108.78125 l 2
 135.015625 24.79296875 98.4091796875 -18.9443359375 69.232421875 -45.2802734375 c 1
 58.35546875 -42.7021484375 l 1
 58.3408253125 -41.6889142665 58.3334035222 -40.6565773755 58.3334035222 -39.605668017 c 0
 58.3334035222 -4.84337420186 66.4541324181 50.240428093 89.939453125 106.454101562 c 2
 171.953125 302.759765625 l 2
 183.754297461 331.007113882 190.05036318 347.620696802 190.05036318 356.792275361 c 0
 190.05036318 364.070399213 186.085575316 366.662109375 177.760742188 366.662109375 c 2
 132.03125 366.662109375 l 2
 126.913746167 366.662109375 124.337248071 375.675919913 124.337248071 384.669082577 c 0
 124.337248071 393.621138249 126.890246086 402.552734375 132.03125 402.552734375 c 2xc0
249.837890625 519.737304688 m 1
 249.837890625 528.252929688 l 1
 328.533203125 558.005859375 l 1
 335.83203125 544.13671875 339.245117188 528.083007812 339.245117188 512.923828125 c 0
 339.245117188 487.663085938 322.192382812 460.76953125 297.407226562 450.291992188 c 0
 287.17578125 445.967773438 264.479492188 440.302734375 251.053710938 438.254882812 c 1
 246.188476562 445.041015625 l 1
 253.748046875 453.0859375 258.201171875 468.126953125 258.201171875 482.203125 c 0xa0
 258.201171875 496.23828125 254.216796875 508.544921875 249.837890625 519.737304688 c 1
EndSplineSet
Validated: 524289
EndChar

StartChar: i.init
Encoding: 287 57368 127
Width: 480
VWidth: 800
Flags: W
HStem: -13.6182 42.0703<249.272 373.161> 366.663 35.8906<560.32 619.86> 374.177 42.377<259.218 383.041>
VStem: 99.5205 81.2617<103.459 263.462> 443.312 81.2607<137.003 308.311>
LayerCount: 2
Fore
SplineSet
559.33984375 411.5 m 1xb8
 580.260742188 403.651367188 600.8125 402.553710938 611.89453125 402.553710938 c 0
 617.12364116 402.553710938 619.861790333 393.312846905 619.861790333 384.209078395 c 0
 619.861790333 375.371484181 617.28141545 366.663085938 611.89453125 366.663085938 c 0xd8
 570.071521086 366.663085938 537.132855115 350.680913205 504.825799042 330.175718863 c 1
 517.450622299 305.749883528 524.573242188 276.942956212 524.573242188 244.80859375 c 0
 524.573242188 101.815429688 425.743164062 -13.6181640625 278.266601562 -13.6181640625 c 0
 177.672851562 -13.6181640625 99.5205078125 55.125 99.5205078125 159.526367188 c 0
 99.5205078125 336.745117188 250.130859375 416.553710938 358.543945312 416.553710938 c 0
 413.420244779 416.553710938 461.383800079 392.561741234 491.461742215 351.71278118 c 1
 559.33984375 411.5 l 1xb8
312.530273438 374.176757812 m 0xb8
 250.076171875 374.176757812 180.782226562 303.684570312 180.782226562 195.41796875 c 0
 180.782226562 88.1142578125 250.046875 28.4521484375 309.534179688 28.4521484375 c 0
 382.793945312 28.4521484375 443.3125 102.122070312 443.3125 208.916015625 c 0
 443.3125 308.203125 395.416015625 374.176757812 312.530273438 374.176757812 c 0xb8
EndSplineSet
Validated: 524289
EndChar

StartChar: i.medi
Encoding: 288 57369 128
Width: 251
VWidth: 800
Flags: HW
HStem: 366.662 35.8916<124.698 199.301 298.619 390.904>
VStem: 193.653 81.2617<421.897 480.035>
LayerCount: 2
Fore
SplineSet
423.162109375 608.7421875 m 1
 437.516601562 596.595703125 l 1
 395.248327625 571.801558387 371.997297603 559.449201208 335.030273438 537.345703125 c 0
 302.323242188 517.790039062 274.915039062 486.447265625 274.915039062 457.83984375 c 0
 274.915039062 424.11328125 315.856445312 402.537109375 381.458984375 402.551757812 c 2
 383.180664062 402.551757812 l 2
 388.256348189 402.551757812 390.906024944 393.327962171 390.906024944 384.232232794 c 0
 390.906024944 375.385620887 388.399501413 366.66015625 383.180664062 366.66015625 c 2
 287.711914062 366.66015625 l 2
 264.527908764 366.66015625 244.916491732 371.040378322 229.699421537 378.393923257 c 1
 215.487735592 371.330295992 198.230138561 366.660721645 177.181640625 366.661132812 c 2
 132.033203125 366.662109375 l 2
 127.042993384 366.662109375 124.690239579 375.268802402 124.690239579 384.052955689 c 0
 124.690239579 393.206973747 127.245294281 402.553710938 132.033203125 402.553710938 c 2
 171.293945312 402.552734375 l 2
 181.810288079 402.552734375 191.276970577 403.253565521 199.896376627 404.438081585 c 1
 195.798588781 411.570334721 193.653320312 419.352015136 193.653320312 427.453125 c 0
 193.653320312 469.827148438 229.103515625 505.909179688 318.8515625 548.029296875 c 1
 307.807617188 550.303710938 296.477539062 552.8671875 284.145507812 556.430664062 c 1
 288.981445312 568.596679688 l 1
 288.981445312 568.596679688 382.286132812 581.978515625 423.162109375 608.7421875 c 1
EndSplineSet
Validated: 524321
EndChar

StartChar: i.fina
Encoding: 289 57370 129
Width: 392
VWidth: 800
Flags: W
HStem: -228.003 21G<181.718 188.667> -13.6201 39.7881<150.135 258.283> 366.66 35.8916<124.465 380.171>
VStem: 47.9307 83.959<42.5173 124.822> 380.177 91.3439<313.064 391.885>
DStem2: 174.517 -228.003 255.681 -228.003 0.34202 0.939693<45.0155 248.725 263.993 468.004 487.999 617.82>
LayerCount: 2
Fore
SplineSet
132.3046875 402.551757812 m 2
 445.305664062 402.549804688 l 2
 463.449852053 402.549804688 471.521041149 398.666860732 471.521041149 385.102390639 c 0
 471.521041149 373.289578683 465.399814802 354.134253477 454.479492188 323.806640625 c 2
 264.780273438 -203.002929688 l 1
 240.620117188 -212.688476562 202.81640625 -222.970703125 174.516601562 -228.002929688 c 1
 258.783298929 6.01363479859 l 1
 240.415958767 -0.70516539737 193.117714091 -13.6201171875 154.943359375 -13.6201171875 c 0
 70.6416015625 -13.6201171875 47.9306640625 24.447265625 47.9306640625 62.296875 c 0
 47.9306640625 167.169456503 191.699415348 203.90922301 344.063782413 242.845578928 c 1
 362.166015625 293.1171875 l 2
 374.348370397 326.947980385 380.177138531 345.217521496 380.177138531 355.082721321 c 0
 380.177138531 366.434286813 372.459640546 366.658203125 357.82421875 366.658203125 c 2
 132.3046875 366.66015625 l 2
 126.984338176 366.66015625 124.456886249 375.315775178 124.456886249 384.125802561 c 0
 124.456886249 393.255865005 127.171298977 402.551757812 132.3046875 402.551757812 c 2
333.074189326 212.326442665 m 1
 312.129101927 208.228637644 287.564989422 202.50590593 270.211914062 197.538085938 c 0
 210.67578125 180.493164062 131.889648438 141.83203125 131.889648438 89.48046875 c 0
 131.889648438 42.33984375 166.986328125 26.16796875 218.599609375 26.16796875 c 0
 235.873110845 26.16796875 251.426598548 27.9593701039 267.811030475 31.0844965693 c 1
 333.074189326 212.326442665 l 1
EndSplineSet
Validated: 524289
EndChar

StartChar: j.fina
Encoding: 290 57373 130
Width: 480
VWidth: 800
Flags: W
HStem: -13.6191 42.0703<249.271 373.16> 366.662 35.8906<124.201 183.001> 374.176 42.377<257.8 381.148>
VStem: 99.5195 81.2617<103.458 264.732> 443.312 81.2617<137.002 307.586>
LayerCount: 2
Fore
SplineSet
312.530273438 374.17578125 m 0xb8
 250.075195312 374.17578125 180.78125 303.68359375 180.78125 195.416992188 c 0
 180.78125 88.11328125 250.045898438 28.451171875 309.533203125 28.451171875 c 0
 382.79296875 28.451171875 443.311523438 102.12109375 443.311523438 208.915039062 c 0
 443.311523438 308.202148438 395.415039062 374.17578125 312.530273438 374.17578125 c 0xb8
358.54296875 416.552734375 m 0
 451.46875 416.552734375 524.573242188 347.755859375 524.573242188 244.807617188 c 0
 524.573242188 101.814453125 425.7421875 -13.619140625 278.265625 -13.619140625 c 0
 177.671875 -13.619140625 99.51953125 55.1240234375 99.51953125 159.525390625 c 0
 99.51953125 247.537512201 136.666250575 311.524274987 187.342802285 353.641683595 c 1
 172.043770558 361.024469823 152.847874551 366.662109375 132.030273438 366.662109375 c 0
 126.868915974 366.662109375 124.198665823 375.83495446 124.198665823 384.9060364 c 0
 124.198665823 393.778058325 126.753007451 402.552734375 132.029296875 402.552734375 c 2
 183.000976562 402.552734375 l 1xd8
 207.059932496 368.500382588 l 1
 254.740190446 401.038164614 310.743095428 416.552734375 358.54296875 416.552734375 c 0
EndSplineSet
Validated: 524289
EndChar

StartChar: k.init
Encoding: 291 57374 131
Width: 283
VWidth: 800
Flags: HW
HStem: 171.505 46.846<143.316 270.924> 366.664 51.9941<207.971 421.138> 366.664 35.8916<272.896 422.793>
VStem: 105.679 317.133
LayerCount: 2
Fore
SplineSet
293.731445312 366.6640625 m 2xd0
 261.992905719 366.6640625 213.390883343 368.711914062 212.579101562 368.711914062 c 0
 187.8671875 368.711914062 165.668945312 360.669921875 129.883789062 347.25 c 1
 129.883789062 364.4140625 l 1
 192.6328125 392.095703125 262.23046875 418.658203125 272.20703125 418.658203125 c 0xd0
 286.788085938 418.658203125 308.028320312 402.555664062 375.7265625 402.555664062 c 2
 415.071289062 402.555664062 l 2xb0
 420.426051718 402.555664062 422.812018844 394.333795435 422.812018844 385.760323554 c 0
 422.812018844 376.42081382 419.980632335 366.6640625 415.071289062 366.6640625 c 2
 293.731445312 366.6640625 l 2xd0
180.635965157 171.504608923 m 0
 150.488012043 171.504608923 113.658925476 181.78406574 105.678710938 193.78125 c 1
 105.677734375 210.80078125 l 17
 128 220 153 229 179.646484375 235.676757812 c 1
 199.090820312 227.060546875 219.811523438 218.350585938 253.107421875 218.350585938 c 0
 274.518554688 218.350585938 323.19921875 230.12890625 345.583007812 239.861328125 c 1
 356.045898438 229.155273438 l 1
 288.93497682 199.508175265 225.54445088 171.504608923 180.635965157 171.504608923 c 0
EndSplineSet
Validated: 524289
EndChar

StartChar: k.medi
Encoding: 292 57375 132
Width: 256
VWidth: 800
Flags: W
HStem: 171.498 46.846<117.944 245.545> 366.663 35.8916<123.962 268.269 300.684 327.725 328.333 395.737>
VStem: 80.3066 315.433
LayerCount: 2
Fore
SplineSet
239.120117188 317.112304688 m 1
 268.275566575 355.22055516 268.275566575 355.22055516 268.275566575 359.85015382 c 0
 268.275566575 365.614760422 259.533048983 366.563877274 239.495117188 366.579101562 c 2
 132.03125 366.663085938 l 2
 126.890776766 366.663085938 123.94291977 376.390932767 123.94291977 385.71781088 c 0
 123.94291977 394.306244043 126.442468969 402.5546875 132.03125 402.5546875 c 2
 302.42578125 402.552734375 l 2
 316.370117188 402.552734375 325.116210938 398.493164062 327.857421875 392.490234375 c 1
 338.002929688 398.946289062 347.555664062 402.553710938 361.50390625 402.552734375 c 2
 387.8203125 402.552734375 l 2
 393.173152372 402.552734375 395.739166361 393.839280948 395.739166361 384.998930913 c 0
 395.739166361 375.897286285 393.01922309 366.661132812 387.8203125 366.661132812 c 0
 333.7109375 366.661132812 298.033203125 355.881835938 258.583984375 317.112304688 c 1
 239.120117188 317.112304688 l 1
155.262893121 171.49777313 m 0
 125.118057655 171.49777313 88.2874488288 181.777370555 80.306640625 193.774414062 c 1
 80.3056640625 210.794921875 l 1
 104.961914062 220.862555546 129.618164063 228.797152112 154.274414062 235.670898438 c 1
 173.71875 227.053710938 194.438476562 218.34375 227.734375 218.34375 c 0
 249.145507812 218.34375 297.827148438 230.122070312 320.2109375 239.854492188 c 1
 330.672851562 229.1484375 l 1
 263.538758005 199.49204118 200.16727517 171.49777313 155.262893121 171.49777313 c 0
EndSplineSet
Validated: 524321
EndChar

StartChar: k.fina
Encoding: 293 57376 133
Width: 347
VWidth: 800
Flags: W
HStem: 171.504 46.846<157.819 285.427> 325.233 68.4219<253.05 383.603> 366.669 35.8906<124.795 245.101>
LayerCount: 2
Fore
SplineSet
159.740234375 402.559570312 m 2xa0
 221.270417295 402.559570312 345.863585877 393.655277124 347.745748457 393.655277124 c 0
 388.593271347 393.655277124 413.159519549 403.905516733 460.178710938 446.401367188 c 1
 482.076171875 446.401367188 l 1
 411.029296875 363.189453125 371.61328125 325.233398438 325.385742188 325.233398438 c 0xc0
 292.033284712 325.233398438 274.172820992 343.548277882 223.611328125 354.927734375 c 0
 189.791992188 362.5390625 156.047851562 366.668945312 132.2265625 366.668945312 c 0
 127.11733013 366.668945312 124.779392751 375.076314282 124.779392751 383.752828093 c 0
 124.779392751 393.003235885 127.436836661 402.559570312 132.2265625 402.559570312 c 2
 159.740234375 402.559570312 l 2xa0
195.138894844 171.50363236 m 0
 164.99094173 171.50363236 128.161855163 181.783089178 120.181640625 193.780273438 c 1
 120.180664062 210.799804688 l 1
 120.180664062 210.799804688 174.3203125 229.59375 194.149414062 235.67578125 c 1
 213.59375 227.059570312 234.314453125 218.349609375 267.610351562 218.349609375 c 0
 289.021484375 218.349609375 337.702148438 230.127929688 360.0859375 239.860351562 c 1
 370.548828125 229.154296875 l 1
 303.437906507 199.507198702 240.047380567 171.50363236 195.138894844 171.50363236 c 0
EndSplineSet
Validated: 524289
EndChar

StartChar: l.init
Encoding: 294 57377 134
Width: 264
VWidth: 800
Flags: W
HStem: 119.104 74.7324<196.403 237.758> 366.664 51.9941<207.972 401.462> 366.664 35.8916<272.896 403.29>
VStem: 174.447 21.4268<231.64 250.899>
LayerCount: 2
Fore
SplineSet
293.731445312 366.6640625 m 2xd0
 261.991938919 366.6640625 213.391850143 368.711914062 212.580078125 368.711914062 c 0
 187.8671875 368.711914062 165.669921875 360.669921875 129.883789062 347.25 c 1
 129.883789062 364.4140625 l 1
 192.6328125 392.095703125 262.231445312 418.658203125 272.20703125 418.658203125 c 0xd0
 286.7890625 418.658203125 308.028320313 402.555664062 375.7265625 402.555664062 c 2
 395.606445312 402.555664062 l 2xb0
 400.813805013 402.555664062 403.298218683 393.872537362 403.298218683 385.048052203 c 0
 403.298218683 375.931492715 400.646624262 366.6640625 395.606445312 366.6640625 c 2
 293.731445312 366.6640625 l 2xd0
320.642578125 250.899414062 m 1
 290.248046875 195.140625 228.9921875 119.104492188 203.686523438 119.104492188 c 0
 189.120000427 119.104492188 173.821512314 174.342305442 173.821512314 231.33417729 c 0
 173.821512314 237.859688337 174.022075735 244.40819512 174.447265625 250.899414062 c 1
 195.874023438 250.899414062 l 1
 198.046875 223.013671875 210.263671875 193.836914062 226.958984375 193.836914062 c 0
 244.931640625 193.836914062 281.456054688 228.94921875 296.46484375 250.899414062 c 1
 320.642578125 250.899414062 l 1
EndSplineSet
Validated: 524289
EndChar

StartChar: l.medi
Encoding: 295 57378 135
Width: 159
VWidth: 800
Flags: W
HStem: 119.102 74.7324<103.148 144.502> 366.663 35.8936<124.441 200.387 225.397 259.843 260.449 298.109>
VStem: 81.1924 21.4258<231.633 250.896>
LayerCount: 2
Fore
SplineSet
227.387695312 250.896484375 m 1
 196.9921875 195.137695312 135.737304688 119.1015625 110.431640625 119.1015625 c 0
 95.8645728282 119.1015625 80.5663594155 174.336862158 80.5663594155 231.327357438 c 0
 80.5663594155 237.854156063 80.7670080827 244.403975524 81.1923828125 250.896484375 c 1
 102.618164062 250.896484375 l 1
 104.791015625 223.009765625 117.0078125 193.833984375 133.704101562 193.833984375 c 0
 151.67578125 193.833984375 188.201171875 228.9453125 203.208984375 250.896484375 c 1
 227.387695312 250.896484375 l 1
171.237304688 317.115234375 m 1
 200.393484267 355.22336352 200.393484267 355.22336352 200.393484267 359.853443572 c 0
 200.393484267 365.618174142 191.650726994 366.567268282 171.612304688 366.58203125 c 2
 132.030273438 366.663085938 l 2
 126.946976561 366.663085938 124.439613185 375.553327063 124.439613185 384.484852596 c 0
 124.439613185 393.499717388 126.99398683 402.556640625 132.032226562 402.556640625 c 2
 234.54296875 402.556640625 l 2
 248.48828125 402.556640625 257.233398438 398.497070312 259.975585938 392.493164062 c 1
 270.120117188 398.94921875 277.11328125 402.556640625 290.497070312 402.556640625 c 0
 295.574157332 402.556640625 298.11065784 393.588558977 298.11065784 384.618068928 c 0
 298.11065784 375.64275949 295.571431134 366.665039062 290.497070312 366.665039062 c 0
 241.497070312 366.665039062 230.151367188 355.884765625 190.702148438 317.115234375 c 1
 171.237304688 317.115234375 l 1
EndSplineSet
Validated: 524289
EndChar

StartChar: l.fina
Encoding: 296 57379 136
Width: 348
VWidth: 800
Flags: W
HStem: 119.102 74.7324<176.46 217.814> 325.233 68.4219<253.05 383.603> 366.669 35.8906<124.498 245.1>
VStem: 154.504 21.4268<231.637 250.897>
LayerCount: 2
Fore
SplineSet
159.740234375 402.559570312 m 2xb0
 221.269941896 402.559570312 345.863102494 393.655277124 347.745260197 393.655277124 c 0
 388.592782461 393.655277124 413.159048444 403.905516733 460.177734375 446.401367188 c 1
 482.075195312 446.401367188 l 1
 411.029296875 363.189453125 371.61328125 325.233398438 325.384765625 325.233398438 c 0xd0
 292.033992372 325.233398438 274.171210367 343.548640372 223.611328125 354.927734375 c 0
 189.791992188 362.5390625 156.047851562 366.668945312 132.225585938 366.668945312 c 0
 127.216254901 366.668945312 124.490368105 376.121813508 124.490368105 385.325022257 c 0
 124.490368105 394.054608444 126.942910844 402.559570312 132.225585938 402.559570312 c 2
 159.740234375 402.559570312 l 2xb0
300.69921875 250.897460938 m 1
 270.303710938 195.137695312 209.048828125 119.1015625 183.743164062 119.1015625 c 0
 169.175837329 119.1015625 153.878125193 174.338825843 153.878125193 231.33110197 c 0
 153.878125193 237.856975481 154.078697876 244.405859466 154.50390625 250.897460938 c 1
 175.930664062 250.897460938 l 1
 178.102539062 223.010742188 190.3203125 193.833984375 207.015625 193.833984375 c 0
 224.98828125 193.833984375 261.512695312 228.946289062 276.521484375 250.897460938 c 1
 300.69921875 250.897460938 l 1
EndSplineSet
Validated: 524289
EndChar

StartChar: m.init
Encoding: 297 57380 137
Width: 546
VWidth: 800
Flags: W
HStem: -24.999 21G<82.1284 82.3692> 366.662 35.8867<242.137 388.108 615.152 685.255> 389.634 43.9062<505.997 602.649> 518.94 106.453<324.205 409.511>
VStem: 313.631 106.454<529.515 614.819>
LayerCount: 2
Fore
SplineSet
420.084960938 572.166992188 m 0x98
 420.084960938 542.770507812 396.25390625 518.940429688 366.859375 518.940429688 c 0
 337.461914062 518.940429688 313.630859375 542.770507812 313.630859375 572.166992188 c 0
 313.630859375 601.563476562 337.461914062 625.393554688 366.859375 625.393554688 c 0
 396.25390625 625.393554688 420.084960938 601.563476562 420.084960938 572.166992188 c 0x98
127.079101562 366.663085938 m 2
 123.380519459 366.663085938 121.678108746 368.176889354 121.678108746 370.163073779 c 0
 121.678108746 376.512358252 186.933870361 430.041956141 206.912109375 445.163085938 c 1
 242.13671875 402.548828125 l 1
 347.103515625 402.548828125 l 2
 365.407226562 402.548828125 395.813476562 403.7578125 411.125976562 405.650390625 c 1
 388.983398438 357.205078125 l 1
 370.44921875 363.666015625 343.256835938 366.662109375 320.452148438 366.662109375 c 2xd8
 127.079101562 366.663085938 l 2
581.546875 366.662109375 m 2
 540.55859375 366.662109375 553.580078125 389.633789062 533.385742188 389.633789062 c 0
 523.532226562 389.633789062 482.126953125 365.962890625 462.68359375 352.061523438 c 0
 369.932617188 285.752929688 284.864257812 198.7578125 158.243164062 0.0009765625 c 1
 134.08203125 -9.6845703125 96.27734375 -19.966796875 67.9794921875 -24.9990234375 c 1
 96.7588511773 21.6575687429 231.344063557 231.066720295 401.409179688 353.743164062 c 0
 455.53515625 392.787109375 538.536132812 433.540039062 591.364257812 433.540039062 c 0xb8
 613.934570312 433.540039062 617.751953125 402.553710938 652.874023438 402.553710938 c 2
 677.663085938 402.553710938 l 2
 682.734810639 402.553710938 685.257232906 393.612712463 685.257232906 384.65580559 c 0
 685.257232906 375.666968495 682.716794361 366.662109375 677.663085938 366.662109375 c 2
 581.546875 366.662109375 l 2
EndSplineSet
Validated: 524289
EndChar

StartChar: m.medi
Encoding: 298 57381 138
Width: 211
VWidth: 800
Flags: W
HStem: 147.706 106.453<132.13 217.435> 366.667 35.8955<124.418 235.042 260.051 294.498 295.104 351.021>
VStem: 121.555 106.454<158.28 243.585>
LayerCount: 2
Fore
SplineSet
228.008789062 200.932617188 m 0
 228.008789062 171.536132812 204.178710938 147.706054688 174.783203125 147.706054688 c 0
 145.38671875 147.706054688 121.555664062 171.536132812 121.5546875 200.93359375 c 0
 121.5546875 230.329101562 145.385742188 254.159179688 174.783203125 254.159179688 c 0
 204.178710938 254.159179688 228.008789062 230.330078125 228.008789062 200.932617188 c 0
205.891601562 317.123046875 m 1
 235.048816016 355.229301662 235.048816016 355.229301662 235.048816016 359.860063784 c 0
 235.048816016 365.624643048 226.305460513 366.573073478 206.266601562 366.586914062 c 2
 132.03125 366.666992188 l 2
 126.912257064 366.666992188 124.416263636 375.486243875 124.416263636 384.3818062 c 0
 124.416263636 393.432654036 127.000160358 402.5625 132.034179688 402.5625 c 2
 269.197265625 402.5625 l 2
 283.141601562 402.5625 291.888671875 398.502929688 294.630859375 392.499023438 c 1
 304.776367188 398.955078125 311.766601562 402.5625 325.151367188 402.5625 c 2
 343.303710938 402.5625 l 2
 348.475990008 402.5625 351.023205156 393.680044662 351.023205156 384.752108165 c 0
 351.023205156 375.732273039 348.423281222 366.666015625 343.303710938 366.666015625 c 2
 325.151367188 366.669921875 l 2
 276.151367188 366.669921875 264.805664062 355.892578125 225.356445312 317.123046875 c 1
 205.891601562 317.123046875 l 1
EndSplineSet
Validated: 524289
EndChar

StartChar: m.fina
Encoding: 299 57382 139
Width: 347
VWidth: 800
Flags: W
HStem: 147.7 106.453<179.043 264.347> 325.233 68.4219<253.051 383.604> 366.669 35.8906<124.76 245.101>
VStem: 168.468 106.454<158.274 243.579>
LayerCount: 2
Fore
SplineSet
274.921875 200.926757812 m 0x90
 274.921875 171.530273438 251.090820312 147.700195312 221.6953125 147.700195312 c 0
 192.298828125 147.700195312 168.46875 171.530273438 168.467773438 200.927734375 c 0
 168.467773438 230.323242188 192.297851562 254.153320312 221.6953125 254.153320312 c 0
 251.090820312 254.153320312 274.921875 230.323242188 274.921875 200.926757812 c 0x90
159.741210938 402.559570312 m 2xb0
 221.270918458 402.559570312 345.864079057 393.655277124 347.746236759 393.655277124 c 0
 388.593759024 393.655277124 413.160025007 403.905516733 460.178710938 446.401367188 c 1
 482.076171875 446.401367188 l 1
 411.030273438 363.189453125 371.614257812 325.233398438 325.385742188 325.233398438 c 0xd0
 292.034968934 325.233398438 274.172186929 343.548640372 223.612304688 354.927734375 c 0
 189.79296875 362.5390625 156.048828125 366.668945312 132.2265625 366.668945312 c 0
 127.285591626 366.668945312 124.757757714 375.776826096 124.757757714 384.816332296 c 0
 124.757757714 393.721127236 127.210810918 402.559570312 132.2265625 402.559570312 c 2
 159.741210938 402.559570312 l 2xb0
EndSplineSet
Validated: 524289
EndChar

StartChar: n.fina
Encoding: 300 57385 140
Width: 190
VWidth: 800
Flags: W
HStem: -228 21G<-20.5746 -13.627> 366.662 35.8916<124.238 177.878>
VStem: 177.884 91.3442<313.068 391.889>
DStem2: -27.7764 -228 53.3877 -228 0.34202 0.939693<45.0159 617.82>
LayerCount: 2
Fore
SplineSet
132.032226562 402.553710938 m 2
 243.012695312 402.553710938 l 2
 261.15671568 402.553710938 269.227923268 398.670838726 269.227923268 385.106672829 c 0
 269.227923268 373.293891343 263.106439919 354.138481453 252.185546875 323.810546875 c 2
 62.4873046875 -202.999023438 l 1
 38.326171875 -212.685546875 0.5224609375 -222.967773438 -27.7763671875 -228 c 1
 159.873046875 293.12109375 l 2
 172.055165554 326.951230997 177.883732733 345.220719616 177.883732733 355.086054002 c 0
 177.883732733 366.43818552 170.165941728 366.662109375 155.530273438 366.662109375 c 2
 132.032226562 366.662109375 l 2
 126.701129254 366.662109375 124.230129538 375.156445317 124.230129538 383.880405168 c 0
 124.230129538 393.089132007 126.983372642 402.553710938 132.032226562 402.553710938 c 2
EndSplineSet
Validated: 524289
EndChar

StartChar: o.init
Encoding: 301 57386 141
Width: 480
VWidth: 800
Flags: W
HStem: -13.6182 42.0703<249.272 373.161> 366.663 35.8906<560.32 619.651> 374.177 42.377<259.218 383.041>
VStem: 99.5205 81.2617<103.459 263.462> 352.107 81.0439<464.108 529.366> 443.312 81.2617<137.003 308.311>
LayerCount: 2
Fore
SplineSet
559.33984375 411.5 m 1xbc
 580.26171875 403.651367188 600.813476562 402.553710938 611.89453125 402.553710938 c 0
 616.994593486 402.553710938 619.652693186 393.33933362 619.652693186 384.248247946 c 0
 619.652693186 375.39723394 617.13312671 366.663085938 611.89453125 366.663085938 c 0xdc
 570.072387334 366.663085938 537.133931354 350.680981336 504.826481787 330.175849982 c 1
 517.451478223 305.749986619 524.57421875 276.943013711 524.57421875 244.80859375 c 0
 524.57421875 101.815429688 425.743164062 -13.6181640625 278.266601562 -13.6181640625 c 0
 177.672851562 -13.6181640625 99.5205078125 55.125 99.5205078125 159.526367188 c 0
 99.5205078125 336.745117188 250.130859375 416.553710938 358.543945312 416.553710938 c 0
 413.420096572 416.553710938 461.383881565 392.561870827 491.462117971 351.713112147 c 1
 559.33984375 411.5 l 1xbc
312.530273438 374.176757812 m 0xbc
 250.076171875 374.176757812 180.782226562 303.684570312 180.782226562 195.41796875 c 0
 180.782226562 88.1142578125 250.046875 28.4521484375 309.534179688 28.4521484375 c 0
 382.793945312 28.4521484375 443.3125 102.122070312 443.3125 208.916015625 c 0
 443.3125 308.203125 395.416015625 374.176757812 312.530273438 374.176757812 c 0xbc
343.744140625 519.73828125 m 1
 343.744140625 528.25390625 l 1
 422.438476562 558.006835938 l 1
 429.73828125 544.138671875 433.151367188 528.083984375 433.151367188 512.924804688 c 0
 433.151367188 487.6640625 416.098632812 460.770507812 391.313476562 450.293945312 c 0
 381.08203125 445.96875 358.385742188 440.303710938 344.959960938 438.255859375 c 1
 340.09375 445.041992188 l 1
 347.654296875 453.086914062 352.107421875 468.127929688 352.107421875 482.204101562 c 0
 352.107421875 496.239257812 348.123046875 508.545898438 343.744140625 519.73828125 c 1
EndSplineSet
Validated: 524289
EndChar

StartChar: o.medi
Encoding: 302 57387 142
Width: 480
VWidth: 800
Flags: W
HStem: -13.6182 42.0693<249.271 373.16> 366.661 35.8903<124.631 183.001 479.678 619.632>
VStem: 99.5195 81.2617<103.458 264.732> 326.146 82.8281<414.38 470.369> 443.312 81.2607<137.003 308.733>
LayerCount: 2
Fore
SplineSet
408.973632812 446.495117188 m 0
 408.973632812 416.551757812 425.92578125 402.551757812 482.291015625 402.551757812 c 2
 611.890625 402.553710938 l 2
 616.752697509 402.553710938 619.665468265 392.608218322 619.665468265 383.187868211 c 0
 619.665468265 374.712451467 617.307736785 366.662109375 611.890625 366.662109375 c 2
 478.953623819 366.661452815 l 1
 507.332001709 336.742699944 524.572265625 294.802063032 524.572265625 244.807617188 c 0
 524.572265625 101.815429688 425.7421875 -13.6181640625 278.265625 -13.6181640625 c 0
 177.671875 -13.6181640625 99.51953125 55.1240234375 99.51953125 159.525390625 c 0
 99.51953125 247.537145392 136.665940942 311.523982489 187.34216867 353.641640336 c 1
 172.04286898 361.024447801 152.846938649 366.662109375 132.029296875 366.662109375 c 0
 127.096887683 366.662109375 124.629333225 375.638281852 124.629333225 384.612817838 c 0
 124.629333225 393.584082037 127.095088851 402.553710938 132.029296875 402.553710938 c 2
 183.000976562 402.553710938 l 1
 207.060124183 368.501087842 l 1
 244.341527864 393.942641313 286.71116739 408.976634202 326.2691777 414.324171519 c 0
 326.187021108 415.524633923 326.145507812 416.751091775 326.145507812 418.00390625 c 0
 326.145507812 478.51188982 383.351237998 499.499689553 476.250976562 533.583007812 c 1
 476.250976562 514.118164062 l 1
 429.626953125 497.0859375 408.973632812 469.325195312 408.973632812 446.495117188 c 0
312.529296875 374.176757812 m 0
 250.075195312 374.176757812 180.78125 303.68359375 180.78125 195.41796875 c 0
 180.78125 88.11328125 250.045898438 28.451171875 309.533203125 28.451171875 c 0
 382.79296875 28.451171875 443.311523438 102.12109375 443.311523438 208.916015625 c 0
 443.311523438 308.202148438 395.415039062 374.176757812 312.529296875 374.176757812 c 0
EndSplineSet
Validated: 524289
EndChar

StartChar: o.fina
Encoding: 303 57388 143
Width: 480
VWidth: 800
Flags: W
HStem: -13.6191 42.0703<249.271 373.16> 366.662 35.8906<124.483 183.001> 374.176 42.377<257.8 381.148>
VStem: 99.5195 81.2617<103.458 264.733> 352.107 81.0439<464.108 529.366> 443.312 81.2617<137.003 307.587>
LayerCount: 2
Fore
SplineSet
343.744140625 519.73828125 m 1x9c
 343.744140625 528.25390625 l 1
 422.438476562 558.006835938 l 1
 429.73828125 544.138671875 433.151367188 528.083984375 433.151367188 512.924804688 c 0
 433.151367188 487.6640625 416.098632812 460.770507812 391.313476562 450.293945312 c 0
 381.08203125 445.96875 358.385742188 440.303710938 344.959960938 438.255859375 c 1
 340.09375 445.041992188 l 1
 347.654296875 453.086914062 352.107421875 468.127929688 352.107421875 482.204101562 c 0
 352.107421875 496.239257812 348.123046875 508.545898438 343.744140625 519.73828125 c 1x9c
312.529296875 374.17578125 m 0xbc
 250.075195312 374.17578125 180.78125 303.684570312 180.78125 195.41796875 c 0
 180.78125 88.11328125 250.045898438 28.451171875 309.533203125 28.451171875 c 0
 382.79296875 28.451171875 443.311523438 102.12109375 443.311523438 208.916015625 c 0
 443.311523438 308.202148438 395.415039062 374.17578125 312.529296875 374.17578125 c 0xbc
358.54296875 416.552734375 m 0
 451.46875 416.552734375 524.573242188 347.755859375 524.573242188 244.807617188 c 0
 524.573242188 101.815429688 425.7421875 -13.619140625 278.265625 -13.619140625 c 0
 177.671875 -13.619140625 99.51953125 55.1240234375 99.51953125 159.525390625 c 0
 99.51953125 247.537512201 136.666250575 311.524274987 187.342802285 353.641683595 c 1
 172.043770558 361.024469823 152.847874551 366.662109375 132.030273438 366.662109375 c 0
 126.928777436 366.662109375 124.481098872 375.381484667 124.481098872 384.224806574 c 0
 124.481098872 393.323170985 127.071996007 402.552734375 132.029296875 402.552734375 c 2
 183.000976562 402.552734375 l 1xdc
 207.060190154 368.500558417 l 1
 254.740392201 401.038220506 310.743181529 416.552734375 358.54296875 416.552734375 c 0
EndSplineSet
Validated: 524289
EndChar

StartChar: p.fina
Encoding: 304 57391 144
Width: 191
VWidth: 800
Flags: HW
HStem: 366.661 35.8916<124.394 190.048>
VStem: 190.051 87.8018<316.133 387.863>
DStem2: 34.7133 -45.2812 114.03 -45.2812 0.34202 0.939693<60.4477 430.543>
LayerCount: 2
Fore
SplineSet
132.03125 402.552734375 m 2
 226.3359375 402.552734375 l 2
 263.384744961 402.552734375 277.853068115 396.654947003 277.853068115 379.070909978 c 0
 277.853068115 369.429291698 273.503151941 356.274190491 266.140625 338.651367188 c 2
 170.104492188 108.78125 l 2
 135.016601562 24.79296875 98.41015625 -18.9453125 69.2333984375 -45.28125 c 1
 58.3564453125 -42.7021484375 l 5
 58.341801875 -41.6889142665 58.3343800847 -40.6565782164 58.3343800847 -39.6056704657 c 0
 58.3343800847 -4.84342983293 66.4551089806 50.239480187 89.9404296875 106.454101562 c 6
 171.953125 302.759765625 l 2
 183.754941842 331.006808491 190.05125516 347.620192657 190.05125516 356.791616275 c 0
 190.05125516 364.069477939 186.086463082 366.661132812 177.76171875 366.661132812 c 2
 132.03125 366.661132812 l 2
 126.912401997 366.661132812 124.392373486 375.540263942 124.392373486 384.465911592 c 0
 124.392373486 393.48557219 126.965767987 402.552734375 132.03125 402.552734375 c 2
EndSplineSet
Validated: 524289
EndChar

StartChar: q.fina
Encoding: 305 57394 145
Width: 485
VWidth: 800
Flags: W
HStem: -227.999 21G<-20.5756 -13.6279> 366.662 35.8916<124.393 177.876> 373.065 43.4902<315.259 437.678> 561.573 27.1455<526.163 586.883>
VStem: 471.836 81.2617<207.864 338.772>
DStem2: -27.7773 -227.999 53.3874 -227.999 0.34202 0.939693<44.1327 261.184 309.473 617.82>
LayerCount: 2
Fore
SplineSet
132.03125 402.553710938 m 2xd8
 243.010742188 402.553710938 l 2xd8
 261.155043583 402.553710938 269.22790689 398.66898143 269.22790689 385.102518292 c 0
 269.22790689 382.625837097 268.958855937 379.826484806 268.432913955 376.669190723 c 1
 298.203175803 389.000123215 336.317686841 403.332835623 361.94921875 412.293945312 c 0
 379.017578125 414.752929688 402.677734375 416.555664062 424.234375 416.555664062 c 0xb8
 493.985351562 416.555664062 553.09765625 382.364257812 553.09765625 293.58984375 c 0
 553.09765625 182.827558995 435.789688942 45.5742259517 253.794921875 4.044921875 c 0
 169.606961829 -15.1656640991 169.606961829 -15.1656640991 129.032208466 -18.1945072799 c 1
 62.486328125 -203 l 1
 38.3251953125 -212.685546875 0.521484375 -222.967773438 -27.77734375 -227.999023438 c 1
 159.87109375 293.122070312 l 2
 172.053094708 326.953141632 177.881826714 345.222493897 177.881826714 355.08741065 c 0
 177.881826714 366.438475808 170.164613991 366.662109375 155.529296875 366.662109375 c 2
 132.03125 366.662109375 l 2
 126.887323568 366.662109375 124.390631523 375.453683027 124.390631523 384.334541273 c 0
 124.390631523 393.397632909 126.990838048 402.553710938 132.03125 402.553710938 c 2xd8
271.118164062 434.259765625 m 1
 396.217773438 544.4921875 l 2
 437.903320312 581.223632812 461.3984375 588.71875 522.303710938 588.71875 c 2
 586.8828125 588.71875 l 1
 586.8828125 561.573242188 l 1
 533.587890625 551.438476562 478.8203125 538.676757812 419.897460938 504.58203125 c 2
 298.368164062 434.259765625 l 1
 271.118164062 434.259765625 l 1
148.854516492 36.8543008942 m 1
 159.644928359 36.1241158787 170.137696737 35.7711156958 180.336812476 35.7711156958 c 0
 385.49730076 35.7711156958 471.8359375 178.607003352 471.8359375 267.4296875 c 0
 471.8359375 328.752929688 440.572265625 373.065429688 366.09765625 373.065429688 c 0xb8
 308.94140625 373.065429688 259.875976562 345.173828125 233.162109375 270.985351562 c 1
 233.161920108 270.985567706 148.854516492 36.8543008942 148.854516492 36.8543008942 c 1
EndSplineSet
Validated: 524321
EndChar

StartChar: r.init
Encoding: 306 57395 146
Width: 558
VWidth: 800
Flags: W
HStem: -228.002 21G<341.834 347.627> 366.66 35.8916<571.874 697.702> 379.753 47.1445<320.911 495.033>
VStem: 89.7285 88.7656<84.1247 241.864> 376.567 84.463<-166.133 -53.8644>
LayerCount: 2
Fore
SplineSet
423.7421875 -203.001953125 m 1xb8
 399.58203125 -212.6875 361.776367188 -222.970703125 333.478515625 -228.001953125 c 1
 363 -157.340820312 l 2
 372.309310567 -135.057980022 376.566630718 -116.501451516 376.566630718 -100.9544045 c 0
 376.566630718 -37.6093620449 305.891641709 -24.2241684496 218.291992188 -12.3134765625 c 0
 137.245117188 -1.29296875 89.728515625 50.353515625 89.728515625 136.006835938 c 0
 89.728515625 244.552734375 147.751953125 317.094726562 205.489257812 355.0546875 c 1
 260.71500186 383.928216717 346.552012149 426.897460938 447.436523438 426.897460938 c 0xb8
 488.187975208 426.897460938 533.87171157 419.70697588 570.470338886 402.551757812 c 1
 690.005859375 402.551757812 l 2
 695.002939073 402.551757812 697.710228755 393.122399823 697.710228755 383.929905797 c 0
 697.710228755 375.187922956 695.2617975 366.66015625 690.005859375 366.66015625 c 2
 601.516065347 366.66015625 l 1xd8
 581.423141166 351.729420248 557.297858258 341.233842949 530.815429688 333.331054688 c 1
 499.573242188 365.287109375 445.313476562 379.752929688 389.677734375 379.752929688 c 0
 293.828125 379.752929688 178.494140625 308.397460938 178.494140625 169.946289062 c 0
 178.494140625 136.712021995 178.494140625 42.7129246664 306.997832751 26.1247235308 c 0
 366.701221873 18.417771218 461.029610751 6.24116942838 461.029610751 -80.6179213407 c 0
 461.029610751 -101.588003645 455.531517152 -126.911084231 442.720703125 -157.575195312 c 2
 423.7421875 -203.001953125 l 1xb8
EndSplineSet
Validated: 524289
EndChar

StartChar: r.medi
Encoding: 307 57396 147
Width: 475
VWidth: 800
Flags: W
HStem: -13.2393 45.8564<220.529 343.832> 366.661 35.8916<124.175 245.92 264.405 330.717 514.51 614.433>
VStem: 94.9053 78.2881<82.6123 227.116> 440.259 78.5924<175.833 365.667>
LayerCount: 2
Fore
SplineSet
251.724609375 402.932617188 m 2
 251.944611188 402.932617188 261.059532087 402.928992498 261.153824243 402.928992498 c 0
 289.586888142 402.928992498 313.237647604 403.237404141 342.543945312 409.543945312 c 1
 330.716796875 366.661132812 l 1
 222.970703125 366.661132812 173.193359375 247.329101562 173.193359375 165.170898438 c 0
 173.193359375 73.1640625 229.041015625 32.6171875 284.697265625 32.6171875 c 0
 374.785536895 32.6171875 440.259159051 140.230166371 440.259159051 267.594394428 c 0
 440.259159051 284.450586822 438.699504054 337.883751649 420.543945312 386.30078125 c 1
 429.287109375 405.248046875 l 1
 457.713867188 402.944335938 469.454101562 402.552734375 508.123046875 402.552734375 c 2
 606.4921875 402.552734375 l 2
 611.762832094 402.552734375 614.435314125 393.496843425 614.435314125 384.482735155 c 0
 614.435314125 375.55142467 611.811702006 366.661132812 606.4921875 366.661132812 c 2
 514.509765625 366.661132812 l 1
 517.438208916 344.909935125 518.851549367 323.774078342 518.851549367 303.341788558 c 0
 518.851549367 115.235293612 399.061624475 -13.2392578125 238.88671875 -13.2392578125 c 0
 130.393554688 -13.2392578125 94.9052734375 55.9443359375 94.9052734375 136.387695312 c 0
 94.9052734375 237.208007812 172.703125 330.416992188 245.919921875 367.041015625 c 1
 132.032226562 366.661132812 l 2
 126.605656434 366.661132812 124.156798084 374.972717523 124.156798084 383.596451647 c 0
 124.156798084 392.893206668 127.002803498 402.552734375 132.032226562 402.552734375 c 2
 251.724609375 402.932617188 l 2
EndSplineSet
Validated: 524289
EndChar

StartChar: r.fina
Encoding: 308 57397 148
Width: 519
VWidth: 800
Flags: W
HStem: -18.4697 34.9033<286.522 428.212> 366.661 35.8916<124.3 272.56 290.733 504.048>
VStem: 110.062 82.915<95.5022 266.695> 434.256 82.2383<-54.1951 -5.1792>
LayerCount: 2
Fore
SplineSet
132.03125 402.552734375 m 2
 437.17578125 402.795898438 l 2
 467.102539062 402.819335938 505.90234375 405.715820312 522.93359375 407.418945312 c 1
 505.415039062 354.008789062 l 1
 476.461914062 362.704101562 433.888671875 366.661132812 374.896484375 366.661132812 c 0
 271.37109375 366.661132812 192.977539062 303.729492188 192.977539062 191.33203125 c 0
 192.977539062 109.936523438 224.715820312 16.43359375 382.974609375 16.43359375 c 0
 492.280273438 16.43359375 516.494140625 8.4462890625 516.494140625 -18.8046875 c 0
 516.494140625 -32.1865234375 501.409179688 -51.1650390625 482.430664062 -64.060546875 c 0
 473.683802935 -70.0038576291 473.683802935 -70.0038576291 398.24609375 -100.0703125 c 1
 398.24609375 -80.8486328125 l 1
 398.24609375 -80.8486328125 434.255859375 -65.51953125 434.255859375 -45.08203125 c 0
 434.255859375 -28.05078125 397.758789062 -18.4697265625 302.640625 -18.4697265625 c 0
 165.20703125 -18.4697265625 110.0625 76.6181640625 110.0625 163.096679688 c 0
 110.0625 256.874023438 150.756835938 318.845703125 207.181640625 340.99609375 c 2
 272.559570312 366.661132812 l 1
 132.03125 366.661132812 l 2
 126.787129793 366.661132812 124.292384839 375.325786474 124.292384839 384.140569508 c 0
 124.292384839 393.2661997 126.966183057 402.552734375 132.03125 402.552734375 c 2
EndSplineSet
Validated: 524289
EndChar

StartChar: s.init
Encoding: 309 57398 149
Width: 509
VWidth: 800
Flags: W
HStem: 366.659 35.8916<578.561 648.574> 389.631 43.9062<469.406 566.059>
LayerCount: 2
Fore
SplineSet
544.956054688 366.659179688 m 2x80
 503.967773437 366.659179688 516.989257812 389.630859375 496.794921875 389.630859375 c 0
 486.94140625 389.630859375 445.536132812 365.959960938 426.092773438 352.05859375 c 0
 333.341796875 285.75 248.2734375 198.754882812 121.65234375 -0.001953125 c 1
 97.4912109375 -9.6875 59.6865234375 -19.9697265625 31.3876953125 -25.001953125 c 1
 60.1695669324 21.6580522659 194.759077412 231.070617151 364.818359375 353.740234375 c 0
 418.944335938 392.784179688 501.9453125 433.537109375 554.7734375 433.537109375 c 0x40
 577.34375 433.537109375 581.161132813 402.55078125 616.283203125 402.55078125 c 2
 641.072265625 402.55078125 l 2
 646.094144389 402.55078125 648.576291482 393.647408148 648.576291482 384.709473691 c 0
 648.576291482 375.701877785 646.055302354 366.659179688 641.072265625 366.659179688 c 2
 544.956054688 366.659179688 l 2x80
EndSplineSet
Validated: 524289
EndChar

StartChar: s.medi
Encoding: 310 57399 150
Width: 339
VWidth: 800
Flags: W
HStem: 0 21G<0 46.3643 207.853 254.216> 101.616 24.9206<166.093 232.884> 257.911 24.9207<170.969 236.995> 366.66 35.8926<124.289 262.418 288.011 321.874 322.482 394.283>
VStem: 107.147 37.0373<141.974 238.008> 258.679 37.0461<145.195 243.009>
LayerCount: 2
Fore
SplineSet
254.215820312 46.3642578125 m 1
 254.215820312 0 l 1
 207.852539062 0 l 1
 254.215820312 46.3642578125 l 1
0 46.3642578125 m 1
 46.3642578125 0 l 1
 0 0 l 1
 0 46.3642578125 l 1
258.67934047 196.026198991 m 0
 258.67934047 235.280238944 232.0978058 257.910800502 204.078722756 257.910800502 c 0
 173.73931705 257.910800502 144.184196274 230.974580976 144.184196274 188.557838147 c 0
 144.184196274 150.117409575 170.539317031 126.536248538 198.802833573 126.536248538 c 0
 229.359929229 126.536248538 258.67934047 152.907615165 258.67934047 196.026198991 c 0
204.217770378 282.831478166 m 0
 258.312690635 282.831478166 295.725436956 248.804066489 295.725436956 196.616203398 c 0
 295.725436956 139.472899983 252.878874946 101.615660106 198.535708953 101.615660106 c 0
 146.033416229 101.615660106 107.146879163 136.96346589 107.146879163 188.2673849 c 0
 107.146879163 242.106657053 146.097929316 282.831478166 204.217770378 282.831478166 c 0
233.268554688 317.119140625 m 1
 262.424877678 355.228280233 262.424877678 355.228280233 262.424877678 359.86128895 c 0
 262.424877678 365.626693426 253.682345054 366.575326695 233.64453125 366.5859375 c 2
 132.030273438 366.66015625 l 2
 126.819148753 366.66015625 124.287036959 375.458302752 124.287036959 384.342664246 c 0
 124.287036959 393.402868526 126.92037379 402.552734375 132.03125 402.552734375 c 2
 296.57421875 402.560546875 l 2
 310.51953125 402.561523438 319.264648438 398.500976562 322.006835938 392.497070312 c 1
 332.151367188 398.953125 341.705078125 402.560546875 355.65234375 402.560546875 c 2
 386.440429688 402.552734375 l 2
 391.92040864 402.552734375 394.317145256 394.46640873 394.317145256 385.970311724 c 0
 394.317145256 376.567178278 391.381344453 366.662109375 386.440429688 366.662109375 c 2
 358.809570312 366.668945312 l 2
 304.701171875 366.668945312 292.182617188 355.888671875 252.733398438 317.119140625 c 1
 233.268554688 317.119140625 l 1
EndSplineSet
Validated: 524289
EndChar

StartChar: s.fina
Encoding: 311 57400 151
Width: 536
VWidth: 800
Flags: W
HStem: 366.662 35.8916<124.658 294.314 321.704 400.887 427.716 604.046> 534.206 24.9207<332.713 398.744>
VStem: 268.893 37.0383<418.061 514.299> 420.427 37.0469<421.86 519.303>
LayerCount: 2
Fore
SplineSet
420.42651894 472.323063308 m 0
 420.42651894 511.571815283 393.849253213 534.205722377 365.82582021 534.205722377 c 0
 335.480887517 534.205722377 305.931373528 507.260507179 305.931373528 464.854678486 c 0
 305.931373528 426.413093119 332.286915363 402.831170413 360.550880447 402.831170413 c 0
 391.097582337 402.831170413 420.42651894 429.189387718 420.42651894 472.323063308 c 0
365.964840689 559.126400041 m 0
 420.061296065 559.126400041 457.473384417 525.098246075 457.473384417 472.909405997 c 0
 457.473384417 464.793589004 457.234933744 429.25669098 427.716256496 402.553710938 c 1
 509.8203125 402.553710938 l 2
 585.317382812 402.553710938 618.2265625 417.858398438 639.536132812 458.819335938 c 1
 663.624023438 458.819335938 l 1
 660.399813719 452.485976335 657.325545885 446.218437258 654.327491152 440.106274554 c 0
 634.220772953 399.114516894 617.541992304 365.111328125 582.05078125 365.111328125 c 1
 579.470703125 366.057617188 563.353515625 366.662109375 542.620117188 366.662109375 c 2
 132.224609375 366.662109375 l 2
 126.962578961 366.662109375 124.630189138 374.846338037 124.630189138 383.398513556 c 0
 124.630189138 392.755866315 127.422436768 402.553710938 132.224609375 402.553710938 c 2
 294.314297233 402.553710938 l 1
 278.393932725 417.760018671 268.893073316 439.197310497 268.893073316 464.564191348 c 0
 268.893073316 518.392186797 307.837400123 559.126400041 365.964840689 559.126400041 c 0
EndSplineSet
Validated: 524289
EndChar

StartChar: t.init
Encoding: 312 57401 152
Width: 190
VWidth: 800
Flags: W
HStem: -228.002 21G<-20.5747 -13.627> 366.662 35.8916<282.82 329.554> 374.731 14.0322<123.397 134.302> 396.553 20G<225.789 234.341> 575.117 74.7324<290.576 331.93>
VStem: 332.46 21.4258<518.055 537.318>
DStem2: -27.7764 -228.002 53.388 -228.002 0.34202 0.939693<45.0153 592.323>
LayerCount: 2
Fore
SplineSet
207.690429688 518.0546875 m 1x8c
 238.0859375 573.813476562 299.340820312 649.849609375 324.646484375 649.849609375 c 0
 339.213552172 649.849609375 354.511765585 594.614309717 354.511765585 537.623814437 c 0
 354.511765585 531.097015812 354.311116917 524.547196351 353.885742188 518.0546875 c 1
 332.459960938 518.0546875 l 1
 330.287109375 545.940429688 318.0703125 575.1171875 301.374023438 575.1171875 c 0
 283.40234375 575.1171875 246.876953125 540.004882812 231.869140625 518.0546875 c 1
 207.690429688 518.0546875 l 1x8c
227.78354391 256.040146878 m 1
 62.4873046875 -203.001953125 l 1
 38.326171875 -212.6875 0.5224609375 -222.969726562 -27.7763671875 -228.001953125 c 1
 163.341796875 302.7578125 l 2
 166.609354064 311.831439899 168.61964296 321.787290483 168.61964296 331.300005593 c 0
 168.61964296 351.477045531 159.57556286 369.660465178 134.301757812 373.203125 c 2
 123.397460938 374.731445312 l 1
 120.873046875 388.763671875 l 1
 154.638073826 398.189977013 221.523489921 416.552545405 230.054262803 416.552545405 c 0xbc
 238.627035219 416.552545405 246.519787642 402.881255461 251.756528038 381.707293274 c 1
 275.623330644 396.917401565 299.049091544 402.553710938 321.935546875 402.553710938 c 0
 327.299346698 402.553710938 329.596890058 394.624582412 329.596890058 386.220022854 c 0
 329.596890058 376.743300535 326.675765279 366.662109375 321.935546875 366.662109375 c 0xcc
 293.956117128 366.662109375 260.713532134 341.197654116 227.78354391 256.040146878 c 1
EndSplineSet
Validated: 524289
EndChar

StartChar: t.medi
Encoding: 313 57402 153
Width: 190
VWidth: 800
Flags: W
HStem: -227.999 21G<-20.5747 -13.627> 366.664 35.8916<123.666 177.877 277.405 329.844> 575.12 74.7324<290.576 331.93>
VStem: 332.459 21.4268<518.058 537.317>
DStem2: -27.7764 -227.999 53.3877 -227.999 0.34202 0.939693<45.016 617.822>
LayerCount: 2
Fore
SplineSet
132.03125 402.555664062 m 2
 321.93359375 402.559570312 l 2
 327.17248098 402.559570312 329.845892542 393.466050512 329.845892542 384.433322564 c 0
 329.845892542 375.520563499 327.243023639 366.666992188 321.93359375 366.666992188 c 0
 291.99609375 366.666992188 261.686523438 350.124023438 236.254882812 279.509765625 c 2
 62.4873046875 -202.998046875 l 1
 38.3271484375 -212.684570312 0.5224609375 -222.966796875 -27.7763671875 -227.999023438 c 1
 159.872070312 293.124023438 l 2
 172.05407127 326.955094757 177.882803277 345.224447022 177.882803277 355.089363775 c 0
 177.882803277 366.440428933 170.165590553 366.6640625 155.530273438 366.6640625 c 2
 132.03125 366.6640625 l 2
 126.495119032 366.6640625 123.663587587 375.770570424 123.663587587 384.809530386 c 0
 123.663587587 393.715383827 126.412339543 402.555664062 132.03125 402.555664062 c 2
207.690429688 518.057617188 m 1
 238.0859375 573.81640625 299.340820312 649.852539062 324.646484375 649.852539062 c 0
 339.213007386 649.852539062 354.511495499 594.614725808 354.511495499 537.62285396 c 0
 354.511495499 531.097342913 354.310932077 524.54883613 353.885742188 518.057617188 c 1
 332.458984375 518.057617188 l 1
 330.287109375 545.943359375 318.069335938 575.120117188 301.374023438 575.120117188 c 0
 283.401367188 575.120117188 246.876953125 540.0078125 231.868164062 518.057617188 c 1
 207.690429688 518.057617188 l 1
EndSplineSet
Validated: 524289
EndChar

StartChar: t.fina
Encoding: 314 57403 154
Width: 190
VWidth: 800
Flags: W
HStem: -228 21G<-20.5765 -13.6289> 366.661 35.8916<123.961 177.876> 575.117 74.7324<290.574 331.928>
VStem: 177.881 91.3446<313.067 391.888> 332.457 21.4268<518.055 537.314>
DStem2: -27.7783 -228 53.3861 -228 0.34202 0.939693<45.0153 617.819>
LayerCount: 2
Fore
SplineSet
207.688476562 518.0546875 m 1
 238.083984375 573.813476562 299.338867188 649.849609375 324.64453125 649.849609375 c 0
 339.211054261 649.849609375 354.509542374 594.61179612 354.509542374 537.619924273 c 0
 354.509542374 531.094413226 354.308978952 524.545906442 353.883789062 518.0546875 c 1
 332.45703125 518.0546875 l 1
 330.28515625 545.940429688 318.067382812 575.1171875 301.372070312 575.1171875 c 0
 283.399414062 575.1171875 246.875 540.004882812 231.866210938 518.0546875 c 1
 207.688476562 518.0546875 l 1
132.029296875 402.552734375 m 2
 243.010742188 402.552734375 l 2
 261.154762555 402.552734375 269.225970143 398.669862164 269.225970143 385.105696267 c 0
 269.225970143 373.292914781 263.104486794 354.13750489 252.18359375 323.809570312 c 2
 62.4853515625 -203 l 1
 38.32421875 -212.685546875 0.5205078125 -222.96875 -27.7783203125 -228 c 1
 159.87109375 293.120117188 l 2
 172.052858618 326.950532853 177.88138966 345.220043765 177.88138966 355.08532101 c 0
 177.88138966 366.437212161 170.163883929 366.661132812 155.528320312 366.661132812 c 2
 132.029296875 366.661132812 l 2
 126.441038039 366.661132812 123.941416951 374.910443658 123.941416951 383.499364111 c 0
 123.941416951 392.825829465 126.888763353 402.552734375 132.029296875 402.552734375 c 2
EndSplineSet
Validated: 524289
EndChar

